<svg width="40" height="40" viewBox="0 0 40 40" fill="none" xmlns="http://www.w3.org/2000/svg">
<path d="M40 5C40 2.23858 37.7614 0 35 0H5C2.23858 0 0 2.23858 0 5V35C0 37.7614 2.23858 40 5 40H35C37.7614 40 40 37.7614 40 35V5Z" fill="white"/>
<path fill-rule="evenodd" clip-rule="evenodd" d="M30.7274 10.9219C31.5129 10.9219 32.2104 11.2883 32.6494 11.8552L19.9021 22.2595L7.26845 12.0441C7.69086 11.3711 8.45273 10.9219 9.32241 10.9219H30.7274ZM6.91736 28.2416V13.8903L15.9823 21.2201L6.93605 28.5348C6.92371 28.4387 6.91736 28.3409 6.91736 28.2416ZM7.74641 30.0096C8.1685 30.3663 8.71955 30.5821 9.32241 30.5821H30.7274C31.2455 30.5821 31.7254 30.4226 32.1181 30.1514L22.4854 22.2892L20.7532 23.7031C20.2633 24.1029 19.5496 24.1045 19.0578 23.7069L17.2995 22.2851L7.74641 30.0096ZM23.7954 21.2201L33.0667 28.7873C33.1097 28.6123 33.1324 28.4295 33.1324 28.2416V13.5992L23.7954 21.2201Z" fill="black"/>
</svg>
