<svg width="99" height="40" viewBox="0 0 99 40" fill="none" xmlns="http://www.w3.org/2000/svg">
<path d="M20 40C31.0457 40 40 31.0457 40 20C40 8.95432 31.0457 0 20 0C8.95434 0 0 8.95432 0 20C0 31.0457 8.95434 40 20 40Z" fill="#F28705"/>
<path d="M48 40C59.0457 40 68 31.0456 68 20C68 8.95423 59.0457 0 48 0L48 40Z" fill="#F28705"/>
<path d="M76 40C79.9449 40 86 31.0456 86 20C86 8.95423 80.2857 0 76 0V40Z" fill="#F28705"/>
<path d="M94 40C95.9724 40 99 31.0456 99 20C99 8.95423 96.1429 0 94 0V40Z" fill="#F28705"/>
</svg>
