<svg width="212" height="176" viewBox="0 0 212 176" fill="none" xmlns="http://www.w3.org/2000/svg">
<path fill-rule="evenodd" clip-rule="evenodd" d="M149.616 25.8718C115.447 -8.29657 60.0484 -8.30473 25.8718 25.8719C-8.29377 60.0374 -8.29654 115.447 25.8718 149.615C59.885 183.629 114.936 183.791 149.149 150.079L149.15 150.081L149.615 149.616L211.487 87.7437L149.616 25.8718ZM124.31 51.5986C143.836 71.1249 143.836 102.783 124.31 122.309C104.783 141.835 73.1253 141.836 53.5991 122.309C34.0729 102.783 34.0728 71.1247 53.599 51.5986C73.1252 32.0724 104.784 32.0724 124.31 51.5986Z" fill="url(#paint0_linear_45_26972)"/>
<defs>
<linearGradient id="paint0_linear_45_26972" x1="-1.53885e-06" y1="91" x2="210" y2="91" gradientUnits="userSpaceOnUse">
<stop stop-color="#F28705"/>
<stop offset="1" stop-color="#D74A2E"/>
</linearGradient>
</defs>
</svg>
