<?xml version="1.0" encoding="UTF-8" standalone="no"?>
<!-- Created with Inkscape (http://www.inkscape.org/) -->

<svg
   version="1.1"
   id="svg1"
   width="540"
   height="960"
   viewBox="0 0 540 960"
   sodipodi:docname="landing_small_line.svg"
   inkscape:version="1.3.2 (091e20e, 2023-11-25)"
   inkscape:export-filename="landing_line_text.png"
   inkscape:export-xdpi="96"
   inkscape:export-ydpi="96"
   xml:space="preserve"
   xmlns:inkscape="http://www.inkscape.org/namespaces/inkscape"
   xmlns:sodipodi="http://sodipodi.sourceforge.net/DTD/sodipodi-0.dtd"
   xmlns="http://www.w3.org/2000/svg"
   xmlns:svg="http://www.w3.org/2000/svg"><defs
     id="defs1"><inkscape:path-effect
       effect="bspline"
       id="path-effect35"
       is_visible="true"
       lpeversion="1.3"
       weight="33.333333"
       steps="2"
       helper_size="0"
       apply_no_weight="true"
       apply_with_weight="true"
       only_selected="false"
       uniform="false" /><rect
       x="153.17824"
       y="148.80173"
       width="1284.509"
       height="448.59341"
       id="rect31" /><inkscape:path-effect
       effect="bspline"
       id="path-effect4"
       is_visible="true"
       lpeversion="1.3"
       weight="33.333333"
       steps="2"
       helper_size="0"
       apply_no_weight="true"
       apply_with_weight="true"
       only_selected="false"
       uniform="false" /><inkscape:path-effect
       effect="bspline"
       id="path-effect27"
       is_visible="true"
       lpeversion="1.3"
       weight="33.333333"
       steps="2"
       helper_size="0"
       apply_no_weight="true"
       apply_with_weight="true"
       only_selected="false"
       uniform="false" /><inkscape:path-effect
       effect="fillet_chamfer"
       id="path-effect48"
       is_visible="true"
       lpeversion="1"
       nodesatellites_param="F,0,0,1,0,35.174275,0,1 @ F,0,0,1,0,0,0,1 @ F,0,0,1,0,0,0,1 @ F,0,0,1,0,26.967006,0,1"
       radius="0"
       unit="px"
       method="auto"
       mode="F"
       chamfer_steps="1"
       flexible="false"
       use_knot_distance="true"
       apply_no_radius="true"
       apply_with_radius="true"
       only_selected="false"
       hide_knots="false" /><rect
       x="633.89178"
       y="291.68799"
       width="791.9574"
       height="246.06084"
       id="rect47" /><rect
       x="50.659966"
       y="467.76038"
       width="207.70587"
       height="20.263987"
       id="rect3" /><rect
       x="173.93256"
       y="280.31848"
       width="1372.8851"
       height="202.63988"
       id="rect1" /><pattern
       patternUnits="userSpaceOnUse"
       width="459.11733"
       height="454.02251"
       patternTransform="translate(85.46106,465.15187)"
       preserveAspectRatio="xMidYMid"
       id="pattern4"
       inkscape:label="path19"><path
         id="use21"
         style="display:inline;fill:none;stroke:#ffffff;stroke-width:9.60003;stroke-linecap:round;stroke-linejoin:round;stroke-dasharray:none;paint-order:markers stroke fill"
         inkscape:label="path19"
         d="m 318.75846,226.81568 c 10e-6,48.88433 -39.97448,88.51291 -89.28551,88.51291 -49.31103,0 -89.28551,-39.62859 -89.28551,-88.51291 0,-48.88432 39.97448,-88.5129 89.28551,-88.5129 49.31103,0 89.28552,39.62857 89.28551,88.5129 z"
         sodipodi:nodetypes="sssss" /><path
         id="path19-7-7"
         style="display:inline;fill:none;stroke:#ffffff;stroke-width:9.50001;stroke-linecap:round;stroke-linejoin:round;stroke-dasharray:none;paint-order:markers stroke fill"
         inkscape:label="path19"
         d="m 373.41508,226.86727 c 0,78.21155 -63.8969,141.66078 -142.87064,142.05625 -0.24737,8.3e-4 -0.49488,0.002 -0.74254,0.002 -79.31537,0 -143.613177,-63.60158 -143.613177,-142.05811 0,-78.45654 64.297807,-142.05812 143.613177,-142.05812 79.31537,0 143.61318,63.60158 143.61318,142.05812 z"
         sodipodi:nodetypes="ssssss" /><path
         id="ellipse22"
         style="display:inline;fill:none;stroke:#ffffff;stroke-width:9.6;stroke-linecap:round;stroke-linejoin:round;stroke-dasharray:none;paint-order:markers stroke fill"
         inkscape:label="path19"
         d="M 399.67732,226.4839 A 169.87542,168.07626 0 0 1 229.8019,394.56017 169.87542,168.07626 0 0 1 59.92648,226.4839 169.87542,168.07626 0 0 1 229.8019,58.407621 169.87542,168.07626 0 0 1 399.67732,226.4839 Z" /><path
         id="ellipse23"
         style="display:inline;fill:none;stroke:#ffffff;stroke-width:9.70005;stroke-linecap:round;stroke-linejoin:round;stroke-dasharray:none;paint-order:markers stroke fill"
         inkscape:label="path19"
         d="M 427.35718,227.07816 A 197.55526,195.4021 0 0 1 229.80192,422.48031 197.55526,195.4021 0 0 1 32.246649,227.07816 197.55526,195.4021 0 0 1 229.80192,31.676059 197.55526,195.4021 0 0 1 427.35718,227.07816 Z" /><path
         id="ellipse24"
         style="display:inline;fill:none;stroke:#ffffff;stroke-width:9.50001;stroke-linecap:round;stroke-linejoin:round;stroke-dasharray:none;paint-order:markers stroke fill"
         inkscape:label="path19"
         d="M 454.31279,227.01125 A 224.75412,222.31516 0 0 1 229.55867,449.32642 224.75412,222.31516 0 0 1 4.8045421,227.01125 224.75412,222.31516 0 0 1 229.55867,4.6960901 224.75412,222.31516 0 0 1 454.31279,227.01125 Z" /><path
         id="ellipse25"
         style="display:inline;fill:none;stroke:#ffffff;stroke-width:9.49993;stroke-linecap:round;stroke-linejoin:round;stroke-dasharray:none;paint-order:markers stroke fill"
         inkscape:label="path19"
         d="M 346.39434,226.81661 A 115.26328,116.73149 87.587447 0 1 229.54123,342.08252 115.26328,116.73149 87.587447 0 1 112.93667,226.81661 115.26328,116.73149 87.587447 0 1 229.78979,111.55072 115.26328,116.73149 87.587447 0 1 346.39434,226.81661 Z" /></pattern><pattern
       patternUnits="userSpaceOnUse"
       width="674.27631"
       height="674.26551"
       patternTransform="translate(1172.3374,23.793999)"
       preserveAspectRatio="xMidYMid"
       id="pattern68"><path
         id="path39"
         style="fill:none;fill-opacity:1;stroke:#ffffff;stroke-width:9.20002;stroke-linecap:butt;stroke-dasharray:none;stroke-opacity:1;paint-order:normal"
         d="M 337.13719,4.5477951 A 332.48622,332.58523 0 0 0 4.6528223,337.13178 332.48622,332.58523 0 0 0 337.13719,669.71772 332.48622,332.58523 0 0 0 669.62348,337.13178 332.48622,332.58523 0 0 0 337.13719,4.5477951 Z M 336.87547,30.094669 A 307.15749,307.15837 0 0 1 644.03364,337.25287 307.15749,307.15837 0 0 1 336.87547,644.41108 307.15749,307.15837 0 0 1 29.717227,337.25287 307.15749,307.15837 0 0 1 336.87547,30.094669 Z m 0.26172,25.101568 A 281.94427,281.94493 0 0 0 55.193843,337.14155 281.94427,281.94493 0 0 0 337.13719,619.08491 281.94427,281.94493 0 0 0 619.08246,337.14155 281.94427,281.94493 0 0 0 337.13719,55.196237 Z m 0,25.275389 A 256.59596,256.5964 0 0 1 593.73483,337.06928 256.59596,256.5964 0 0 1 337.13719,593.66499 256.59596,256.5964 0 0 1 80.541478,337.06928 256.59596,256.5964 0 0 1 337.13719,80.471626 Z m 0,25.197264 A 231.45343,231.45361 0 0 0 105.68409,337.12201 231.45343,231.45361 0 0 0 337.13719,568.5771 231.45343,231.45361 0 0 0 568.5923,337.12201 231.45343,231.45361 0 0 0 337.13719,105.66889 Z m 0,25.5918 A 205.79393,205.79384 0 0 1 542.93209,337.05366 205.79393,205.79384 0 0 1 337.13719,542.84858 205.79393,205.79384 0 0 1 131.34422,337.05366 205.79393,205.79384 0 0 1 337.13719,131.26069 Z" /></pattern></defs><sodipodi:namedview
     id="namedview1"
     pagecolor="#000000"
     bordercolor="#000000"
     borderopacity="0.25"
     inkscape:showpageshadow="2"
     inkscape:pageopacity="0.0"
     inkscape:pagecheckerboard="false"
     inkscape:deskcolor="#d1d1d1"
     showgrid="false"
     showguides="true"
     inkscape:zoom="1.8125084"
     inkscape:cx="283.5849"
     inkscape:cy="737.65176"
     inkscape:window-width="1920"
     inkscape:window-height="1027"
     inkscape:window-x="0"
     inkscape:window-y="-155"
     inkscape:window-maximized="0"
     inkscape:current-layer="layer2"><inkscape:grid
       id="grid11"
       units="px"
       originx="0"
       originy="0"
       spacingx="1"
       spacingy="1"
       empcolor="#0099e5"
       empopacity="0.30196078"
       color="#0099e5"
       opacity="0.14901961"
       empspacing="5"
       dotted="false"
       gridanglex="30"
       gridanglez="30"
       visible="false" /><sodipodi:guide
       position="270,520"
       orientation="-1,0"
       id="guide72"
       inkscape:locked="false"
       inkscape:label=""
       inkscape:color="rgb(192,28,40)" /><sodipodi:guide
       position="90,1035.6458"
       orientation="-1,0"
       id="guide22"
       inkscape:locked="false"
       inkscape:label=""
       inkscape:color="rgb(255,190,111)" /><sodipodi:guide
       position="127.30655,950"
       orientation="0,1"
       id="guide35"
       inkscape:locked="false"
       inkscape:label=""
       inkscape:color="rgb(0,134,229)" /><sodipodi:guide
       position="960,520"
       orientation="0,1"
       id="guide36"
       inkscape:locked="false"
       inkscape:label=""
       inkscape:color="rgb(192,28,40)" /><sodipodi:guide
       position="20,376.75573"
       orientation="-1,0"
       id="guide38"
       inkscape:locked="false"
       inkscape:label=""
       inkscape:color="rgb(246,97,81)" /><sodipodi:guide
       position="1800,500"
       orientation="-1,0"
       id="guide39"
       inkscape:locked="false"
       inkscape:label=""
       inkscape:color="rgb(249,240,107)" /><sodipodi:guide
       position="180,500"
       orientation="-1,0"
       id="guide1"
       inkscape:locked="false"
       inkscape:label=""
       inkscape:color="rgb(255,190,111)" /><sodipodi:guide
       position="451.1099,256.02745"
       orientation="-1,0"
       id="guide2"
       inkscape:locked="false"
       inkscape:label=""
       inkscape:color="rgb(255,190,111)" /><sodipodi:guide
       position="520,500"
       orientation="-1,0"
       id="guide3"
       inkscape:label=""
       inkscape:locked="false"
       inkscape:color="rgb(246,97,81)" /><sodipodi:guide
       position="360,500"
       orientation="-1,0"
       id="guide4"
       inkscape:label=""
       inkscape:locked="false"
       inkscape:color="rgb(255,190,111)" /><sodipodi:guide
       position="840,500"
       orientation="-1,0"
       id="guide5"
       inkscape:label=""
       inkscape:locked="false"
       inkscape:color="rgb(255,190,111)" /><sodipodi:guide
       position="1080,1071.9149"
       orientation="-1,0"
       id="guide6"
       inkscape:label=""
       inkscape:locked="false"
       inkscape:color="rgb(255,190,111)" /><sodipodi:guide
       position="1200,1121.0567"
       orientation="-1,0"
       id="guide7"
       inkscape:label=""
       inkscape:locked="false"
       inkscape:color="rgb(255,190,111)" /><sodipodi:guide
       position="1320,1103.078"
       orientation="-1,0"
       id="guide8"
       inkscape:label=""
       inkscape:locked="false"
       inkscape:color="rgb(255,190,111)" /><sodipodi:guide
       position="1440,1113.8652"
       orientation="-1,0"
       id="guide9"
       inkscape:label=""
       inkscape:locked="false"
       inkscape:color="rgb(255,190,111)" /><sodipodi:guide
       position="1320,1103.078"
       orientation="-1,0"
       id="guide10"
       inkscape:label=""
       inkscape:locked="false"
       inkscape:color="rgb(255,190,111)" /><sodipodi:guide
       position="1680,1135.4397"
       orientation="-1,0"
       id="guide11"
       inkscape:label=""
       inkscape:locked="false"
       inkscape:color="rgb(255,190,111)" /><sodipodi:guide
       position="1560,1185.7801"
       orientation="-1,0"
       id="guide12"
       inkscape:label=""
       inkscape:locked="false"
       inkscape:color="rgb(255,190,111)" /><sodipodi:guide
       position="960,840"
       orientation="0,1"
       id="guide13"
       inkscape:locked="false"
       inkscape:label=""
       inkscape:color="rgb(255,190,111)" /><sodipodi:guide
       position="1621.7341,680"
       orientation="0,1"
       id="guide14"
       inkscape:label=""
       inkscape:locked="false"
       inkscape:color="rgb(255,190,111)" /><sodipodi:guide
       position="1753.3531,360"
       orientation="0,1"
       id="guide15"
       inkscape:label=""
       inkscape:locked="false"
       inkscape:color="rgb(255,190,111)" /><sodipodi:guide
       position="1833.2646,200"
       orientation="0,1"
       id="guide16"
       inkscape:label=""
       inkscape:locked="false"
       inkscape:color="rgb(255,190,111)" /><sodipodi:guide
       position="1532.2573,210.30196"
       orientation="1,0"
       id="guide17"
       inkscape:locked="false" /><sodipodi:guide
       position="1558.3077,0.65858922"
       orientation="1,0"
       id="guide18"
       inkscape:locked="false" /><sodipodi:guide
       position="258.00793,50"
       orientation="0,1"
       id="guide48"
       inkscape:locked="false"
       inkscape:label=""
       inkscape:color="rgb(0,134,229)" /><sodipodi:guide
       position="530,186.9023"
       orientation="-1,0"
       id="guide52"
       inkscape:label=""
       inkscape:locked="false"
       inkscape:color="rgb(246,97,81)" /><sodipodi:guide
       position="10,888.56451"
       orientation="-1,0"
       id="guide53"
       inkscape:locked="false"
       inkscape:label=""
       inkscape:color="rgb(246,97,81)" /><sodipodi:guide
       position="426.996,351.97078"
       orientation="1,0"
       id="guide57"
       inkscape:locked="false" /><sodipodi:guide
       position="527.23612,96.656315"
       orientation="1,0"
       id="guide34"
       inkscape:locked="false" /><sodipodi:guide
       position="86.064355,277.05942"
       orientation="1,0"
       id="guide37"
       inkscape:locked="false" /></sodipodi:namedview><g
     inkscape:groupmode="layer"
     id="layer2"
     inkscape:label="path2"><path
       d="m 95.547802,808.12363 v 56.75429 h 21.741678 c 12.08664,0 22.31378,-9.56719 22.31378,-28.86354 0,-19.29659 -10.22714,-27.89075 -22.31378,-27.89075 z m 19.810668,44.99803 h -6.93728 v -33.24178 h 6.93728 c 6.29366,0 11.15692,3.24301 11.15692,17.02624 0,11.35097 -4.7918,16.21554 -11.15692,16.21554 z m 32.82708,-44.99803 v 56.75429 h 37.18973 v -11.75626 h -24.3164 v -11.2698 h 17.80819 v -11.75619 h -17.80819 v -10.21579 h 24.3164 v -11.75625 z m 72.01928,56.75429 13.80311,-56.75429 h -12.51578 l -8.8683,34.45794 -8.93984,-34.45794 h -12.51578 l 13.80311,56.75429 z m 21.16954,-56.75429 v 56.75429 h 37.18966 V 853.12166 H 254.2477 v -11.2698 h 17.80811 V 830.09567 H 254.2477 v -10.21579 h 24.31633 v -11.75625 z m 45.84333,0 v 56.75429 h 37.40428 v -11.75626 h -24.53094 v -44.99803 z m 40.4796,28.3772 c 0,18.32357 10.29869,29.1879 25.74672,29.1879 15.44804,0 25.74666,-10.86433 25.74666,-29.1879 0,-18.32362 -10.29862,-29.18802 -25.74666,-29.18802 -15.44803,0 -25.74672,10.8644 -25.74672,29.18802 z m 12.15817,0 c 0,-9.56725 4.72018,-17.02642 13.58855,-17.02642 8.8683,0 13.58856,7.45917 13.58856,17.02642 0,9.56707 -4.72026,17.02618 -13.58856,17.02618 -8.86837,0 -13.58855,-7.45911 -13.58855,-17.02618 z m 47.98895,-28.3772 v 56.75429 h 12.87332 v -19.53979 h 7.08036 c 12.58732,0 19.02399,-5.18882 19.02399,-19.37745 0,-12.08062 -4.50566,-17.83705 -15.87713,-17.83705 z m 21.16954,11.75625 c 2.50316,0 4.72018,1.45935 4.72018,6.97253 0,6.16203 -3.00372,6.72959 -5.43535,6.72959 h -7.58105 v -13.70212 z m 24.81694,-11.75625 v 56.75429 h 37.18972 v -11.75626 h -24.31633 v -11.2698 h 17.80814 v -11.75619 h -17.80814 v -10.21579 h 24.31633 v -11.75625 z m 45.84341,0 v 56.75429 h 12.87333 v -23.43134 h 1.50187 l 11.443,23.43134 h 13.51702 l -11.80056,-24.16111 c 7.581,-1.78366 11.44295,-6.72946 11.44295,-16.62089 0,-10.78335 -4.50566,-15.97229 -15.87713,-15.97229 z m 21.16947,11.75625 c 2.50316,0 4.72026,1.05389 4.72026,5.02679 0,4.37825 -3.0038,4.78359 -5.43542,4.78359 h -7.58098 v -9.81038 z"
       id="path4"
       style="font-size:225.137px;font-family:'Creative Fusion';-inkscape-font-specification:'Creative Fusion, Normal';display:inline;fill:#f28705;fill-opacity:1;stroke-width:9.20003;stroke-linecap:round;paint-order:markers stroke fill"
       aria-label="Developer"
       inkscape:label="path8" /><path
       id="path5"
       style="font-size:225.137px;font-family:'Creative Fusion';-inkscape-font-specification:'Creative Fusion, Normal';display:inline;fill:#f28705;fill-opacity:1;stroke-width:9.20003;stroke-linecap:round;paint-order:markers stroke fill"
       inkscape:label="path7"
       d="m 98.928968,871.15633 0.135661,3.83944 c 4.061591,0.28257 1.245031,0.13563 5.826151,0.14246 h 1.11475 v 7.0688 l -2.05847,-0.007 c -6.617678,0 0.44789,0 -5.165055,-0.007 l 0.0092,3.81629 c 3.749205,0.10986 1.374875,0.0366 5.533385,0.0435 l 1.68099,0.007 v 7.18679 h -0.40698 c -6.136886,0 -1.54677,-0.009 -6.816548,-0.0106 v 3.83473 c 4.068648,0 1.564058,0.009 6.108778,0.009 h 1.11475 v 7.05811 l -2.61201,-0.006 c -3.523786,0 -1.44344,0 -4.611518,-0.007 l -0.02747,3.81082 c 2.468668,0.0641 2.891578,0.0571 5.522818,0.0571 h 1.72817 v 7.16139 l -1.86973,-0.007 c -5.623469,0 -0.53255,0.0379 -5.346271,-0.0447 l 1.225821,3.8959 c 4.17022,0 0.39152,0.0106 5.06414,0.0106 h 0.92602 v 7.05786 h -2.43778 l -3.686924,0.006 -0.02244,3.84032 c 3.729974,0 0.291074,0.0112 4.418964,0.0112 l 119.11409,0.007 c 0.16071,0 0.30293,0.0435 0.4646,0.0435 0.22621,0 0.42484,-0.0385 0.6479,-0.0435 h 73.85508 c 0.1595,0 0.30037,0.0416 0.46097,0.0416 0.16887,0 0.32205,-0.0391 0.49001,-0.0416 l 348.6315,0.013 v -1.92184 -1.92195 l -186.43529,-0.0106 -3.47907,-7.06706 189.91436,0.007 v -1.92189 -1.92196 l -191.80904,-0.009 -3.52987,-7.17406 195.33891,0.007 v -1.9219 -1.92369 l -194.06671,-0.009 c 3.45603,-1.35813 5.88149,-3.64848 7.2993,-7.07065 l 186.76741,0.007 v -1.92563 -1.92195 l -185.71298,-0.007 c 0.25586,-1.48078 0.43011,-3.06025 0.43011,-4.85657 0,-0.82659 -0.0799,-1.55835 -0.1343,-2.31935 l 185.41717,0.007 v -1.9237 -1.92184 l -185.99247,-0.009 c -0.77059,-3.1093 -2.24958,-5.45828 -4.53348,-7.07246 l 190.52595,0.007 v -1.92195 -1.9237 l -543.56978,-0.0323 c -2.68048,0.0329 -2.92597,0.0292 -5.442763,-0.11513 z m 39.604022,3.98048 h 20.52225 v 50.94084 h -20.28269 c 6.84577,-4.18952 11.63314,-12.69028 11.63314,-25.77075 0,-13.23188 -4.89861,-21.32307 -11.8727,-25.17009 z m 58.00422,0 h 14.0596 c -4.06569,2.87828 -6.70766,7.38216 -6.70766,13.25013 0,21.89106 25.80526,14.10784 25.80526,24.72904 0,3.5675 -3.31468,4.86377 -6.48625,4.86377 -5.91057,0 -11.02846,-4.13344 -12.75835,-7.53885 l -7.28116,10.62058 c 1.74946,2.05455 3.88319,3.65028 6.17773,5.01797 h -12.80917 v -8.66577 h -24.50765 v -11.27023 h 17.94881 v -11.75657 h -17.94881 v -10.21566 h 24.50765 z m 39.50734,0 h 15.27373 v 50.94444 h -14.20479 c 3.6505,-2.77339 5.7712,-6.90385 5.7712,-12.15396 0,-23.99889 -25.80344,-16.54134 -25.80344,-25.62201 0,-2.83761 1.72894,-4.70224 5.98172,-4.70224 5.26179,0 10.52367,3.73008 12.46979,7.54077 l 6.9926,-10.45898 c -1.75261,-2.10982 -3.90489,-3.98962 -6.48081,-5.54616 z m 28.24804,0 h 21.06309 c -7.75408,4.55692 -12.48432,13.37763 -12.48432,25.65107 0,11.93282 4.45479,20.62802 11.82553,25.29343 h -20.4043 z m 48.04256,0 h 15.53324 v 50.94637 h -14.9888 c 1.9845,-1.34534 3.82912,-3.04894 5.47357,-5.26856 V 894.9514 h -12.97431 v 21.32251 c -1.87411,1.05407 -4.10809,1.54077 -6.55885,1.54077 -8.93792,0 -13.69481,-7.45967 -13.69481,-17.0268 0,-9.56719 4.75689,-17.02505 13.69481,-17.02505 5.26185,0 9.29888,2.51286 11.53333,6.64767 l 5.98173,-11.99969 c -1.23825,-1.30435 -2.58141,-2.36469 -3.99991,-3.274 z m 29.71988,0 h 11.47344 v 25.8126 z m 24.44775,0 h 10.66765 v 50.94817 h -10.66765 z m 48.14962,0 h 8.72214 v 50.94817 h -8.72214 v -8.67863 h -24.50765 v -11.27017 h 17.94881 v -11.7565 h -17.94881 v -10.21579 h 24.50765 z m -295.67253,9.02708 h 6.99077 c 6.34306,0 11.24477,3.24369 11.24477,17.02686 0,11.35084 -4.82963,16.2156 -11.24477,16.2156 h -6.99077 z m 317.36898,0 h 8.36099 c 2.52277,0 4.75671,1.05432 4.75671,5.0271 0,4.37812 -3.0265,4.78397 -5.4772,4.78397 h -7.6405 z m -95.50614,16.4588 11.31736,25.45862 h -11.31736 z m 95.50614,5.10697 h 1.51359 l 10.01975,20.35712 h -11.53334 z"
       sodipodi:nodetypes="cccccccccccsccccccccscccccsccsccccscssccccccccccccccccccccscccccccccccccccscccssscccccccccccccccccsssccccccscccccccccccssscccccccccccccccccccccccccccssccccsscccccccccccc" /><path
       id="path3"
       style="color:#000000;display:inline;fill:#f28705;fill-opacity:1;stroke-width:0.834856;stroke-miterlimit:0;-inkscape-stroke:none"
       inkscape:label="path6"
       d="m 100.87033,744.22385 c -46.202352,0 -83.695084,41.71758 -83.695084,92.91285 0,50.88911 37.060393,92.28643 82.881794,92.77928 l -0.0108,-3.84249 C 56.095128,925.58188 20.634297,885.95444 20.634297,837.1367 c 0,-49.12396 35.903115,-88.90697 80.236053,-88.90697 0.1288,0 0.25441,-0.16184 0.38309,-0.16184 v -3.8328 c -0.12868,0 -0.25429,-0.0112 -0.38309,-0.0112 z m 0,10.86862 c -40.738114,0 -73.800122,36.63533 -73.800122,81.77589 0,44.83445 32.618757,81.64255 72.976012,82.13484 v -3.87677 c -38.486649,-0.4911 -69.516984,-35.49512 -69.516984,-78.25807 0,-43.06912 31.472392,-77.94315 70.341094,-77.94315 0.12881,0 0.25442,0.0112 0.38309,0.0112 v -3.8328 c -0.12861,0 -0.25428,-0.0112 -0.38309,-0.0112 z m 0,11.4871 c -35.165878,0 -63.710815,31.63096 -63.710815,70.59713 0,38.65994 28.087021,70.30121 62.872035,70.79282 l 0.0147,-3.8474 C 67.131797,903.63219 40.618572,873.76533 40.618572,837.1767 c 0,-36.89473 26.95532,-66.76247 60.251788,-66.76247 0.1288,0 0.25448,0.009 0.38309,0.009 v -3.83273 c -0.12861,-6.2e-4 -0.25429,-0.0112 -0.38309,-0.0112 z m 0,10.50419 c -29.853857,0 -54.094303,26.85966 -54.094303,59.93967 0,32.7739 23.782517,59.55115 53.255523,60.04238 l 0.044,-3.81994 c -27.602148,-0.48925 -49.840495,-25.51998 -49.840495,-56.22244 0,-31.00863 22.650892,-56.10693 50.635275,-56.10693 0.1288,0 0.25453,0.0112 0.38309,0.0112 v -3.8328 c -0.12862,0 -0.25429,-0.0112 -0.38309,-0.0112 z m 0,10.93954 c -24.401423,0 -44.490866,21.96167 -44.490866,49.00013 0,26.82749 19.527515,48.68278 43.666756,49.02255 v -3.84957 c -22.156559,-0.47832 -39.936758,-20.50803 -39.936758,-45.17484 0,-24.96696 18.228863,-45.16547 40.760868,-45.16547 0.12967,0 0.41819,0.0224 0.54754,0.0224 l -0.16445,-3.83467 c -0.12936,0 -0.25348,-0.0205 -0.38309,-0.0205 z m -0.39056,10.07252 c -18.749826,0 -33.575586,17.93673 -33.575586,38.92761 0,20.6795 14.776183,37.52682 33.142036,38.0232 v -3.83466 c -16.472423,-0.49335 -29.683002,-15.55893 -29.683002,-34.1904 0,-18.94429 13.492523,-34.42957 30.350142,-34.42957 z"
       sodipodi:nodetypes="ssccssccsssccssccsssccssccsssccssccsssccssccscsccscc" /><path
       id="path2"
       style="font-size:225.137px;font-family:'Creative Fusion';-inkscape-font-specification:'Creative Fusion, Normal';display:inline;fill:#f28705;fill-opacity:1;stroke-width:9.20003;stroke-linecap:round;paint-order:markers stroke fill"
       d="m 107.70623,773.40939 c 0,-9.56713 4.72027,-17.02624 13.58856,-17.02624 5.22089,0 9.22592,2.51336 11.44301,6.64829 l 5.93604,-11.9995 c -4.50572,-4.7836 -10.15568,-6.81051 -17.37905,-6.81051 -15.44803,0 -25.746717,10.86439 -25.746717,29.18796 0,18.32356 10.298687,29.18796 25.746717,29.18796 7.22337,0 12.87333,-2.02698 17.37905,-6.81051 l -5.93604,-11.99957 c -2.21709,4.13511 -6.22212,6.64848 -11.44301,6.64848 -8.86829,0 -13.58856,-7.45917 -13.58856,-17.02636 z m 39.69289,-28.37721 v 56.75447 h 12.8734 v -23.43146 h 1.50187 l 11.443,23.43146 h 13.51702 l -11.80062,-24.16116 c 7.58098,-1.78378 11.443,-6.72953 11.443,-16.62096 0,-10.78335 -4.50565,-15.97235 -15.87712,-15.97235 z m 21.16955,11.75632 c 2.50316,0 4.72026,1.05394 4.72026,5.02678 0,4.37825 -3.00379,4.7836 -5.43543,4.7836 h -7.58098 v -9.81038 z m 27.53464,-11.75632 v 56.75447 h 37.18974 v -11.75631 h -24.31633 v -11.26986 h 17.80813 V 767.00422 H 208.97672 V 756.7885 h 24.31633 v -11.75632 z m 72.37685,0 h -15.2335 l -13.8031,56.75447 h 12.51578 l 2.57465,-11.67527 h 12.65886 l 2.57463,11.67527 h 12.51578 z m -11.3,33.32301 3.71903,-16.70212 3.64741,16.70212 z m 64.65285,-33.32301 h -38.04796 l 0.50062,11.75632 h 12.08669 v 44.99815 h 12.87333 V 756.7885 h 12.0867 z m 7.15182,0 v 56.75447 h 12.8734 v -56.75447 z m 49.06188,56.75447 13.8031,-56.75447 h -12.51578 l -8.86836,34.45807 -8.93977,-34.45807 h -12.51578 l 13.8031,56.75447 z m 21.16946,-56.75447 v 56.75447 h 37.18972 v -11.75631 h -24.31633 v -11.26986 h 17.80812 V 767.00422 H 412.08956 V 756.7885 h 24.31633 V 745.03218 Z M 233.09825,744.1828 c -134.170866,0 -129.89521,-0.0248 -132.54758,0.0366 l -0.0331,3.84827 c 5.99269,-0.0249 32.16265,-0.0255 132.27073,-0.0528 46.95553,-0.0124 84.05541,0.0248 113.94179,0.0876 h 63.29535 v 0.21656 c 35.97252,0.18227 42.09726,0.37137 46.526,0.34125 0.0156,-1.3131 0.018,-2.53957 0.0335,-3.85273 -10.26064,-0.0385 -86.83755,-0.62848 -223.48687,-0.62532 z m 176.92724,11.36799 v 3.95551 c 22.92772,0.13327 42.17285,0.22425 46.26282,0.24537 l -0.0254,-3.76977 c -4.46856,-0.0192 -17.72069,-0.2689 -46.2374,-0.43111 z m 0,10.77391 v 3.94117 c 28.00995,0.166 41.43883,0.20034 46.4355,0.22711 0.009,-1.30609 0.0286,-2.46872 0.0378,-3.7748 -4.60938,-0.0273 -10.8742,-0.21879 -46.47323,-0.39348 z m 0,10.91885 v 4.00011 c 28.45081,0.16805 32.46227,0.17016 46.24331,0.19413 0,-1.31093 -0.0218,-2.45623 -0.0206,-3.76722 -5.0158,-0.0348 -11.20571,-0.23468 -46.22279,-0.42702 z m 0,11.0789 v 3.90335 c 22.57453,0.13197 41.44499,0.21469 46.17118,0.2404 l 0.0257,-3.8043 c -4.32754,-0.0168 -21.41708,-0.20854 -46.19693,-0.33945 z M 233.8503,798.76281 c -66.45883,0 -108.99566,-0.50242 -133.53757,-0.66401 l -0.0521,4.50128 c 21.76768,0.006 61.47788,0.006 134.2543,-0.0199 111.21013,-0.0354 206.5597,0.6637 221.62459,0.74847 l 0.0161,-3.79734 c 0,0 -43.26887,-0.82119 -222.30502,-0.76846 z"
       inkscape:label="path5"
       sodipodi:nodetypes="ssccsssccssccccccccsscsssccscccccccccccccccccccccccccccccccccccccccccccccccccccccccccccccsccsccccccsccccccccccccccccccccccccsccccscs" /><path
       id="circle23"
       style="color:#000000;display:inline;fill:#f28705;fill-opacity:1;stroke-width:0.834856;stroke-miterlimit:0;-inkscape-stroke:none"
       d="m 461.07294,740.0211 c 0,2.69501 -2.09669,4.78769 -4.66997,4.78769 v 3.84404 c 4.49767,0 8.17753,-3.53359 8.53261,-7.9337 0.0186,-0.2304 0.0281,-0.46322 0.0281,-0.69797 z m 11.06296,0.13078 c 0,8.76725 -7.15227,15.83567 -16.02628,15.83567 v 3.76362 c 10.93312,0 19.83851,-8.79768 19.83851,-19.59935 z m 10.79752,0.16259 c 0,14.6005 -11.93922,26.39594 -26.71732,26.39594 v 3.78417 c 16.84858,0 30.54823,-13.53401 30.54823,-30.18011 z m 10.92276,-0.18128 c 0,20.70807 -16.91212,37.46031 -37.85312,37.53918 v 3.76926 c 23.00284,-0.0793 41.66534,-18.56365 41.66534,-41.30844 z m 10.86669,0.48217 c 0,26.55554 -21.74771,48.04331 -48.62638,48.04331 v 3.80665 c 28.96127,0 52.47971,-23.23683 52.47971,-51.84996 z m 11.00689,-0.11961 c 0,32.61765 -26.71587,59.02023 -59.72667,59.03526 v 3.79541 c 35.08731,-0.0149 63.56692,-28.16158 63.56692,-62.83067 z"
       inkscape:label="path4"
       sodipodi:nodetypes="cccsccccccccccccccccccccccccccc" /></g><g
     inkscape:groupmode="layer"
     id="layer1"
     inkscape:label="path1"><path
       id="path56"
       style="display:inline;fill:#f28705;fill-opacity:1;stroke-width:0.791002;stroke-dasharray:none"
       inkscape:label="path3"
       d="m 519.69825,113.42522 -3.81532,0.014 c -0.23064,209.5376 0.36168,417.63086 -0.15319,627.16819 l 3.84392,-0.1034 c 0.17938,-209.50349 0.11994,-417.57521 0.12459,-627.07876 z m -10.87898,-0.24876 h -3.79162 c -0.1998,209.54725 0.32655,417.91291 -0.30075,627.45967 l 3.84813,0.0484 c 0.35204,-209.56338 0.23254,-417.94442 0.24424,-627.50811 z m -11.0019,0.0866 h -3.82525 c -0.6092,209.39265 0.81545,417.52385 -0.11995,626.91547 l 3.79885,0.0279 c 0.40244,-209.4036 0.13227,-417.5392 0.14635,-626.94341 z m -10.96602,-0.0256 -3.77462,-0.0193 c 0.0146,577.57343 0.002,593.87764 -0.14205,627.13998 l 3.8278,-0.0298 c 0.35184,-209.02991 0.15328,-418.06067 0.0889,-627.09084 z m -10.73958,0.11591 h -3.75247 c -0.15427,208.93427 -0.15018,417.86859 -0.22132,626.8029 l 3.80814,0.0429 c 0.18241,-208.94845 0.13538,-417.89719 0.16565,-626.84576 z m -11.08809,-0.3021 -3.85203,-0.12045 c -0.42352,209.0328 0.76951,418.07097 -0.0676,627.10305 l 3.84227,0.007 c 0.14679,-208.99642 0.0885,-417.99297 0.0774,-626.98943 z"
       sodipodi:nodetypes="cccccccccccccccccccccccccccccccc" /><path
       id="path32"
       style="color:#000000;display:inline;fill:#f28705;fill-opacity:1;stroke-width:0.834856;stroke-miterlimit:0;-inkscape-stroke:none"
       d="m 456.38273,108.44315 c 2.69501,0 4.78769,2.09668 4.78769,4.66997 h 3.84399 c 0,-4.73319 -3.91335,-8.56068 -8.63168,-8.56068 z m 0.13079,-11.06296 c 8.76724,0 15.83565,7.15227 15.83565,16.02628 h 3.76424 c 0,-10.93311 -8.79766,-19.838503 -19.59933,-19.838503 z m 0.16258,-10.797519 c 14.6005,0 26.39592,11.93922 26.39592,26.717319 h 3.78418 c 0,-16.848576 -13.534,-30.548228 -30.1801,-30.548228 z m -0.18128,-10.922758 c 20.70805,0 37.46029,16.912113 37.53914,37.853117 h 3.76927 C 497.72392,90.510187 479.2396,71.84769 456.49482,71.84769 Z m 0.48217,-10.866687 c 26.55553,0 48.04327,21.747707 48.04327,48.626374 h 3.80665 c 0,-28.961268 -23.2368,-52.479705 -51.84992,-52.479705 z m -0.11962,-11.006887 c 32.61764,0 59.0202,26.715868 59.03523,59.726661 h 3.79541 C 519.67312,78.425697 491.52646,49.946088 456.85737,49.946088 Z"
       inkscape:label="path2"
       sodipodi:nodetypes="cccccccccccccccccccccccccccccc" /><path
       id="path24"
       style="display:inline;fill:#f28705;fill-opacity:1;stroke-width:0.791002;stroke-dasharray:none"
       inkscape:label="path1"
       d="m -33.161032,49.934207 v 1.917323 1.915454 H 98.83154 v -0.04111 h 12.11127 v 0.04111 7.047004 3.829041 7.043266 3.935559 7.03766 3.836515 7.03766 3.834647 7.086244 H 98.924979 v 0.0691 l -132.086011,-0.0131 v 1.91545 1.91732 H 291.17121 c 26.02972,0 153.80025,0.0314 165.31126,0.0642 l -0.004,-3.85539 c -5.07737,-0.0275 -107.98021,0.005 -164.18,-0.01 l -108.95294,-0.0112 v -7.159127 l 108.4764,0.02429 c 29.70482,0.008 152.79729,-0.03699 164.76981,-0.01593 l -0.006,-3.812325 c -10.15571,-0.02142 -125.88345,-0.03415 -165.81073,-0.03418 H 183.34513 v -7.033924 l 108.95293,0.02242 c 27.02226,0.0073 153.0382,0.0446 164.41237,0.0598 l 0.015,-3.83091 c -9.34854,-0.02212 -123.42803,-0.09152 -165.27201,-0.09156 H 183.34513 v -7.033923 l 109.42945,0.02242 c 46.2767,0.01235 156.08617,-0.0092 163.76392,0.01682 l 0.0748,-3.819696 c -8.02929,-0.03108 -118.76095,-0.125831 -164.41055,-0.128938 l -108.85762,-0.02616 v -7.047004 h 107.71395 c 25.09899,1.9e-4 154.46289,0.0973 165.97644,0.142015 l 0.015,-3.85522 c -11.86534,-0.0198 -134.99273,-0.08794 -164.37119,-0.08967 l -109.33415,-0.02243 v -7.091853 h 0.002 v 0.04111 h 108.47826 c 39.64926,10e-6 155.33515,-0.0083 165.15426,0.01869 l 0.004,-3.84399 c -5.01646,-0.0099 -108.44874,0.02743 -163.82372,0.02242 z M 118.7504,53.725872 h 10.42754 l -1.34548,20.653272 h -7.73844 l -0.83533,-12.813924 -0.0486,-0.751232 -0.45971,-7.060085 z m 18.43882,0 h 12.10754 l 4.11682,7.534744 1.84631,3.382413 h 0.002 l 3.84959,7.047004 1.15301,2.109803 1.15302,-2.109803 9.79217,-17.923049 h 0.004 l 0.0224,-0.04111 h 12.10755 v 17.964161 3.935558 28.828987 h -12.11129 v -7.082505 -3.838384 -7.033922 -3.840253 -4.873664 l -8.00753,13.98749 h -5.92202 l -3.01801,-5.275442 -2.19763,-3.838384 -2.79003,-4.873664 v 4.873664 3.838384 17.95668 H 137.18554 V 97.370205 93.533689 75.623722 71.688164 53.766984 h 0.004 z m -170.350252,7.08251 v 1.917323 1.917324 H 98.83154 v -3.83091 z m 0,10.874176 v 1.967779 1.967779 l 131.992572,0.0037 v -3.937427 z m 0,10.976956 v 1.917323 1.913586 l 131.992572,0.0037 v -3.834635 z m 0,10.874175 v 1.915455 1.915455 l 131.992572,0.0019 v -3.832778 z"
       sodipodi:nodetypes="cccccccccccccccccccccscccccccccccccccccccccccccccccccsccccccccccccccccccccccccccccccccccccccccccccccccccccccccccccccccccccccccc" /></g></svg>
