<?xml version="1.0" encoding="UTF-8" standalone="no"?>
<!-- Created with Inkscape (http://www.inkscape.org/) -->

<svg
   version="1.1"
   id="svg1"
   width="540"
   height="1000"
   viewBox="0 0 540 1000"
   sodipodi:docname="landing_small_line.svg"
   inkscape:version="1.3.2 (091e20e, 2023-11-25)"
   inkscape:export-filename="landing_line_text.png"
   inkscape:export-xdpi="96"
   inkscape:export-ydpi="96"
   xml:space="preserve"
   xmlns:inkscape="http://www.inkscape.org/namespaces/inkscape"
   xmlns:sodipodi="http://sodipodi.sourceforge.net/DTD/sodipodi-0.dtd"
   xmlns="http://www.w3.org/2000/svg"
   xmlns:svg="http://www.w3.org/2000/svg"><defs
     id="defs1"><inkscape:path-effect
       effect="bspline"
       id="path-effect35"
       is_visible="true"
       lpeversion="1.3"
       weight="33.333333"
       steps="2"
       helper_size="0"
       apply_no_weight="true"
       apply_with_weight="true"
       only_selected="false"
       uniform="false" /><rect
       x="153.17824"
       y="148.80173"
       width="1284.509"
       height="448.59341"
       id="rect31" /><inkscape:path-effect
       effect="bspline"
       id="path-effect4"
       is_visible="true"
       lpeversion="1.3"
       weight="33.333333"
       steps="2"
       helper_size="0"
       apply_no_weight="true"
       apply_with_weight="true"
       only_selected="false"
       uniform="false" /><inkscape:path-effect
       effect="bspline"
       id="path-effect27"
       is_visible="true"
       lpeversion="1.3"
       weight="33.333333"
       steps="2"
       helper_size="0"
       apply_no_weight="true"
       apply_with_weight="true"
       only_selected="false"
       uniform="false" /><inkscape:path-effect
       effect="fillet_chamfer"
       id="path-effect48"
       is_visible="true"
       lpeversion="1"
       nodesatellites_param="F,0,0,1,0,35.174275,0,1 @ F,0,0,1,0,0,0,1 @ F,0,0,1,0,0,0,1 @ F,0,0,1,0,26.967006,0,1"
       radius="0"
       unit="px"
       method="auto"
       mode="F"
       chamfer_steps="1"
       flexible="false"
       use_knot_distance="true"
       apply_no_radius="true"
       apply_with_radius="true"
       only_selected="false"
       hide_knots="false" /><rect
       x="633.89178"
       y="291.68799"
       width="791.9574"
       height="246.06084"
       id="rect47" /><rect
       x="50.659966"
       y="467.76038"
       width="207.70587"
       height="20.263987"
       id="rect3" /><rect
       x="173.93256"
       y="280.31848"
       width="1372.8851"
       height="202.63988"
       id="rect1" /><pattern
       patternUnits="userSpaceOnUse"
       width="459.11733"
       height="454.02251"
       patternTransform="translate(85.46106,465.15187)"
       preserveAspectRatio="xMidYMid"
       id="pattern4"
       inkscape:label="path19"><path
         id="use21"
         style="display:inline;fill:none;stroke:#ffffff;stroke-width:9.60003;stroke-linecap:round;stroke-linejoin:round;stroke-dasharray:none;paint-order:markers stroke fill"
         inkscape:label="path19"
         d="m 318.75846,226.81568 c 10e-6,48.88433 -39.97448,88.51291 -89.28551,88.51291 -49.31103,0 -89.28551,-39.62859 -89.28551,-88.51291 0,-48.88432 39.97448,-88.5129 89.28551,-88.5129 49.31103,0 89.28552,39.62857 89.28551,88.5129 z"
         sodipodi:nodetypes="sssss" /><path
         id="path19-7-7"
         style="display:inline;fill:none;stroke:#ffffff;stroke-width:9.50001;stroke-linecap:round;stroke-linejoin:round;stroke-dasharray:none;paint-order:markers stroke fill"
         inkscape:label="path19"
         d="m 373.41508,226.86727 c 0,78.21155 -63.8969,141.66078 -142.87064,142.05625 -0.24737,8.3e-4 -0.49488,0.002 -0.74254,0.002 -79.31537,0 -143.613177,-63.60158 -143.613177,-142.05811 0,-78.45654 64.297807,-142.05812 143.613177,-142.05812 79.31537,0 143.61318,63.60158 143.61318,142.05812 z"
         sodipodi:nodetypes="ssssss" /><path
         id="ellipse22"
         style="display:inline;fill:none;stroke:#ffffff;stroke-width:9.6;stroke-linecap:round;stroke-linejoin:round;stroke-dasharray:none;paint-order:markers stroke fill"
         inkscape:label="path19"
         d="M 399.67732,226.4839 A 169.87542,168.07626 0 0 1 229.8019,394.56017 169.87542,168.07626 0 0 1 59.92648,226.4839 169.87542,168.07626 0 0 1 229.8019,58.407621 169.87542,168.07626 0 0 1 399.67732,226.4839 Z" /><path
         id="ellipse23"
         style="display:inline;fill:none;stroke:#ffffff;stroke-width:9.70005;stroke-linecap:round;stroke-linejoin:round;stroke-dasharray:none;paint-order:markers stroke fill"
         inkscape:label="path19"
         d="M 427.35718,227.07816 A 197.55526,195.4021 0 0 1 229.80192,422.48031 197.55526,195.4021 0 0 1 32.246649,227.07816 197.55526,195.4021 0 0 1 229.80192,31.676059 197.55526,195.4021 0 0 1 427.35718,227.07816 Z" /><path
         id="ellipse24"
         style="display:inline;fill:none;stroke:#ffffff;stroke-width:9.50001;stroke-linecap:round;stroke-linejoin:round;stroke-dasharray:none;paint-order:markers stroke fill"
         inkscape:label="path19"
         d="M 454.31279,227.01125 A 224.75412,222.31516 0 0 1 229.55867,449.32642 224.75412,222.31516 0 0 1 4.8045421,227.01125 224.75412,222.31516 0 0 1 229.55867,4.6960901 224.75412,222.31516 0 0 1 454.31279,227.01125 Z" /><path
         id="ellipse25"
         style="display:inline;fill:none;stroke:#ffffff;stroke-width:9.49993;stroke-linecap:round;stroke-linejoin:round;stroke-dasharray:none;paint-order:markers stroke fill"
         inkscape:label="path19"
         d="M 346.39434,226.81661 A 115.26328,116.73149 87.587447 0 1 229.54123,342.08252 115.26328,116.73149 87.587447 0 1 112.93667,226.81661 115.26328,116.73149 87.587447 0 1 229.78979,111.55072 115.26328,116.73149 87.587447 0 1 346.39434,226.81661 Z" /></pattern><pattern
       patternUnits="userSpaceOnUse"
       width="674.27631"
       height="674.26551"
       patternTransform="translate(1172.3374,23.793999)"
       preserveAspectRatio="xMidYMid"
       id="pattern68"><path
         id="path39"
         style="fill:none;fill-opacity:1;stroke:#ffffff;stroke-width:9.20002;stroke-linecap:butt;stroke-dasharray:none;stroke-opacity:1;paint-order:normal"
         d="M 337.13719,4.5477951 A 332.48622,332.58523 0 0 0 4.6528223,337.13178 332.48622,332.58523 0 0 0 337.13719,669.71772 332.48622,332.58523 0 0 0 669.62348,337.13178 332.48622,332.58523 0 0 0 337.13719,4.5477951 Z M 336.87547,30.094669 A 307.15749,307.15837 0 0 1 644.03364,337.25287 307.15749,307.15837 0 0 1 336.87547,644.41108 307.15749,307.15837 0 0 1 29.717227,337.25287 307.15749,307.15837 0 0 1 336.87547,30.094669 Z m 0.26172,25.101568 A 281.94427,281.94493 0 0 0 55.193843,337.14155 281.94427,281.94493 0 0 0 337.13719,619.08491 281.94427,281.94493 0 0 0 619.08246,337.14155 281.94427,281.94493 0 0 0 337.13719,55.196237 Z m 0,25.275389 A 256.59596,256.5964 0 0 1 593.73483,337.06928 256.59596,256.5964 0 0 1 337.13719,593.66499 256.59596,256.5964 0 0 1 80.541478,337.06928 256.59596,256.5964 0 0 1 337.13719,80.471626 Z m 0,25.197264 A 231.45343,231.45361 0 0 0 105.68409,337.12201 231.45343,231.45361 0 0 0 337.13719,568.5771 231.45343,231.45361 0 0 0 568.5923,337.12201 231.45343,231.45361 0 0 0 337.13719,105.66889 Z m 0,25.5918 A 205.79393,205.79384 0 0 1 542.93209,337.05366 205.79393,205.79384 0 0 1 337.13719,542.84858 205.79393,205.79384 0 0 1 131.34422,337.05366 205.79393,205.79384 0 0 1 337.13719,131.26069 Z" /></pattern></defs><sodipodi:namedview
     id="namedview1"
     pagecolor="#000000"
     bordercolor="#000000"
     borderopacity="0.25"
     inkscape:showpageshadow="2"
     inkscape:pageopacity="0.0"
     inkscape:pagecheckerboard="false"
     inkscape:deskcolor="#d1d1d1"
     showgrid="false"
     showguides="true"
     inkscape:zoom="0.42422715"
     inkscape:cx="394.83564"
     inkscape:cy="271.08119"
     inkscape:window-width="1920"
     inkscape:window-height="1027"
     inkscape:window-x="0"
     inkscape:window-y="25"
     inkscape:window-maximized="0"
     inkscape:current-layer="svg1"><inkscape:grid
       id="grid11"
       units="px"
       originx="0"
       originy="0"
       spacingx="1"
       spacingy="1"
       empcolor="#0099e5"
       empopacity="0.30196078"
       color="#0099e5"
       opacity="0.14901961"
       empspacing="5"
       dotted="false"
       gridanglex="30"
       gridanglez="30"
       visible="false" /><sodipodi:guide
       position="270,520"
       orientation="-1,0"
       id="guide72"
       inkscape:locked="false"
       inkscape:label=""
       inkscape:color="rgb(192,28,40)" /><sodipodi:guide
       position="90,1035.6458"
       orientation="-1,0"
       id="guide22"
       inkscape:locked="false"
       inkscape:label=""
       inkscape:color="rgb(255,190,111)" /><sodipodi:guide
       position="127.30655,950"
       orientation="0,1"
       id="guide35"
       inkscape:locked="false"
       inkscape:label=""
       inkscape:color="rgb(0,134,229)" /><sodipodi:guide
       position="960,520"
       orientation="0,1"
       id="guide36"
       inkscape:locked="false"
       inkscape:label=""
       inkscape:color="rgb(192,28,40)" /><sodipodi:guide
       position="20,376.75573"
       orientation="-1,0"
       id="guide38"
       inkscape:locked="false"
       inkscape:label=""
       inkscape:color="rgb(246,97,81)" /><sodipodi:guide
       position="1800,500"
       orientation="-1,0"
       id="guide39"
       inkscape:locked="false"
       inkscape:label=""
       inkscape:color="rgb(249,240,107)" /><sodipodi:guide
       position="180,500"
       orientation="-1,0"
       id="guide1"
       inkscape:locked="false"
       inkscape:label=""
       inkscape:color="rgb(255,190,111)" /><sodipodi:guide
       position="451.1099,256.02745"
       orientation="-1,0"
       id="guide2"
       inkscape:locked="false"
       inkscape:label=""
       inkscape:color="rgb(255,190,111)" /><sodipodi:guide
       position="520,500"
       orientation="-1,0"
       id="guide3"
       inkscape:label=""
       inkscape:locked="false"
       inkscape:color="rgb(246,97,81)" /><sodipodi:guide
       position="360,500"
       orientation="-1,0"
       id="guide4"
       inkscape:label=""
       inkscape:locked="false"
       inkscape:color="rgb(255,190,111)" /><sodipodi:guide
       position="840,500"
       orientation="-1,0"
       id="guide5"
       inkscape:label=""
       inkscape:locked="false"
       inkscape:color="rgb(255,190,111)" /><sodipodi:guide
       position="1080,1071.9149"
       orientation="-1,0"
       id="guide6"
       inkscape:label=""
       inkscape:locked="false"
       inkscape:color="rgb(255,190,111)" /><sodipodi:guide
       position="1200,1121.0567"
       orientation="-1,0"
       id="guide7"
       inkscape:label=""
       inkscape:locked="false"
       inkscape:color="rgb(255,190,111)" /><sodipodi:guide
       position="1320,1103.078"
       orientation="-1,0"
       id="guide8"
       inkscape:label=""
       inkscape:locked="false"
       inkscape:color="rgb(255,190,111)" /><sodipodi:guide
       position="1440,1113.8652"
       orientation="-1,0"
       id="guide9"
       inkscape:label=""
       inkscape:locked="false"
       inkscape:color="rgb(255,190,111)" /><sodipodi:guide
       position="1320,1103.078"
       orientation="-1,0"
       id="guide10"
       inkscape:label=""
       inkscape:locked="false"
       inkscape:color="rgb(255,190,111)" /><sodipodi:guide
       position="1680,1135.4397"
       orientation="-1,0"
       id="guide11"
       inkscape:label=""
       inkscape:locked="false"
       inkscape:color="rgb(255,190,111)" /><sodipodi:guide
       position="1560,1185.7801"
       orientation="-1,0"
       id="guide12"
       inkscape:label=""
       inkscape:locked="false"
       inkscape:color="rgb(255,190,111)" /><sodipodi:guide
       position="960,840"
       orientation="0,1"
       id="guide13"
       inkscape:locked="false"
       inkscape:label=""
       inkscape:color="rgb(255,190,111)" /><sodipodi:guide
       position="1621.7341,680"
       orientation="0,1"
       id="guide14"
       inkscape:label=""
       inkscape:locked="false"
       inkscape:color="rgb(255,190,111)" /><sodipodi:guide
       position="1753.3531,360"
       orientation="0,1"
       id="guide15"
       inkscape:label=""
       inkscape:locked="false"
       inkscape:color="rgb(255,190,111)" /><sodipodi:guide
       position="1833.2646,200"
       orientation="0,1"
       id="guide16"
       inkscape:label=""
       inkscape:locked="false"
       inkscape:color="rgb(255,190,111)" /><sodipodi:guide
       position="1532.2573,210.30196"
       orientation="1,0"
       id="guide17"
       inkscape:locked="false" /><sodipodi:guide
       position="1558.3077,0.65858922"
       orientation="1,0"
       id="guide18"
       inkscape:locked="false" /><sodipodi:guide
       position="258.00793,50"
       orientation="0,1"
       id="guide48"
       inkscape:locked="false"
       inkscape:label=""
       inkscape:color="rgb(0,134,229)" /><sodipodi:guide
       position="530,186.9023"
       orientation="-1,0"
       id="guide52"
       inkscape:label=""
       inkscape:locked="false"
       inkscape:color="rgb(246,97,81)" /><sodipodi:guide
       position="10,888.56451"
       orientation="-1,0"
       id="guide53"
       inkscape:locked="false"
       inkscape:label=""
       inkscape:color="rgb(246,97,81)" /><sodipodi:guide
       position="426.996,351.97078"
       orientation="1,0"
       id="guide57"
       inkscape:locked="false" /><sodipodi:guide
       position="527.23612,96.656315"
       orientation="1,0"
       id="guide34"
       inkscape:locked="false" /><sodipodi:guide
       position="86.064355,277.05942"
       orientation="1,0"
       id="guide37"
       inkscape:locked="false" /></sodipodi:namedview><g
     inkscape:groupmode="layer"
     id="layer2"
     inkscape:label="path2"><path
       d="m -555.74796,1151.0568 v 91.3876 h 34.58841 c 19.2284,0 35.49856,-15.4054 35.49856,-46.477 0,-31.072 -16.27016,-44.9106 -35.49856,-44.9106 z m 31.51641,72.4573 h -11.03639 v -53.527 h 11.03639 c 10.01246,0 17.74932,5.222 17.74932,27.4162 0,18.2777 -7.62318,26.1108 -17.74932,26.1108 z m 52.22395,-72.4573 v 91.3876 h 59.16441 v -18.9303 h -38.68448 v -18.147 h 28.3307 v -18.9302 h -28.3307 v -16.4498 h 38.68448 v -18.9303 z m 114.57406,91.3876 21.95909,-91.3876 h -19.91111 l -14.1084,55.4853 -14.22221,-55.4853 h -19.91111 l 21.95909,91.3876 z m 33.67821,-91.3876 v 91.3876 h 59.16429 v -18.9303 h -38.68437 v -18.147 h 28.33058 v -18.9302 h -28.33058 v -16.4498 h 38.68437 v -18.9303 z m 72.93125,0 v 91.3876 h 59.50573 v -18.9303 h -39.02579 v -72.4573 z m 64.3982,45.6939 c 0,29.5052 16.38398,46.9993 40.95995,46.9993 24.57598,0 40.95985,-17.4941 40.95985,-46.9993 0,-29.5053 -16.38387,-46.9995 -40.95985,-46.9995 -24.57597,0 -40.95995,17.4942 -40.95995,46.9995 z m 19.34219,0 c 0,-15.4055 7.50925,-27.4165 21.61776,-27.4165 14.1084,0 21.61777,12.011 21.61777,27.4165 0,15.4052 -7.50937,27.4161 -21.61777,27.4161 -14.10851,0 -21.61776,-12.0109 -21.61776,-27.4161 z m 76.344681,-45.6939 v 91.3876 h 20.479917 v -31.4636 h 11.264001 c 20.02492,0 30.264886,-8.3552 30.264886,-31.2022 0,-19.4526 -7.167958,-28.7218 -25.258604,-28.7218 z m 33.678197,18.9303 c 3.982236,0 7.509252,2.3499 7.509252,11.2274 0,9.9223 -4.778556,10.8362 -8.646991,10.8362 h -12.060541 v -22.0636 z m 39.480789,-18.9303 v 91.3876 h 59.164401 v -18.9303 H 2.9000055 v -18.147 H 31.230618 v -18.9302 H 2.9000055 v -16.4498 H 41.584378 v -18.9303 z m 72.931381,0 v 91.3876 h 20.479929 v -37.7299 h 2.38929 l 18.204447,37.7299 h 21.503966 l -18.773276,-38.905 c 12.060456,-2.8721 18.204356,-10.836 18.204356,-26.7635 0,-17.3637 -7.16797,-25.7191 -25.258606,-25.7191 z m 33.678086,18.9303 c 3.98224,0 7.50938,1.697 7.50938,8.0943 0,7.05 -4.77869,7.7027 -8.6471,7.7027 H 75.831287 v -15.797 z"
       id="path4"
       style="display:inline;stroke-width:14.0887;font-size:225.137px;font-family:'Creative Fusion';-inkscape-font-specification:'Creative Fusion, Normal';fill:#f28705;stroke-linecap:round;paint-order:markers stroke fill;fill-opacity:1"
       aria-label="Developer"
       inkscape:label="path8"
       transform="matrix(0.65696848,0,0,0.64907287,451.7589,96.579672)" /><path
       id="path5"
       style="display:inline;stroke-width:14.0887;font-size:225.137px;font-family:'Creative Fusion';-inkscape-font-specification:'Creative Fusion, Normal';fill:#f28705;fill-opacity:1;stroke-linecap:round;paint-order:markers stroke fill"
       inkscape:label="path7"
       d="m -550.36893,1252.5541 0.21582,6.1824 c 6.46151,0.455 1.98069,0.2184 9.26871,0.2294 h 1.77344 v 11.3824 l -3.27479,-0.011 c -10.52793,0 0.71254,0 -8.21698,-0.011 l 0.0146,6.1451 c 5.96454,0.1769 2.18726,0.059 8.80295,0.07 l 2.67426,0.011 v 11.5724 h -0.64745 c -9.76306,0 -2.46073,-0.015 -10.84432,-0.017 v 6.1748 c 6.47273,0 2.48823,0.014 9.71833,0.015 h 1.77344 v 11.3652 l -4.1554,-0.01 c -5.60592,0 -2.29634,0 -7.33637,-0.011 l -0.0437,6.1363 c 3.92736,0.1032 4.60016,0.092 8.78614,0.092 h 2.74932 v 11.5315 l -2.97453,-0.011 c -8.94626,0 -0.84721,0.061 -8.50527,-0.072 l 1.95014,6.2733 c 6.63432,0 0.62286,0.017 8.05644,0.017 h 1.47319 v 11.3648 h -3.87822 l -5.86546,0.01 -0.0357,6.1838 c 5.93395,0 0.46307,0.018 7.03004,0.018 l 189.49627,0.011 c 0.25568,0 0.48193,0.07 0.73913,0.07 0.35987,0 0.67586,-0.062 1.03072,-0.07 h 117.4946 c 0.25375,0 0.47785,0.067 0.73335,0.067 0.26865,0 0.51234,-0.063 0.77955,-0.067 l 554.631,0.021 v -3.0946 -3.0948 l -296.596237,-0.017 -5.53478,-11.3796 302.131017,0.011 v -3.0947 -3.0948 l -305.145237,-0.014 -5.615593,-11.5519 310.76083,0.011 v -3.0947 -3.0976 l -308.736917,-0.015 c 5.49813,-2.1869 9.35675,-5.8749 11.61232,-11.3854 l 297.124597,0.012 v -3.1007 -3.0948 l -295.447127,-0.011 c 0.40704,-2.3844 0.68426,-4.9277 0.68426,-7.8202 0,-1.331 -0.12704,-2.5093 -0.21366,-3.7347 l 294.976527,0.011 v -3.0976 -3.0946 l -295.891767,-0.015 c -1.22591,-5.0067 -3.57881,-8.7891 -7.21222,-11.3883 l 303.103987,0.011 v -3.0948 -3.0976 l -864.75448,-0.052 c -4.26433,0.053 -4.65488,0.047 -8.65879,-0.1854 z m 63.00526,6.4095 h 32.64844 v 82.0266 h -32.26732 c 10.8908,-6.7461 18.50693,-20.4343 18.50693,-41.4969 0,-21.3064 -7.7931,-34.3351 -18.88805,-40.5297 z m 92.27778,0 h 22.36714 c -6.46803,4.6347 -10.67109,11.887 -10.67109,21.3358 0,35.2497 41.05309,22.7169 41.05309,39.8195 0,5.7445 -5.27327,7.8318 -10.31886,7.8318 -9.40301,0 -17.54496,-6.6558 -20.29701,-12.1393 l -11.58345,17.1016 c 2.78318,3.3083 6.1777,5.8778 9.82803,8.0801 h -20.37785 v -13.9539 h -38.98874 v -18.1477 h 28.5544 v -18.9308 h -28.5544 v -16.4496 h 38.98874 z m 62.85144,0 h 24.29868 v 82.0324 h -22.59812 c 5.80751,-4.4658 9.18129,-11.1168 9.18129,-19.5707 0,-38.6438 -41.05019,-26.6354 -41.05019,-41.2574 0,-4.5692 2.75054,-7.5717 9.51621,-7.5717 8.37087,0 16.74189,6.0063 19.83794,12.1424 l 11.12439,-16.8414 c -2.7882,-3.3973 -6.21222,-6.4242 -10.3102,-8.9306 z m 44.93926,0 h 33.50885 c -12.33581,7.3377 -19.86106,21.5411 -19.86106,41.3042 0,19.2146 7.08705,33.2159 18.81301,40.7283 h -32.4608 z m 76.42996,0 h 24.71153 v 82.0355 h -23.84538 c 3.1571,-2.1663 6.09166,-4.9095 8.70779,-8.4836 v -41.6458 h -20.64058 v 34.3342 c -2.98148,1.6973 -6.53548,2.481 -10.43434,2.481 -14.21917,0 -21.78681,-12.0118 -21.78681,-27.4171 0,-15.4054 7.56764,-27.4143 21.78681,-27.4143 8.37097,0 14.79341,4.0463 18.34815,10.7043 l 9.51621,-19.3223 c -1.96991,-2.1003 -4.10671,-3.8077 -6.36338,-5.2719 z m 47.28077,0 h 18.25287 v 41.5643 z m 38.89346,0 h 16.97095 v 82.0384 H -124.691 Z m 76.600282,0 h 13.875878 v 82.0384 h -13.875878 v -13.9746 h -38.988746 v -18.1476 h 28.554404 v -18.9307 h -28.554404 v -16.4498 h 38.988746 z m -470.379622,14.5357 h 11.12147 c 10.09106,0 17.88909,5.2231 17.88909,27.4172 0,18.2775 -7.68336,26.1109 -17.88909,26.1109 h -11.12147 z m 504.89607,0 h 13.30134045 c 4.01342995,0 7.56734995,1.6977 7.56734995,8.0948 0,7.0498 -4.8148,7.7033 -8.71357,7.7033 H -13.57427 Z m -151.93884,26.5025 18.00457,40.9943 h -18.00457 z m 151.93884,8.2234 h 2.40794 l 15.9402304,32.7797 H -13.57427 Z"
       sodipodi:nodetypes="cccccccccccsccccccccscccccsccsccccscssccccccccccccccccccccscccccccccccccccscccssscccccccccccccccccsssccccccscccccccccccssscccccccccccccccccccccccccccssccccsscccccccccccc"
       transform="matrix(0.65696848,0,0,0.64907287,451.7589,96.579672)" /><path
       id="path3"
       style="display:inline;stroke-width:1.27848;color:#000000;fill:#f28705;stroke-miterlimit:0;-inkscape-stroke:none;fill-opacity:1"
       inkscape:label="path6"
       d="m -547.28045,1048.1633 c -73.50242,0 -133.14887,67.175 -133.14887,149.6113 0,81.9433 58.95865,148.6026 131.85502,149.3962 l -0.0172,-6.1873 c -69.92096,-0.7916 -126.3349,-64.601 -126.3349,-143.2089 0,-79.101 57.11756,-143.1609 127.64596,-143.1609 0.20491,0 0.40474,-0.2606 0.60945,-0.2606 v -6.1717 c -0.20471,-0 -0.40454,-0.018 -0.60945,-0.018 z m 0,17.501 c -64.80947,0 -117.40717,58.9914 -117.40717,131.6782 0,72.1939 51.89254,131.4635 116.09611,132.2562 v -6.2425 c -61.22766,-0.7908 -110.59321,-57.1554 -110.59321,-126.0137 0,-69.3513 50.06881,-125.5066 111.90427,-125.5066 0.20491,0 0.40474,0.018 0.60945,0.018 v -6.1717 c -0.20461,-0 -0.40454,-0.018 -0.60945,-0.018 z m 0,18.4969 c -55.94471,0 -101.35629,50.9332 -101.35629,113.6778 0,62.2515 44.68309,113.2013 100.02189,113.9929 l 0.0233,-6.1952 c -52.36296,-0.7889 -94.54233,-48.8815 -94.54233,-107.7977 0,-59.4091 42.88269,-107.5031 95.85339,-107.5031 0.20491,0 0.40484,0.015 0.60945,0.015 v -6.1716 c -0.20461,-10e-4 -0.40454,-0.018 -0.60945,-0.018 z m 0,16.9142 c -47.49392,0 -86.05757,43.2503 -86.05757,96.5168 0,52.7736 37.83514,95.8912 84.72317,96.6822 l 0.07,-6.151 c -43.91172,-0.7878 -79.29027,-41.0931 -79.29027,-90.5312 0,-49.9311 36.03486,-90.3452 80.55466,-90.3452 0.20491,0 0.40494,0.018 0.60945,0.018 v -6.1717 c -0.20461,-0 -0.40454,-0.018 -0.60945,-0.018 z m 0,17.6152 c -38.81975,0 -70.77965,35.3634 -70.77965,78.9016 0,43.1985 31.06594,78.3906 69.46859,78.9377 v -6.1987 c -35.24844,-0.7702 -63.53461,-33.0227 -63.53461,-72.742 0,-40.2026 28.99994,-72.7269 64.84567,-72.7269 0.20629,0 0.66528,0.036 0.87107,0.036 l -0.26162,-6.1747 c -0.2058,0 -0.40326,-0.033 -0.60945,-0.033 z m -0.62134,16.2191 c -29.82873,0 -53.41474,28.8823 -53.41474,62.6825 0,33.2988 23.50714,60.4269 52.72502,61.2262 v -6.1747 c -26.20566,-0.7944 -47.22211,-25.0535 -47.22211,-55.0545 0,-30.5047 21.46499,-55.4396 48.28344,-55.4396 z"
       sodipodi:nodetypes="ssccssccsssccssccsssccssccsssccssccsssccssccscsccscc"
       transform="matrix(0.65696848,0,0,0.64907287,451.7589,96.579672)" /><path
       id="path2"
       style="display:inline;stroke-width:14.0887;font-size:225.137px;font-family:'Creative Fusion';-inkscape-font-specification:'Creative Fusion, Normal';fill:#f28705;fill-opacity:1;stroke-linecap:round;paint-order:markers stroke fill"
       d="m -536.40535,1095.1588 c 0,-15.4053 7.50938,-27.4162 21.61777,-27.4162 8.30581,0 14.67733,4.0471 18.20446,10.7053 l 9.44352,-19.322 c -7.16806,-7.7027 -16.15647,-10.9665 -27.64798,-10.9665 -24.57597,0 -40.95995,17.4942 -40.95995,46.9994 0,29.5052 16.38398,46.9994 40.95995,46.9994 11.49151,0 20.47992,-3.2639 27.64798,-10.9665 l -9.44352,-19.3221 c -3.52713,6.6585 -9.89865,10.7056 -18.20446,10.7056 -14.10839,0 -21.61777,-12.011 -21.61777,-27.4164 z m 63.14664,-45.6939 v 91.3879 h 20.48004 v -37.7301 h 2.38928 l 18.20445,37.7301 h 21.50397 l -18.77338,-38.9051 c 12.06043,-2.8723 18.20445,-10.8361 18.20445,-26.7636 0,-17.3637 -7.16795,-25.7192 -25.2586,-25.7192 z m 33.67821,18.9304 c 3.98223,0 7.50937,1.6971 7.50937,8.0943 0,7.05 -4.77867,7.7027 -8.64711,7.7027 h -12.06043 v -15.797 z m 43.80433,-18.9304 v 91.3879 h 59.16442 v -18.9304 h -38.68437 v -18.1471 h 28.3306 v -18.9303 h -28.3306 v -16.4497 h 38.68437 v -18.9304 z m 115.1429,0 h -24.23467 l -21.95908,91.3879 h 19.91111 l 4.09595,-18.7999 h 20.13873 l 4.09593,18.7999 h 19.91111 z m -17.97695,53.6578 5.91653,-26.8943 5.8026,26.8943 z m 102.85495,-53.6578 h -60.52975 l 0.79643,18.9304 h 19.22848 v 72.4575 h 20.47992 v -72.4575 h 19.2285 z m 11.3777,0 v 91.3879 h 20.48003 v -91.3879 z m 78.05157,91.3879 21.959078,-91.3879 h -19.911108 l -14.1085,55.4855 -14.22209,-55.4855 h -19.91112 l 21.95909,91.3879 z m 33.678089,-91.3879 v 91.3879 h 59.16439 v -18.9304 h -38.68437 v -18.1471 h 28.33059 v -18.9303 h -28.33059 v -16.4497 h 38.68437 v -18.9304 z m -264.273739,-1.3677 c -213.4498,0 -206.64774,-0.04 -210.86734,0.059 l -0.0526,6.1966 c 9.53365,-0.04 51.16693,-0.041 210.4269,-0.085 74.70064,-0.02 133.7221,0.04 181.26777,0.1411 h 100.69532 v 0.3487 c 57.2279694,0.2935 66.971708,0.598 74.017297,0.5495 0.0249,-2.1144 0.02857,-4.0893 0.05337,-6.2038 -16.3234592,-0.062 -138.148157,-1.012 -355.540887,-1.0069 z m 281.47006,18.3051 v 6.3693 c 36.475269,0.2146 67.091961,0.3611 73.59862,0.3951 l -0.04042,-6.0702 c -7.108949,-0.031 -28.19151,-0.433 -73.55818,-0.6942 z m 0,17.3485 v 6.3462 c 44.56049,0.2673 65.924229,0.3226 73.873328,0.3657 0.0139,-2.1031 0.04557,-3.9752 0.06007,-6.0783 -7.332969,-0.044 -17.2995486,-0.3523 -73.933349,-0.6336 z m 0,17.5819 v 6.4411 c 45.26184,0.2706 51.6435951,0.274 73.567582,0.3126 0,-2.1109 -0.03465,-3.9551 -0.03275,-6.0661 -7.979539,-0.056 -17.82695064,-0.3779 -73.53493,-0.6876 z m 0,17.8396 v 6.2853 c 35.913379,0.2125 65.934025,0.3457 73.452834,0.3871 l 0.04094,-6.1258 c -6.884589,-0.027 -34.071998,-0.3358 -73.493777,-0.5466 z m -280.27364,16.8114 c -105.72805,0 -173.39906,-0.809 -212.4423,-1.0692 l -0.0828,7.2481 c 34.62977,0.01 97.80394,0.01 213.58253,-0.032 176.92201,-0.057 328.6117655,1.0687 352.578206,1.2052 l 0.02564,-6.1146 c 0,0 -68.835591,-1.3223 -353.660696,-1.2374 z"
       inkscape:label="path5"
       sodipodi:nodetypes="ssccsssccssccccccccsscsssccscccccccccccccccccccccccccccccccccccccccccccccccccccccccccccccsccsccccccsccccccccccccccccccccccccsccccscs"
       transform="matrix(0.65696848,0,0,0.64907287,451.7589,96.579672)" /><path
       id="circle23"
       style="display:inline;stroke-width:1.27848;color:#000000;fill:#f28705;stroke-miterlimit:0;-inkscape-stroke:none;fill-opacity:1"
       d="m 118.40334,1067.4716 c 0,4.3396 -3.33558,7.7093 -7.42937,7.7093 v 6.1898 c 7.15526,0 13.00948,-5.6899 13.57436,-12.7751 0.0296,-0.371 0.0447,-0.7459 0.0447,-1.1239 z m 17.59985,0.2106 c 0,14.1173 -11.37841,25.4991 -25.4959,25.4991 v 6.0603 c 17.39328,0 31.56069,-14.1663 31.56069,-31.5595 z m 17.17756,0.2618 c 0,23.5102 -18.99387,42.5036 -42.50406,42.5036 v 6.0934 c 26.80407,0 48.59858,-21.7929 48.59858,-48.597 z m 17.3768,-0.2919 c 0,33.3448 -26.90515,60.3198 -60.21978,60.4468 v 6.0694 c 36.59477,-0.1277 66.28457,-29.8918 66.28457,-66.5162 z m 17.28761,0.7764 c 0,42.7606 -34.59801,77.3609 -77.35876,77.3609 v 6.1296 c 46.07392,0 83.48895,-37.4167 83.48895,-83.4905 z m 17.51064,-0.1926 c 0,52.522 -42.50176,95.0363 -95.01799,95.0605 v 6.1115 c 55.81971,-0.024 101.12737,-45.3467 101.12737,-101.172 z"
       inkscape:label="path4"
       sodipodi:nodetypes="cccsccccccccccccccccccccccccccc"
       transform="matrix(0.65696848,0,0,0.64907287,390.89436,79.654634)" /></g><g
     inkscape:groupmode="layer"
     id="layer1"
     inkscape:label="path1"><path
       id="path56"
       style="display:inline;stroke-width:1.21132;fill:#f28705;fill-opacity:1;stroke-dasharray:none"
       inkscape:label="path3"
       d="m 224.82228,58.856885 -6.06972,0.02249 c -0.36693,337.40427 0.57539,672.48281 -0.24371,1009.88662 l 6.11522,-0.1665 c 0.28537,-337.34932 0.1908,-672.39317 0.19821,-1009.742615 z M 207.51512,58.45632 h -6.03202 c -0.31786,337.4198 0.51951,672.93697 -0.47845,1010.35598 l 6.12191,0.078 c 0.56006,-337.44577 0.36994,-672.9877 0.38856,-1010.43398 z m -17.50271,0.139405 H 183.9269 C 182.95773,395.76657 185.22418,730.9062 183.73607,1068.0754 l 6.04351,0.045 c 0.64024,-337.1885 0.21043,-672.33521 0.23283,-1009.524675 z m -17.44562,-0.04129 -6.00497,-0.03112 c 0.0232,930.027525 0.003,956.281085 -0.22598,1009.841185 l 6.08956,-0.048 c 0.55974,-336.58676 0.24386,-673.17489 0.14139,-1009.762068 z M 155.4814,58.74107 h -5.96973 c -0.24543,336.43277 -0.23892,672.86561 -0.35209,1009.29843 l 6.05829,0.069 c 0.2902,-336.45559 0.21537,-672.91166 0.26353,-1009.367434 z m -17.63983,-0.486446 -6.12811,-0.193955 c -0.67377,336.591411 1.2242,673.191481 -0.10757,1009.781731 l 6.1126,0.011 c 0.23352,-336.53284 0.1408,-673.06587 0.12308,-1009.598776 z"
       sodipodi:nodetypes="cccccccccccccccccccccccccccccccc"
       transform="matrix(0.65696848,0,0,0.64907287,382.2532,79.427235)" /><path
       id="path32"
       style="display:inline;stroke-width:1.27848;color:#000000;fill:#f28705;stroke-miterlimit:0;-inkscape-stroke:none;fill-opacity:1"
       d="m 124.09485,50.834589 c 4.28745,0 7.61665,3.376155 7.61665,7.519744 h 6.11532 c 0,-7.621537 -6.22567,-13.784688 -13.73196,-13.784688 z m 0.20807,-17.813936 c 13.94763,0 25.19264,11.516822 25.19264,25.806043 h 5.98845 c 0,-17.604859 -13.99603,-31.944608 -31.18019,-31.944608 z m 0.25865,-17.386515 c 23.22765,0 41.99276,19.22492 41.99276,43.021098 h 6.02017 c 0,-27.130127 -21.53097,-49.1897534 -48.01293,-49.1897534 z m -0.28839,-17.5881812 c 32.94403,0 59.59484,27.2324352 59.72028,60.9523192 h 5.99645 C 189.86375,21.958351 160.4574,-8.0926082 124.27318,-8.0926082 Z m 0.76707,-17.4978918 c 42.24667,0 76.4311,35.018865 76.4311,78.299776 h 6.05593 c 0,-46.634383 -36.96698,-84.504536 -82.48703,-84.504536 z m -0.19029,-17.723649 c 51.89076,0 93.89407,43.0187608 93.91798,96.173821 h 6.03805 C 224.78229,2.4995118 180.00432,-43.359281 124.84996,-43.359281 Z"
       inkscape:label="path2"
       sodipodi:nodetypes="cccccccccccccccccccccccccccccc"
       transform="matrix(0.65696848,0,0,0.64907287,382.2532,79.427235)" /><path
       id="path24"
       style="display:inline;stroke-width:1.21132;fill:#f28705;fill-opacity:1;stroke-dasharray:none"
       inkscape:label="path1"
       d="m -654.7107,-43.378412 v 3.087336 3.084327 h 209.98439 v -0.0662 h 19.26759 v 0.0662 11.347315 6.165646 11.3412965 6.337164 11.3322696 6.1776819 11.332269 6.174673 11.410506 h -19.11894 v 0.111337 l -210.13304,-0.02106 v 3.084328 3.087336 h 515.97379 c 41.410179,0 244.6778,0.05055 262.99044,0.103414 l -0.007,-6.208077 C 116.16905,44.52511 -47.537064,44.57745 -136.9442,44.5535 L -310.2753,44.53545 V 33.007584 l 172.57297,0.03912 c 47.256827,0.01296 243.08221,-0.05957 262.12906,-0.02565 l -0.009,-6.138729 c -16.15643,-0.03489 -200.26542,-0.05538 -263.78495,-0.05543 H -310.2753 V 15.500642 l 173.33107,0.03611 c 42.989185,0.01178 243.46547,0.07181 261.56042,0.09629 l 0.0238,-6.168655 C 109.76758,9.4287522 -71.719249,9.3169944 -138.288,9.3169421 H -310.2753 V -2.0093093 l 174.08917,0.036109 c 73.620687,0.01989 248.31441,-0.014737 260.5288,0.027082 l 0.11895,-6.1505998 C 111.68802,-8.1467671 -64.472798,-8.299343 -137.09585,-8.304346 L -310.2753,-8.3464733 V -19.693788 h 171.36001 c 39.929485,3.06e-4 245.73197,0.156675 264.04866,0.228678 l 0.0238,-6.207802 c -18.87634,-0.03188 -214.757293,-0.141606 -261.4949,-0.144396 l -173.93755,-0.03611 v -11.419533 h 0.003 v 0.0662 h 172.57594 c 63.077225,1.7e-5 247.11963,-0.01339 262.74067,0.03009 l 0.006,-6.189718 c -7.9806,-0.01601 -172.528983,0.04417 -260.62394,0.03611 z m 241.67291,6.105463 h 16.58898 l -2.14051,33.2565702 h -12.31093 l -1.3289,-20.6333972 -0.0773,-1.209658 -0.73134,-11.368379 z m 29.33396,0 h 19.26165 l 6.54937,12.13269 2.93726,5.446471 h 0.003 l 6.12424,11.3473147 1.8343,3.3972736 1.83431,-3.3972736 15.57818,-28.8602757 h 0.006 l 0.0357,-0.0662 h 19.26165 v 28.9264757 6.337164 46.4213813 h -19.2676 V 33.007584 26.826893 15.500642 9.3169421 1.46921 l -12.73903,22.523112 h -9.42123 l -4.80129,-8.494689 -3.49617,-6.1806909 -4.43859,-7.8477321 v 7.8477321 6.1806909 28.914439 h -19.2676 V 33.004575 26.826893 -2.0123184 -8.3494824 -37.206749 h 0.006 z m -271.00687,11.404488 v 3.087336 3.087337 h 209.98439 v -6.168655 z m 0,17.5099513 v 3.168582 3.168582 l 209.98439,0.00602 v -6.3401731 z m 0,17.6754518 v 3.0873359 3.081319 l 209.98439,0.006 V 9.3169421 Z m 0,17.5099509 v 3.084328 3.084327 l 209.98439,0.003 v -6.171664 z"
       sodipodi:nodetypes="cccccccccccccccccccccscccccccccccccccccccccccccccccccsccccccccccccccccccccccccccccccccccccccccccccccccccccccccccccccccccccccccc"
       transform="matrix(0.65696848,0,0,0.64907287,382.2532,79.427235)" /></g></svg>
