<?xml version="1.0" encoding="UTF-8" standalone="no"?>
<!-- Created with Inkscape (http://www.inkscape.org/) -->

<svg
   version="1.1"
   id="svg1"
   width="1920"
   height="1080"
   viewBox="0 0 1920 1080"
   preserveAspectRatio="xMidYMid meet"
   xml:space="preserve"
   xmlns="http://www.w3.org/2000/svg"
   xmlns:svg="http://www.w3.org/2000/svg"><defs
     id="defs1" /><g
     id="g1"
     transform="matrix(0.65696848,0,0,0.64907287,382.2532,79.427235)"
     style="display:inline;fill:#f28705;fill-opacity:1;stroke-width:1.27848"><path
       id="text47"
       style="font-size:225.137px;font-family:'Creative Fusion';-inkscape-font-specification:'Creative Fusion, Normal';display:inline;fill:#f28705;fill-opacity:1;stroke-width:14.0886;stroke-linecap:round;paint-order:markers stroke fill"
       d="m 368.75367,1068.4479 c 0,-26.8712 14.69037,-47.8216 42.29048,-47.8216 16.24845,0 28.71301,7.0594 35.61304,18.6732 l 18.47426,-33.7029 c -14.02263,-13.43559 -31.60656,-19.12864 -54.0873,-19.12864 -48.0776,0 -80.12934,30.51474 -80.12934,81.97994 0,51.4651 32.05174,81.9798 80.12934,81.9798 22.48074,0 40.06467,-5.6931 54.0873,-19.1287 l -18.47426,-33.7027 c -6.90003,11.6138 -19.36459,18.6731 -35.61304,18.6731 -27.60011,0 -42.29048,-20.9504 -42.29048,-47.8215 z M 492.2865,988.74518 v 159.40532 h 40.06467 v -65.8116 h 4.67422 l 35.61303,65.8116 h 42.06791 l -36.72595,-67.8611 c 23.59363,-5.0099 35.61304,-18.9009 35.61304,-46.683 0,-30.287 -14.02264,-44.86122 -49.41309,-44.86122 z m 65.88413,33.01972 c 7.79034,0 14.69037,2.9604 14.69037,14.1187 0,12.297 -9.34842,13.4356 -16.91619,13.4356 h -23.59364 v -27.5543 z m 85.69382,-33.01972 v 159.40532 h 115.74237 v -33.0197 h -75.6777 v -31.6533 h 55.42279 v -33.0197 h -55.42279 v -28.6929 h 75.6777 v -33.01972 z m 225.25219,0 h -47.40991 l -42.95818,159.40532 h 38.95178 l 8.0129,-32.7919 h 39.39701 l 8.0129,32.7919 h 38.9518 z m -35.16791,93.59372 11.5743,-46.9107 11.35162,46.9107 z M 1035.1622,988.74518 H 916.74894 l 1.558,33.01972 h 37.6163 v 126.3856 h 40.0646 v -126.3856 h 37.61636 z m 22.2582,0 v 159.40532 h 40.0646 V 988.74518 Z m 152.691,159.40532 42.9582,-159.40532 h -38.9517 l -27.6002,96.78182 -27.8226,-96.78182 h -38.9518 l 42.9582,159.40532 z m 65.884,-159.40532 v 159.40532 h 115.7425 v -33.0197 h -75.6778 v -31.6533 h 55.4228 v -33.0197 h -55.4228 v -28.6929 h 75.6778 v -33.01972 z m -516.99487,-2.38565 c -417.56853,0.005 -710.6034,0.19372 -718.85818,0.36677 v 10.74078 c 8.15054,-0.088 204.12427,-0.21839 717.89369,-0.34312 146.1357,-0.0355 261.59856,0.0704 354.61156,0.2461 h 196.9887 v 0.60814 c 111.9541,0.51209 287.4636,0.91942 301.2467,0.83492 0.049,-3.68832 0.021,-7.07099 0.07,-10.75931 -31.9334,-0.10815 -426.6706,-1.70323 -851.95277,-1.69428 z m -404.06635,31.05337 c -81.70926,0.052 -310.3304,0.1039 -314.70856,0.1443 l 0.0278,11.0224 c 3.29961,0 251.06954,-0.1514 311.97932,-0.2555 0.2691,-3.7566 1.18202,-7.4438 2.70148,-10.9112 z m 954.70212,0.8755 v 11.11 c 71.356,0.3744 288.558,0.8158 301.2869,0.8755 0.042,-3.6639 0.085,-7.3277 0.1272,-10.9916 -13.9071,-0.054 -212.664,-0.5381 -301.4141,-0.9939 z m -958.0304,29.759 c -46.89693,0.081 -308.80976,0.2755 -311.32477,0.2821 l -0.04008,10.8444 c 2.97751,-0.01 249.00409,-0.1589 311.36484,-0.2698 z m 958.0304,0.5017 v 11.0697 c 87.1731,0.4663 285.6205,0.966 301.1712,1.0412 0.028,-3.6686 0.055,-7.3372 0.083,-11.0058 -14.3455,-0.078 -190.4626,-0.6146 -301.2545,-1.1051 z m -958.0304,29.9412 c -79.59064,0.047 -308.592,0.1308 -311.35252,0.1254 l -0.0856,10.7833 c 3.73194,0.016 231.5978,-0.023 311.43811,-0.024 z m 958.0304,0.7264 v 11.2354 c 88.545,0.4717 286.0644,0.9742 301.1712,1.0411 0.01,-3.682 0.017,-7.364 0.026,-11.046 -15.6104,-0.099 -192.216,-0.6902 -301.1967,-1.2305 z m -958.0304,30.0027 c -71.71349,0.037 -308.80594,0.074 -311.38028,0.078 l 0.0278,10.7905 c 2.20678,-0.019 265.98741,-0.077 313.22598,-0.099 -0.93568,-2.1604 -1.56584,-4.4328 -1.87346,-6.7559 z m 958.0304,1.1146 v 10.9632 c 70.2568,0.3705 286.4623,0.8079 301.1712,0.8802 v -11.0223 c -13.4682,-0.047 -224.0509,-0.4535 -301.1712,-0.8211 z m -548.29509,29.3235 c -368.77662,0.098 -715.96853,0.4059 -721.2613,0.2887 l 0.0394,10.8685 c 5.15538,-0.018 199.80413,-0.2835 723.28972,-0.4354 346.10987,-0.1004 800.56177,2.2016 847.44707,2.4397 l -0.03,-11.0271 c 0,0 -292.2856,-2.2822 -849.48482,-2.1344 z" /><path
       id="circle31"
       style="color:#000000;display:inline;fill:#f28705;fill-opacity:1;stroke-width:1.27848;stroke-miterlimit:0;-inkscape-stroke:none"
       d="m 41.072181,986.7279 c -143.791781,0 -260.473751,116.6818 -260.473751,260.4737 0,143.7918 116.68197,260.4737 260.473751,260.4737 0.400793,0 0.79475,-0.028 1.19512,-0.03 v -10.7665 c -0.400409,0 -0.794267,0.03 -1.19512,0.03 -137.973683,0 -249.708751,-111.7335 -249.708751,-249.7072 0,-137.9738 111.735068,-249.71015 249.708751,-249.71015 0.400853,0 0.794711,0.0282 1.19512,0.0301 V 986.758 c -0.40037,-0.002 -0.794327,-0.0301 -1.19512,-0.0301 z m 0,31.0569 c -126.785888,0 -229.680091,102.8956 -229.680091,229.6816 0,126.786 102.894203,229.6816 229.680091,229.6816 0.400791,0 0.794808,-0.028 1.19512,-0.03 v -10.7635 c -0.400349,0 -0.794263,0.03 -1.19512,0.03 -120.967785,0 -218.915091,-97.9502 -218.915091,-218.9181 0,-120.9679 97.947306,-218.918 218.915091,-218.918 0.400857,0 0.794771,0.028 1.19512,0.03 v -10.7636 c -0.400312,0 -0.794329,-0.03 -1.19512,-0.03 z m 0,30.5364 c -109.443937,0 -198.279941,88.8377 -198.279941,198.2816 0,109.4439 88.836004,198.2816 198.279941,198.2816 0.40084,0 0.794836,-0.028 1.19512,-0.03 v -10.7665 c -0.400206,0 -0.794321,0.03 -1.19512,0.03 -103.625841,0 -187.514941,-83.8893 -187.514941,-187.5151 0,-103.6258 83.8891,-187.515 187.514941,-187.515 0.400799,0 0.794914,0.028 1.19512,0.03 v -10.7666 c -0.400284,0 -0.79428,-0.03 -1.19512,-0.03 z m 0,30.2957 c -92.911698,0 -168.348431,75.5046 -168.348431,168.4162 0,92.9117 75.436733,168.3501 168.348431,168.3501 0.400823,0 0.794952,-0.027 1.19512,-0.03 v -10.7665 c -0.400065,0 -0.794347,0.03 -1.19512,0.03 -87.093602,0 -157.583431,-70.49 -157.583431,-157.5836 0,-87.0935 70.489829,-157.6496 157.583431,-157.6496 0.400773,0 0.795055,-0.2033 1.19512,-0.2003 v -10.3058 c -0.400168,0 -0.794297,-0.2605 -1.19512,-0.2605 z m -0.796599,30.6799 c -75.94259,-0.01 -137.665682,61.7936 -137.665682,137.7363 0,75.9427 62.51969,137.6242 138.462281,137.6242 0.403392,0 0.79254,-0.057 1.19512,-0.06 l 0.50877,-10.7665 c -0.402651,0 -1.300344,0.06 -1.70389,0.06 -70.124484,0 -126.855164,-56.733 -126.855164,-126.8576 0,-70.1246 56.683113,-126.9449 126.807597,-126.9449 0.403546,0 0.840036,-0.015 1.242687,-0.011 l 0.273119,-9.1079 c -0.402576,0 -1.297137,-1.0172 -1.490999,-0.6591 -0.146776,0.271 -0.493132,-1.0137 -0.773839,-1.0138 z m 0.796599,30.808 c -58.353505,0 -105.708672,47.9716 -105.708672,106.9283 0,58.9568 47.355167,106.9314 105.708672,106.9314 0.40343,0 0.792752,-0.056 1.19512,-0.06 v -10.7666 c -0.402271,0.01 -0.791654,0.06 -1.19512,0.06 -52.464685,0 -94.943672,-42.9562 -94.943672,-96.1648 0,-53.2084 42.478987,-96.1618 94.943672,-96.1618 0.403472,0 0.792843,0.055 1.19512,0.06 0,0 2.444321,-8.1668 0,-10.7666 -0.274964,-0.2925 -1.593977,-0.06 -1.19512,-0.06 0.287197,0 0,10e-5 0,10e-5 z" /><path
       id="text49"
       style="font-size:225.137px;font-family:'Creative Fusion';-inkscape-font-specification:'Creative Fusion, Normal';fill:#f28705;fill-opacity:1;stroke-width:14.0886;stroke-linecap:round;paint-order:markers stroke fill"
       d="m 697.47998,1346.4729 v 159.4053 h 68.19617 c 37.91167,0 69.99083,-26.8712 69.99083,-81.069 0,-54.1978 -32.07916,-78.3363 -69.99083,-78.3363 z m 62.13926,126.3856 h -21.75996 v -93.3659 h 21.75996 c 19.74098,0 34.99539,9.1088 34.99539,47.8215 0,31.8811 -15.03007,45.5444 -34.99539,45.5444 z m 102.96723,-126.3856 v 159.4053 h 116.65156 v -33.0197 h -76.27216 v -31.6533 h 55.85806 v -33.0197 h -55.85806 v -28.6929 h 76.27216 v -33.0197 z m 238.01363,52.6037 21.76,-29.3761 c -12.7867,-13.891 -30.5088,-25.5048 -63.0364,-25.5048 -31.6307,0 -57.2042,17.7623 -57.2042,47.1384 0,61.4849 80.3099,39.6236 80.3099,69.4552 0,10.0197 -10.3191,13.6633 -20.1896,13.6633 -18.395,0 -34.3224,-11.6138 -39.7063,-21.1782 l -22.65717,29.8316 c 15.25427,16.1682 37.68737,25.0494 64.38247,25.0494 35.8927,0 59.223,-17.0791 59.223,-45.089 0,-67.4056 -80.3099,-46.4552 -80.3099,-71.9601 0,-7.9702 5.3839,-13.2078 18.6193,-13.2078 16.3759,0 32.7521,10.4752 38.8089,21.1781 z m 49.1279,-52.6037 v 159.4053 h 40.3793 v -159.4053 z m 105.2107,79.7026 c 0,-26.8711 14.8056,-47.8215 42.6225,-47.8215 16.376,0 28.9386,7.0593 35.8927,18.6731 l 18.6194,-33.7028 c -14.1328,-13.4356 -31.8548,-19.1286 -54.5121,-19.1286 -48.4552,0 -80.7587,30.5147 -80.7587,81.9798 0,51.4652 32.3035,81.9799 80.7587,81.9799 24.0033,0 45.0901,-6.6039 60.7932,-25.7326 v -72.6432 h -40.3792 v 59.8908 c -5.8326,2.9604 -12.7868,4.3267 -20.414,4.3267 -27.8169,0 -42.6225,-20.9504 -42.6225,-47.8216 z m 212.8885,-79.7026 v 80.1581 l -39.4819,-80.1581 h -40.3795 v 159.4053 h 40.3795 v -80.1581 l 39.4819,80.1581 h 40.3793 v -159.4053 z m 73.58,0 v 159.4053 h 116.6514 v -33.0197 h -76.272 v -31.6533 h 55.8579 v -33.0197 h -55.8579 v -28.6929 h 76.272 v -33.0197 z m 143.7951,0 v 159.4053 h 40.3793 v -65.8116 h 4.7108 l 35.8927,65.8116 h 42.3983 l -37.0144,-67.8611 c 23.779,-5.01 35.8927,-18.9009 35.8927,-46.683 0,-30.287 -14.1328,-44.8612 -49.801,-44.8612 z m 66.4014,33.0197 c 7.8515,0 14.8058,2.9603 14.8058,14.1187 0,12.2969 -9.4219,13.4356 -17.049,13.4356 h -23.7789 v -27.5543 z M 41.697477,1343.51 l 0.133518,1.5762 v 8.8756 c 9.08035,0.05 284.588215,0.1147 476.339385,0.1444 l 1865.93382,0.054 v -5.4 -5.4023 l -1867.55158,-0.092 c -318.64254,-0.081 -474.228964,-0.1917 -474.228964,-0.1917 z m 0.683638,30.2769 -1.117595,10.8449 c 11.47624,0.054 284.19617,0.1352 475.14224,0.1444 l 209.72255,0.01 v -10.826 l -210.89742,-0.012 c -323.13334,-0.073 -466.640235,-0.1236 -472.849775,-0.1586 z m 1727.630185,0.2225 v 10.8094 l 614.0929,0.012 v -5.4023 -5.4023 z M 42.236595,1404.6486 c 0,0 -0.86152,0.645 -0.953507,0.746 -2.408424,2.6415 0.587043,9.9912 0.587043,9.9912 12.85388,0.1268 286.102579,0.3308 476.300249,0.3537 h 207.95793 v -10.7646 H 520.37325 c -231.85187,0 -478.060761,-0.3759 -478.175791,-0.3663 z m 1727.774705,0.3267 v 10.7974 l 614.0929,0.01 v -5.4047 -5.4022 z M 38.234148,1436.8054 c 0,0 -14.669591,7.8114 3.680434,8.1205 18.350025,0.3092 295.084388,1.4718 474.344308,1.4813 h 209.86942 v -10.8378 l -212.62042,-0.012 c -320.58932,-0.077 -463.976259,-1.4572 -471.446613,-1.4524 z M 1770.0113,1435.631 v 10.8094 l 614.0929,0.01 v -5.3999 -5.4024 z m -1727.82534,30.7585 -0.628918,0.1584 0.412885,10.5932 c 13.31205,0.031 286.737043,0.1972 476.787883,0.2221 h 207.3705 v -10.8378 l -210.30999,-0.012 c -264.43871,-0.068 -461.91841,-0.1813 -472.39957,-0.1887 z m 1727.82534,0.2025 v 10.8047 l 614.0929,0.01 v -5.3976 -5.3976 z M 41.830995,1496.8863 v 10.8199 c 12.26374,0.046 283.795155,0.3031 474.427895,0.3132 l 1867.84531,0.055 v -5.4023 -5.3976 l -1870.05051,-0.095 c -172.11586,0 -329.95443,0.8268 -472.222695,-0.2932 z" /></g><g
     id="layer2"><path
       id="path24"
       style="display:inline;fill:#f28705;fill-opacity:1;stroke-width:0.791003;stroke-dasharray:none"
       d="m -28.162637,105.18083 v 3.49422 3.49268 H 241.71389 v -0.0753 h 24.76352 v 0.0753 h 15.96362 l -0.005,-0.0753 h 21.32482 l -0.005,0.0753 h 16.37626 v -0.0753 h 24.76353 l 0.0464,0.0753 h 44.75763 l 0.0464,-0.0753 h 24.76352 v 0.0753 H 1156.429 c 143.2058,6e-5 268.9622,0.10856 282.9118,0.2135 l -0.1247,-6.98691 c -7.2035,-0.23009 -77.6015,-0.14921 -280.0586,-0.15973 z m 0,19.82413 v 3.49422 3.49422 H 241.71389 v -6.9823 z m 294.640047,0.008 v 6.98076 h 17.41428 l -0.51021,-6.98076 z m 36.33999,0.002 -0.51021,6.97923 h 17.82533 v -6.97769 z m 49.99888,0.003 4.2752,6.97615 h 20.45954 l 4.2736,-6.97462 z m 61.6937,0.003 v 6.97308 h 740.36112 c 142.4053,10e-4 271.5842,0.46106 284.6793,0.56675 l -0.2511,-7.15892 c -6.8634,-0.0628 -77.8459,-0.33029 -281.1174,-0.34098 z m -442.672617,19.80569 v 3.58638 3.58945 l 269.876527,0.006 v -7.17584 z m 294.640047,0.008 v 7.17583 l 53.65511,0.003 v -7.17427 l -18.76418,-0.002 -0.35826,4.90881 H 285.1888 l -0.35826,-4.91034 z m 98.48632,0.006 2.35752,3.84748 2.35752,-3.84748 z m 49.54625,0.003 v 7.17429 l 743.86702,0.0415 c 168.6747,0.0402 270.0616,0.10466 280.9654,0.24728 l -0.043,-7.15739 c -10.8695,-0.14387 -116.6685,-0.25107 -282.0913,-0.26111 z m -442.672617,19.99771 v 3.49268 3.49115 l 269.876527,0.006 v -6.99 z m 294.640047,0 v 6.99151 l 53.65511,0.003 v -6.99456 z m 78.41864,0 v 6.99612 h 10.19778 l -4.49272,-6.99612 z m 39.14534,0 -4.49432,6.99765 10.19939,0.002 v -6.99921 z m 30.46859,0 v 7.00073 l 742.89302,0.0415 c 169.108,0.0407 271.7414,0.15645 281.8963,0.30104 v -7.15893 c -12.1667,-0.1155 -133.0627,-0.18431 -283.6221,-0.18431 z m -442.672617,19.82413 v 3.49114 3.49115 l 269.876527,0.006 v -6.98814 z m 294.640047,0 v 6.98997 l 53.65511,0.003 v -6.99322 z m 78.41864,0 v 6.99458 l 44.85041,0.001 v -6.99588 z m 69.61393,0 v 6.99765 l 741.91902,0.0415 c 202.9337,0.0491 276.5984,0.29954 282.827,0.29029 l 0.043,-7.15278 c -12.0137,-0.10668 -142.2473,-0.17664 -285.0119,-0.17664 z m -442.672617,20.00997 v 3.49269 3.49422 H 1155.0982 c 153.3369,0 273.4041,0.34858 284.2011,0.46845 l 0.066,-7.18042 c -5.7155,-0.0223 -78.0405,-0.16997 -281.9619,-0.21811 z m 270.066857,-93.2634 v 0.68041 h 24.57319 v 92.48087 h -24.57319 v 0.56368 h 172.61056 v -93.72496 z m 40.53201,0.68041 h 21.32482 l -2.75097,37.6531 H 285.1888 Z m 37.69629,0 h 24.76353 l 22.4252,36.59485 22.42521,-36.59485 h 24.76352 v 92.48087 h -24.76352 v -48.61958 l -16.37148,25.49936 h -12.10747 l -16.37146,-25.49936 v 48.61958 h -24.76353 z" /><path
       id="path10"
       style="color:#000000;display:inline;fill:#f28705;fill-opacity:1;stroke-width:0.834859;stroke-miterlimit:0;-inkscape-stroke:none"
       d="m 1438.9748,105.26445 c -1.2528,0 -4.2283,0.006 -4.1575,1.25422 l 0.3225,5.68531 c 1.2497,-0.0131 2.4582,0.18461 3.7109,0.18461 93.2334,0 182.7714,39.48814 248.7139,105.43055 65.9426,65.94238 103,155.39243 103,248.67187 0,93.27941 -37.0574,182.72947 -103,248.67188 -65.9425,65.94238 -155.1027,105.41733 -248.336,105.41733 -1.435,0 -4.7332,1.9983 -5.2337,2.28688 -5.2461,3.02403 -1.3389,4.82903 4.9799,4.84851 95.832,0 187.7394,-38.07343 255.4863,-105.8203 67.7469,-67.74687 105.7969,-159.61855 105.7969,-255.4043 0,-95.78577 -38.05,-187.65741 -105.7969,-255.40429 -67.7469,-67.74688 -159.6543,-105.82227 -255.4863,-105.82227 z m 0,19.99609 c -1.2528,0 -4.2938,0.64958 -4.2815,1.89922 l 0.05,5.05678 c 1.2495,-0.0138 2.9791,0.35827 4.2319,0.35827 88.0875,0 172.5662,36.7247 234.8691,99.02753 62.3031,62.30282 97.3145,146.81621 97.3145,234.94727 0,88.13103 -35.0114,172.64443 -97.3145,234.94726 -62.3029,62.30282 -146.7816,99.11402 -234.8691,99.11402 -1.2447,0 -3.7109,0.0994 -3.7109,1.34264 v 3.79375 c 0,1.24338 2.4662,2.09139 3.7109,2.09139 90.5428,0 177.3771,-35.97276 241.3847,-99.98047 64.0078,-64.00771 99.959,-150.80956 99.959,-241.30859 0,-90.49905 -35.9512,-177.29893 -99.959,-241.30664 -64.0079,-64.00771 -150.8422,-99.98243 -241.385,-99.98243 z m 0,19.89258 c -1.2528,0 -3.711,1.30851 -3.711,2.55795 v 4.36349 c 1.2494,-0.0147 2.4582,0.2011 3.711,0.2011 82.9418,0 162.4849,34.34297 221.1484,93.00637 58.6637,58.66337 91.6309,138.23981 91.6309,221.22266 0,82.98281 -32.9672,162.55926 -91.6309,221.22265 -58.6635,58.66338 -138.2914,92.88124 -221.2332,92.88124 -1.2447,0 -2.9766,0.0432 -4.2197,0.0284 l 0.5935,7.03569 c 1.4188,-0.033 2.4239,0.226 3.6686,0.226 85.2538,0 167.0589,-33.91239 227.3275,-94.18107 60.2688,-60.26868 94.1192,-142.00039 94.1192,-227.21289 0,-85.21252 -33.8504,-166.94226 -94.1192,-227.21094 -60.2686,-60.26867 -142.0314,-94.14063 -227.2851,-94.14063 z m 0,19.89258 c -1.2528,0 -4.4834,0.54061 -4.3327,1.78075 l 0.6217,5.11852 c 1.2491,-0.0156 2.4582,0.23996 3.711,0.23996 77.8009,0 152.4139,31.75721 207.4414,86.7846 55.0275,55.02737 85.9512,129.67221 85.9512,207.51172 0,77.83948 -30.9237,152.48237 -85.9512,207.50976 -55.0275,55.02738 -129.6405,86.60802 -207.4414,86.60802 -1.2447,0 -2.4255,-0.0406 -3.711,0.24036 v 6.89186 c 1.2431,0.0154 2.5087,0.0988 3.7534,0.0988 79.9696,0 156.6217,-31.68671 213.1548,-88.2199 56.5333,-56.53317 88.2852,-133.19793 88.2852,-213.1289 0,-79.93098 -31.7519,-156.59573 -88.2852,-213.12891 -56.5331,-56.53318 -133.2275,-88.30664 -213.1972,-88.30664 z m 0,19.8125 c -1.2528,0 -4.2939,0.37631 -4.2939,1.62531 v 4.74857 c 1.2488,-0.0167 3.0411,0.70627 4.2939,0.70627 72.6943,0 142.4104,29.26207 193.8262,80.67766 51.4157,51.41559 80.3085,121.16022 80.3085,193.89063 0,72.73039 -28.8928,142.47698 -80.3085,193.89257 -51.4158,51.41559 -121.1319,80.58584 -193.8262,80.58584 -1.2447,0 -2.6801,0.34205 -3.923,0.32515 l 0.212,6.66323 c 1.243,0.0164 2.4662,0.1836 3.711,0.1836 74.7208,0 146.3825,-29.68722 199.205,-82.50977 52.8227,-52.82254 82.4903,-124.45603 82.4903,-199.14062 0,-74.6846 -29.6676,-146.31613 -82.4903,-199.13867 -52.8225,-52.82256 -124.4842,-82.50977 -199.205,-82.50977 z m 0,20.00781 c -1.4082,0 -3.711,0.1875 -3.711,0.1875 l -0.1943,6.93164 c 1.2485,-0.018 2.6525,0.0845 3.9053,0.0845 67.4722,0 132.1801,26.52734 179.9023,74.24947 47.7222,47.72212 74.541,112.4571 74.541,179.96289 0,67.50578 -26.8188,132.24076 -74.541,179.96289 -47.7222,47.72213 -112.4301,74.52148 -179.9023,74.52148 -1.2448,0 -2.553,0.21617 -3.7958,0.19796 l 0.085,6.55009 c 1.2428,0.0177 2.4663,0.18359 3.711,0.18359 69.3531,0 135.8664,-27.55205 184.8945,-76.58008 49.0281,-49.02801 76.5645,-115.51635 76.5645,-184.83593 0,-69.31959 -27.5364,-135.80597 -76.5645,-184.83398 -49.0281,-49.02802 -115.5414,-76.58204 -184.8945,-76.58204 z" /></g></svg>
