<?xml version="1.0" encoding="UTF-8" standalone="no"?>
<!-- Created with Inkscape (http://www.inkscape.org/) -->

<svg
   version="1.1"
   id="svg1"
   width="1920"
   height="1000"
   viewBox="0 0 1920 1000"
   sodipodi:docname="landing_large_line.svg"
   inkscape:version="1.3.2 (091e20e, 2023-11-25)"
   inkscape:export-filename="landing_line_text.png"
   inkscape:export-xdpi="96"
   inkscape:export-ydpi="96"
   xml:space="preserve"
   xmlns:inkscape="http://www.inkscape.org/namespaces/inkscape"
   xmlns:sodipodi="http://sodipodi.sourceforge.net/DTD/sodipodi-0.dtd"
   xmlns="http://www.w3.org/2000/svg"
   xmlns:svg="http://www.w3.org/2000/svg"><defs
     id="defs1"><rect
       x="153.17824"
       y="148.80172"
       width="1284.509"
       height="448.59342"
       id="rect31" /><inkscape:path-effect
       effect="bspline"
       id="path-effect4"
       is_visible="true"
       lpeversion="1.3"
       weight="33.333333"
       steps="2"
       helper_size="0"
       apply_no_weight="true"
       apply_with_weight="true"
       only_selected="false"
       uniform="false" /><inkscape:path-effect
       effect="bspline"
       id="path-effect27"
       is_visible="true"
       lpeversion="1.3"
       weight="33.333333"
       steps="2"
       helper_size="0"
       apply_no_weight="true"
       apply_with_weight="true"
       only_selected="false"
       uniform="false" /><inkscape:path-effect
       effect="fillet_chamfer"
       id="path-effect48"
       is_visible="true"
       lpeversion="1"
       nodesatellites_param="F,0,0,1,0,35.174275,0,1 @ F,0,0,1,0,0,0,1 @ F,0,0,1,0,0,0,1 @ F,0,0,1,0,26.967006,0,1"
       radius="0"
       unit="px"
       method="auto"
       mode="F"
       chamfer_steps="1"
       flexible="false"
       use_knot_distance="true"
       apply_no_radius="true"
       apply_with_radius="true"
       only_selected="false"
       hide_knots="false" /><rect
       x="633.89181"
       y="291.688"
       width="791.95738"
       height="246.06083"
       id="rect47" /><rect
       x="50.659966"
       y="467.76038"
       width="207.70587"
       height="20.263987"
       id="rect3" /><rect
       x="173.93256"
       y="280.31848"
       width="1372.8851"
       height="202.63988"
       id="rect1" /><pattern
       patternUnits="userSpaceOnUse"
       width="459.11733"
       height="454.02251"
       patternTransform="translate(85.46106,465.15187)"
       preserveAspectRatio="xMidYMid"
       id="pattern4"
       inkscape:label="path19"><path
         id="use21"
         style="display:inline;fill:none;stroke:#ffffff;stroke-width:9.60003;stroke-linecap:round;stroke-linejoin:round;stroke-dasharray:none;paint-order:markers stroke fill"
         inkscape:label="path19"
         d="m 318.75846,226.81568 c 10e-6,48.88433 -39.97448,88.51291 -89.28551,88.51291 -49.31103,0 -89.28551,-39.62859 -89.28551,-88.51291 0,-48.88432 39.97448,-88.5129 89.28551,-88.5129 49.31103,0 89.28552,39.62857 89.28551,88.5129 z"
         sodipodi:nodetypes="sssss" /><path
         id="path19-7-7"
         style="display:inline;fill:none;stroke:#ffffff;stroke-width:9.50001;stroke-linecap:round;stroke-linejoin:round;stroke-dasharray:none;paint-order:markers stroke fill"
         inkscape:label="path19"
         d="m 373.41508,226.86727 c 0,78.21155 -63.8969,141.66078 -142.87064,142.05625 -0.24737,8.3e-4 -0.49488,0.002 -0.74254,0.002 -79.31537,0 -143.613177,-63.60158 -143.613177,-142.05811 0,-78.45654 64.297807,-142.05812 143.613177,-142.05812 79.31537,0 143.61318,63.60158 143.61318,142.05812 z"
         sodipodi:nodetypes="ssssss" /><path
         id="ellipse22"
         style="display:inline;fill:none;stroke:#ffffff;stroke-width:9.6;stroke-linecap:round;stroke-linejoin:round;stroke-dasharray:none;paint-order:markers stroke fill"
         inkscape:label="path19"
         d="M 399.67732,226.4839 A 169.87542,168.07626 0 0 1 229.8019,394.56017 169.87542,168.07626 0 0 1 59.92648,226.4839 169.87542,168.07626 0 0 1 229.8019,58.407621 169.87542,168.07626 0 0 1 399.67732,226.4839 Z" /><path
         id="ellipse23"
         style="display:inline;fill:none;stroke:#ffffff;stroke-width:9.70005;stroke-linecap:round;stroke-linejoin:round;stroke-dasharray:none;paint-order:markers stroke fill"
         inkscape:label="path19"
         d="M 427.35718,227.07816 A 197.55526,195.4021 0 0 1 229.80192,422.48031 197.55526,195.4021 0 0 1 32.246649,227.07816 197.55526,195.4021 0 0 1 229.80192,31.676059 197.55526,195.4021 0 0 1 427.35718,227.07816 Z" /><path
         id="ellipse24"
         style="display:inline;fill:none;stroke:#ffffff;stroke-width:9.50001;stroke-linecap:round;stroke-linejoin:round;stroke-dasharray:none;paint-order:markers stroke fill"
         inkscape:label="path19"
         d="M 454.31279,227.01125 A 224.75412,222.31516 0 0 1 229.55867,449.32642 224.75412,222.31516 0 0 1 4.8045421,227.01125 224.75412,222.31516 0 0 1 229.55867,4.6960901 224.75412,222.31516 0 0 1 454.31279,227.01125 Z" /><path
         id="ellipse25"
         style="display:inline;fill:none;stroke:#ffffff;stroke-width:9.49993;stroke-linecap:round;stroke-linejoin:round;stroke-dasharray:none;paint-order:markers stroke fill"
         inkscape:label="path19"
         d="M 346.39434,226.81661 A 115.26328,116.73149 87.587447 0 1 229.54123,342.08252 115.26328,116.73149 87.587447 0 1 112.93667,226.81661 115.26328,116.73149 87.587447 0 1 229.78979,111.55072 115.26328,116.73149 87.587447 0 1 346.39434,226.81661 Z" /></pattern><pattern
       patternUnits="userSpaceOnUse"
       width="674.27631"
       height="674.26551"
       patternTransform="translate(1172.3374,23.793999)"
       preserveAspectRatio="xMidYMid"
       id="pattern68"><path
         id="path39"
         style="fill:none;fill-opacity:1;stroke:#ffffff;stroke-width:9.20002;stroke-linecap:butt;stroke-dasharray:none;stroke-opacity:1;paint-order:normal"
         d="M 337.13719,4.5477951 A 332.48622,332.58523 0 0 0 4.6528223,337.13178 332.48622,332.58523 0 0 0 337.13719,669.71772 332.48622,332.58523 0 0 0 669.62348,337.13178 332.48622,332.58523 0 0 0 337.13719,4.5477951 Z M 336.87547,30.094669 A 307.15749,307.15837 0 0 1 644.03364,337.25287 307.15749,307.15837 0 0 1 336.87547,644.41108 307.15749,307.15837 0 0 1 29.717227,337.25287 307.15749,307.15837 0 0 1 336.87547,30.094669 Z m 0.26172,25.101568 A 281.94427,281.94493 0 0 0 55.193843,337.14155 281.94427,281.94493 0 0 0 337.13719,619.08491 281.94427,281.94493 0 0 0 619.08246,337.14155 281.94427,281.94493 0 0 0 337.13719,55.196237 Z m 0,25.275389 A 256.59596,256.5964 0 0 1 593.73483,337.06928 256.59596,256.5964 0 0 1 337.13719,593.66499 256.59596,256.5964 0 0 1 80.541478,337.06928 256.59596,256.5964 0 0 1 337.13719,80.471626 Z m 0,25.197264 A 231.45343,231.45361 0 0 0 105.68409,337.12201 231.45343,231.45361 0 0 0 337.13719,568.5771 231.45343,231.45361 0 0 0 568.5923,337.12201 231.45343,231.45361 0 0 0 337.13719,105.66889 Z m 0,25.5918 A 205.79393,205.79384 0 0 1 542.93209,337.05366 205.79393,205.79384 0 0 1 337.13719,542.84858 205.79393,205.79384 0 0 1 131.34422,337.05366 205.79393,205.79384 0 0 1 337.13719,131.26069 Z" /></pattern></defs><sodipodi:namedview
     id="namedview1"
     pagecolor="#000000"
     bordercolor="#000000"
     borderopacity="0.25"
     inkscape:showpageshadow="2"
     inkscape:pageopacity="0.0"
     inkscape:pagecheckerboard="false"
     inkscape:deskcolor="#d1d1d1"
     showgrid="true"
     showguides="true"
     inkscape:zoom="0.42266774"
     inkscape:cx="830.43954"
     inkscape:cy="257.88578"
     inkscape:window-width="1920"
     inkscape:window-height="1027"
     inkscape:window-x="0"
     inkscape:window-y="25"
     inkscape:window-maximized="0"
     inkscape:current-layer="g1"><inkscape:grid
       id="grid11"
       units="px"
       originx="0"
       originy="0"
       spacingx="1"
       spacingy="1"
       empcolor="#0099e5"
       empopacity="0.30196078"
       color="#0099e5"
       opacity="0.14901961"
       empspacing="5"
       dotted="false"
       gridanglex="30"
       gridanglez="30"
       visible="true" /><sodipodi:guide
       position="960,609.35738"
       orientation="-1,0"
       id="guide72"
       inkscape:locked="false"
       inkscape:label=""
       inkscape:color="rgb(192,28,40)" /><sodipodi:guide
       position="240,500"
       orientation="-1,0"
       id="guide22"
       inkscape:locked="false"
       inkscape:label=""
       inkscape:color="rgb(255,190,111)" /><sodipodi:guide
       position="1090.0655,1438.8212"
       orientation="0,-1"
       id="guide35"
       inkscape:locked="false" /><sodipodi:guide
       position="960,500"
       orientation="0,1"
       id="guide36"
       inkscape:locked="false"
       inkscape:label=""
       inkscape:color="rgb(192,28,40)" /><sodipodi:guide
       position="120,500"
       orientation="-1,0"
       id="guide38"
       inkscape:locked="false"
       inkscape:label=""
       inkscape:color="rgb(249,240,107)" /><sodipodi:guide
       position="1800,500"
       orientation="-1,0"
       id="guide39"
       inkscape:locked="false"
       inkscape:label=""
       inkscape:color="rgb(249,240,107)" /><sodipodi:guide
       position="360,500"
       orientation="-1,0"
       id="guide1"
       inkscape:locked="false"
       inkscape:label=""
       inkscape:color="rgb(255,190,111)" /><sodipodi:guide
       position="480,500"
       orientation="-1,0"
       id="guide2"
       inkscape:locked="false"
       inkscape:label=""
       inkscape:color="rgb(255,190,111)" /><sodipodi:guide
       position="720,500"
       orientation="-1,0"
       id="guide3"
       inkscape:label=""
       inkscape:locked="false"
       inkscape:color="rgb(255,190,111)" /><sodipodi:guide
       position="600,500"
       orientation="-1,0"
       id="guide4"
       inkscape:label=""
       inkscape:locked="false"
       inkscape:color="rgb(255,190,111)" /><sodipodi:guide
       position="840,500"
       orientation="-1,0"
       id="guide5"
       inkscape:label=""
       inkscape:locked="false"
       inkscape:color="rgb(255,190,111)" /><sodipodi:guide
       position="1080,1071.9149"
       orientation="-1,0"
       id="guide6"
       inkscape:label=""
       inkscape:locked="false"
       inkscape:color="rgb(255,190,111)" /><sodipodi:guide
       position="1200,1121.0567"
       orientation="-1,0"
       id="guide7"
       inkscape:label=""
       inkscape:locked="false"
       inkscape:color="rgb(255,190,111)" /><sodipodi:guide
       position="1320,1103.078"
       orientation="-1,0"
       id="guide8"
       inkscape:label=""
       inkscape:locked="false"
       inkscape:color="rgb(255,190,111)" /><sodipodi:guide
       position="1440,1113.8652"
       orientation="-1,0"
       id="guide9"
       inkscape:label=""
       inkscape:locked="false"
       inkscape:color="rgb(255,190,111)" /><sodipodi:guide
       position="1320,1103.078"
       orientation="-1,0"
       id="guide10"
       inkscape:label=""
       inkscape:locked="false"
       inkscape:color="rgb(255,190,111)" /><sodipodi:guide
       position="1680,1135.4397"
       orientation="-1,0"
       id="guide11"
       inkscape:label=""
       inkscape:locked="false"
       inkscape:color="rgb(255,190,111)" /><sodipodi:guide
       position="1560,1185.7801"
       orientation="-1,0"
       id="guide12"
       inkscape:label=""
       inkscape:locked="false"
       inkscape:color="rgb(255,190,111)" /><sodipodi:guide
       position="960,800"
       orientation="0,1"
       id="guide13"
       inkscape:locked="false"
       inkscape:label=""
       inkscape:color="rgb(255,190,111)" /><sodipodi:guide
       position="1621.7341,600"
       orientation="0,1"
       id="guide14"
       inkscape:label=""
       inkscape:locked="false"
       inkscape:color="rgb(255,190,111)" /><sodipodi:guide
       position="1753.3531,400"
       orientation="0,1"
       id="guide15"
       inkscape:label=""
       inkscape:locked="false"
       inkscape:color="rgb(255,190,111)" /><sodipodi:guide
       position="1833.2646,200"
       orientation="0,1"
       id="guide16"
       inkscape:label=""
       inkscape:locked="false"
       inkscape:color="rgb(255,190,111)" /><sodipodi:guide
       position="1532.2573,210.30196"
       orientation="1,0"
       id="guide17"
       inkscape:locked="false" /><sodipodi:guide
       position="1558.3077,0.65858922"
       orientation="1,0"
       id="guide18"
       inkscape:locked="false" /></sodipodi:namedview><g
     inkscape:groupmode="layer"
     inkscape:label="path2"
     id="g1"
     transform="matrix(0.65696848,0,0,0.64907287,382.2532,79.427235)"
     style="display:inline;stroke-width:1.27848;fill:#f28705;fill-opacity:1"><path
       id="text47"
       style="font-size:225.137px;font-family:'Creative Fusion';-inkscape-font-specification:'Creative Fusion, Normal';display:inline;fill:#f28705;stroke-width:14.0886;stroke-linecap:round;paint-order:markers stroke fill;fill-opacity:1"
       d="m 368.75367,935.09536 c 0,-26.87117 14.69037,-47.82158 42.29048,-47.82158 16.24845,0 28.71301,7.05938 35.61304,18.67319 l 18.47426,-33.70283 c -14.02263,-13.43559 -31.60656,-19.12864 -54.0873,-19.12864 -48.0776,0 -80.12934,30.51473 -80.12934,81.97986 0,51.46514 32.05174,81.97984 80.12934,81.97984 22.48074,0 40.06467,-5.6931 54.0873,-19.12865 l -18.47426,-33.70279 c -6.90003,11.61381 -19.36459,18.67319 -35.61304,18.67319 -27.60011,0 -42.29048,-20.9504 -42.29048,-47.82159 z M 492.2865,855.39272 V 1014.798 h 40.06467 v -65.8116 h 4.67422 l 35.61303,65.8116 h 42.06791 l -36.72595,-67.8611 c 23.59363,-5.00988 35.61304,-18.90092 35.61304,-46.68298 0,-30.287 -14.02264,-44.8612 -49.41309,-44.8612 z m 65.88413,33.01967 c 7.79034,0 14.69037,2.96038 14.69037,14.11875 0,12.29698 -9.34842,13.43559 -16.91619,13.43559 h -23.59364 v -27.55434 z m 85.69382,-33.01967 V 1014.798 h 115.74237 v -33.01966 h -75.6777 V 950.125 h 55.42279 v -33.01966 h -55.42279 v -28.69295 h 75.6777 v -33.01967 z m 225.25219,0 H 821.70673 L 778.74855,1014.798 h 38.95178 l 8.0129,-32.79194 h 39.39701 l 8.0129,32.79194 h 38.9518 z m -35.16791,93.59368 11.5743,-46.9107 11.35162,46.9107 z M 1035.1622,855.39272 H 916.74894 l 1.558,33.01967 h 37.6163 V 1014.798 h 40.0646 V 888.41239 h 37.61636 z m 22.2582,0 V 1014.798 h 40.0646 V 855.39272 Z m 152.691,159.40528 42.9582,-159.40528 h -38.9517 l -27.6002,96.78179 -27.8226,-96.78179 h -38.9518 l 42.9582,159.40528 z m 65.884,-159.40528 V 1014.798 h 115.7425 v -33.01966 h -75.6778 V 950.125 h 55.4228 v -33.01966 h -55.4228 v -28.69295 h 75.6778 v -33.01967 z m -516.99487,-2.38565 c -417.56853,0.005 -710.6034,0.19372 -718.85818,0.36677 v 10.74078 c 8.15054,-0.088 204.12427,-0.21839 717.89369,-0.34312 146.1357,-0.0355 261.59856,0.0704 354.61156,0.2461 h 196.9887 v 0.60814 c 111.9541,0.51209 287.4636,0.91942 301.2467,0.83492 0.049,-3.68832 0.021,-7.07099 0.07,-10.75931 -31.9334,-0.10815 -426.6706,-1.70323 -851.95277,-1.69428 z m -404.06635,31.05334 c -81.70926,0.0517 -310.3304,0.1039 -314.70856,0.14434 l 0.0278,11.02237 c 3.29961,-0.002 251.06954,-0.15138 311.97932,-0.25556 0.2691,-3.75655 1.18202,-7.4438 2.70148,-10.91115 z m 954.70212,0.87554 v 11.10993 c 71.356,0.37443 288.558,0.8158 301.2869,0.87554 0.042,-3.66387 0.085,-7.32774 0.1272,-10.99161 -13.9071,-0.0538 -212.664,-0.53806 -301.4141,-0.99386 z m -958.0304,29.75897 c -46.89693,0.0814 -308.80976,0.27544 -311.32477,0.28209 l -0.04008,10.8444 c 2.97751,-0.007 249.00409,-0.15886 311.36484,-0.26977 z m 958.0304,0.50167 v 11.06969 c 87.1731,0.46632 285.6205,0.96598 301.1712,1.04118 0.028,-3.6686 0.055,-7.33719 0.083,-11.00579 -14.3455,-0.0781 -190.4626,-0.61454 -301.2545,-1.10508 z m -958.0304,29.94117 c -79.59064,0.047 -308.592,0.13089 -311.35252,0.12542 l -0.0856,10.78337 c 3.73194,0.0156 231.5978,-0.0233 311.43811,-0.0237 z m 958.0304,0.72647 v 11.23533 c 88.545,0.47175 286.0644,0.97424 301.1712,1.04119 0.01,-3.68201 0.017,-7.36402 0.026,-11.04603 -15.6104,-0.0992 -192.216,-0.69019 -301.1967,-1.23049 z m -958.0304,30.0027 c -71.71349,0.0367 -308.80594,0.0745 -311.38028,0.0781 l 0.0278,10.79047 c 2.20678,-0.0191 265.98741,-0.0769 313.22598,-0.0994 -0.93568,-2.16038 -1.56584,-4.43279 -1.87346,-6.75588 z m 958.0304,1.11454 v 10.96321 c 70.2568,0.37054 286.4623,0.80791 301.1712,0.88027 v -11.02236 c -13.4682,-0.0473 -224.0509,-0.45347 -301.1712,-0.82112 z M 761.34121,1006.305 c -368.77662,0.098 -715.96853,0.4059 -721.2613,0.2887 l 0.0394,10.8685 c 5.15538,-0.018 199.80413,-0.2835 723.28972,-0.4354 346.10987,-0.1004 800.56177,2.2016 847.44707,2.4397 l -0.03,-11.0271 c 0,0 -292.2856,-2.2822 -849.48482,-2.1344 z"
       inkscape:label="path3"
       sodipodi:nodetypes="ssccsssccssccccccccsscsssccscccccccccccccccccccccccccccccccccccccccccccccccccccccccccccccsccsccccccscccssccccccccccccccsccccccccccsccccccccscccsccsccssc" /><path
       id="circle31"
       style="color:#000000;display:inline;fill:#f28705;stroke-width:1.27848;stroke-miterlimit:0;-inkscape-stroke:none;fill-opacity:1"
       d="m 41.072181,853.37544 c -143.791781,0 -260.473751,116.6818 -260.473751,260.47366 0,143.7918 116.68197,260.4737 260.473751,260.4737 0.400793,0 0.79475,-0.028 1.19512,-0.03 v -10.7665 c -0.400409,0 -0.794267,0.03 -1.19512,0.03 -137.973683,0 -249.708751,-111.7335 -249.708751,-249.7072 0,-137.97377 111.735068,-249.71011 249.708751,-249.71011 0.400853,0 0.794711,0.0282 1.19512,0.0301 v -10.76355 c -0.40037,-0.002 -0.794327,-0.0301 -1.19512,-0.0301 z m 0,31.05691 c -126.785888,0 -229.680091,102.89556 -229.680091,229.68155 0,126.786 102.894203,229.6816 229.680091,229.6816 0.400791,0 0.794808,-0.028 1.19512,-0.03 v -10.7635 c -0.400349,0 -0.794263,0.03 -1.19512,0.03 -120.967785,0 -218.915091,-97.9502 -218.915091,-218.9181 0,-120.9679 97.947306,-218.918 218.915091,-218.918 0.400857,0 0.794771,0.0279 1.19512,0.0301 v -10.76355 c -0.400312,-0.002 -0.794329,-0.0301 -1.19512,-0.0301 z m 0,30.53635 c -109.443937,0 -198.279941,88.8377 -198.279941,198.2816 0,109.4439 88.836004,198.2816 198.279941,198.2816 0.40084,0 0.794836,-0.028 1.19512,-0.03 v -10.7665 c -0.400206,0 -0.794321,0.03 -1.19512,0.03 -103.625841,0 -187.514941,-83.8893 -187.514941,-187.5151 0,-103.6258 83.8891,-187.51503 187.514941,-187.51504 0.400799,0 0.794914,0.0276 1.19512,0.0301 V 914.9988 c -0.400284,-0.002 -0.79428,-0.0301 -1.19512,-0.0301 z m 0,30.29571 c -92.911698,0 -168.348431,75.50459 -168.348431,168.41619 0,92.9117 75.436733,168.3501 168.348431,168.3501 0.400823,0 0.794952,-0.027 1.19512,-0.03 v -10.7665 c -0.400065,0 -0.794347,0.03 -1.19512,0.03 -87.093602,0 -157.583431,-70.49 -157.583431,-157.5836 0,-87.0935 70.489829,-157.64963 157.583431,-157.64963 0.400773,0 0.795055,-0.20326 1.19512,-0.20028 v -10.30582 c -0.400168,-0.003 -0.794297,-0.26046 -1.19512,-0.26046 z m -0.796599,30.67985 c -75.94259,-0.009 -137.665682,61.79364 -137.665682,137.73634 0,75.9427 62.51969,137.6242 138.462281,137.6242 0.403392,0 0.79254,-0.057 1.19512,-0.06 l 0.50877,-10.7665 c -0.402651,0 -1.300344,0.06 -1.70389,0.06 -70.124484,0 -126.855164,-56.733 -126.855164,-126.8576 0,-70.1246 56.683113,-126.94487 126.807597,-126.94487 0.403546,0 0.840036,-0.0146 1.242687,-0.0108 l 0.273119,-9.10791 c -0.402576,-0.003 -1.297137,-1.01721 -1.490999,-0.65915 -0.146776,0.27108 -0.493132,-1.01369 -0.773839,-1.01372 z m 0.796599,30.80804 c -58.353505,0 -105.708672,47.9716 -105.708672,106.9283 0,58.9568 47.355167,106.9314 105.708672,106.9314 0.40343,0 0.792752,-0.056 1.19512,-0.06 v -10.7666 c -0.402271,0.01 -0.791654,0.06 -1.19512,0.06 -52.464685,0 -94.943672,-42.9562 -94.943672,-96.1648 0,-53.2084 42.478987,-96.1618 94.943672,-96.1618 0.403472,0 0.792843,0.055 1.19512,0.06 0,0 2.444321,-8.1668 0,-10.7666 -0.274964,-0.2925 -1.593977,-0.06 -1.19512,-0.06 0.287197,0 0,10e-5 0,10e-5 z"
       inkscape:label="path4"
       sodipodi:nodetypes="sssccsssccssssccsssccssssccsssccssssccsssccssssccsssccssssccsssccsass" /><path
       id="text49"
       style="font-size:225.137px;font-family:'Creative Fusion';-inkscape-font-specification:'Creative Fusion, Normal';fill:#f28705;stroke-width:14.0886;stroke-linecap:round;paint-order:markers stroke fill;fill-opacity:1"
       inkscape:label="path5-1"
       d="m 697.47998,1213.1204 v 159.4053 h 68.19617 c 37.91167,0 69.99083,-26.8712 69.99083,-81.069 0,-54.1978 -32.07916,-78.3363 -69.99083,-78.3363 z m 62.13926,126.3856 h -21.75996 v -93.3659 h 21.75996 c 19.74098,0 34.99539,9.1088 34.99539,47.8215 0,31.8811 -15.03007,45.5444 -34.99539,45.5444 z m 102.96723,-126.3856 v 159.4053 h 116.65156 v -33.0197 h -76.27216 v -31.6533 h 55.85806 v -33.0197 h -55.85806 v -28.6929 h 76.27216 v -33.0197 z m 238.01363,52.6037 21.76,-29.3761 c -12.7867,-13.891 -30.5088,-25.5048 -63.0364,-25.5048 -31.6307,0 -57.2042,17.7623 -57.2042,47.1384 0,61.4849 80.3099,39.6236 80.3099,69.4552 0,10.0197 -10.3191,13.6633 -20.1896,13.6633 -18.395,0 -34.3224,-11.6138 -39.7063,-21.1782 l -22.65717,29.8316 c 15.25427,16.1682 37.68737,25.0494 64.38247,25.0494 35.8927,0 59.223,-17.0791 59.223,-45.089 0,-67.4056 -80.3099,-46.4552 -80.3099,-71.9601 0,-7.9702 5.3839,-13.2078 18.6193,-13.2078 16.3759,0 32.7521,10.4752 38.8089,21.1781 z m 49.1279,-52.6037 v 159.4053 h 40.3793 v -159.4053 z m 105.2107,79.7026 c 0,-26.8711 14.8056,-47.8215 42.6225,-47.8215 16.376,0 28.9386,7.0593 35.8927,18.6731 l 18.6194,-33.7028 c -14.1328,-13.4356 -31.8548,-19.1286 -54.5121,-19.1286 -48.4552,0 -80.7587,30.5147 -80.7587,81.9798 0,51.4652 32.3035,81.9799 80.7587,81.9799 24.0033,0 45.0901,-6.6039 60.7932,-25.7326 v -72.6432 h -40.3792 v 59.8908 c -5.8326,2.9604 -12.7868,4.3267 -20.414,4.3267 -27.8169,0 -42.6225,-20.9504 -42.6225,-47.8216 z m 212.8885,-79.7026 v 80.1581 l -39.4819,-80.1581 h -40.3795 v 159.4053 h 40.3795 v -80.1581 l 39.4819,80.1581 h 40.3793 v -159.4053 z m 73.58,0 v 159.4053 h 116.6514 v -33.0197 h -76.272 v -31.6533 h 55.8579 v -33.0197 h -55.8579 v -28.6929 h 76.272 v -33.0197 z m 143.7951,0 v 159.4053 h 40.3793 v -65.8116 h 4.7108 l 35.8927,65.8116 h 42.3983 l -37.0144,-67.8611 c 23.779,-5.01 35.8927,-18.9009 35.8927,-46.683 0,-30.287 -14.1328,-44.8612 -49.801,-44.8612 z m 66.4014,33.0197 c 7.8515,0 14.8058,2.9603 14.8058,14.1187 0,12.2969 -9.4219,13.4356 -17.049,13.4356 h -23.7789 v -27.5543 z m -1709.906223,-35.9826 0.133518,1.5762 v 8.8756 c 9.08035,0.05 284.588215,0.1147 476.339385,0.1444 l 1865.93382,0.054 v -5.4 -5.4023 l -1867.55158,-0.092 c -318.64254,-0.081 -474.228964,-0.1917 -474.228964,-0.1917 z m 0.683638,30.2769 -1.117595,10.8449 c 11.47624,0.054 284.19617,0.1352 475.14224,0.1444 l 209.72255,0.01 v -10.826 l -210.89742,-0.012 c -323.13334,-0.073 -466.640235,-0.1236 -472.849775,-0.1586 z m 1727.630185,0.2225 v 10.8094 l 614.0929,0.012 v -5.4023 -5.4023 z M 42.236595,1271.2961 c 0,0 -0.86152,0.645 -0.953507,0.746 -2.408424,2.6415 0.587043,9.9912 0.587043,9.9912 12.85388,0.1268 286.102579,0.3308 476.300249,0.3537 h 207.95793 v -10.7646 H 520.37325 c -231.85187,0 -478.060761,-0.3759 -478.175791,-0.3663 z m 1727.774705,0.3267 v 10.7974 l 614.0929,0.01 v -5.4047 -5.4022 z M 38.234148,1303.4529 c 0,0 -14.669591,7.8114 3.680434,8.1205 18.350025,0.3092 295.084388,1.4718 474.344308,1.4813 h 209.86942 v -10.8378 l -212.62042,-0.012 c -320.58932,-0.077 -463.976259,-1.4572 -471.446613,-1.4524 z m 1731.777152,-1.1744 v 10.8094 l 614.0929,0.01 v -5.3999 -5.4024 z m -1727.82534,30.7585 -0.628918,0.1584 0.412885,10.5932 c 13.31205,0.031 286.737043,0.1972 476.787883,0.2221 h 207.3705 v -10.8378 l -210.30999,-0.012 c -264.43871,-0.068 -461.91841,-0.1813 -472.39957,-0.1887 z m 1727.82534,0.2025 v 10.8047 l 614.0929,0.01 v -5.3976 -5.3976 z M 41.830995,1363.5338 v 10.8199 c 12.26374,0.046 283.795155,0.3031 474.427895,0.3132 l 1867.84531,0.055 v -5.4023 -5.3976 l -1870.05051,-0.095 c -172.11586,0 -329.95443,0.8268 -472.222695,-0.2932 z"
       sodipodi:nodetypes="ccssscsccssscccccccccccccccssssccssssccccccssccsssccccssccccccccccccccccccccccccccccccccsscsssccsccccccccccccsccccccccccccsccccsccccccccczccccccccccccccccccccccccccccccccccc" /></g><g
     inkscape:groupmode="layer"
     id="layer2"
     inkscape:label="path1"><path
       id="path24"
       style="display:inline;stroke-width:1.21132;fill:#f28705;fill-opacity:1;stroke-dasharray:none"
       inkscape:label="path1"
       d="m -624.71161,-93.674954 v 5.383401 5.381035 h 410.79067 v -0.11595 h 37.69363 v 0.11595 h 24.29891 l -0.007,-0.11595 h 32.45942 l -0.007,0.11595 h 24.927018 v -0.11595 h 37.69363 l 0.07063,0.11595 h 68.127518 l 0.0706,-0.11595 h 37.69363 v 0.11595 H 1178.4063 c 217.9797,8.6e-5 409.3989,0.167251 430.6322,0.32892 l -0.1898,-10.764436 c -10.9648,-0.354499 -118.1206,-0.229892 -426.2892,-0.246098 z m 0,30.542225 v 5.3834 5.383402 h 410.79067 v -10.757337 z m 448.4843,0.01183 v 10.75497 h 26.50702 L -150.4969,-63.1209 Z m 55.31466,0.0024 -0.77661,10.752604 h 27.132698 v -10.750242 z m 76.10545,0.0047 6.507461,10.747871 h 31.1423497 l 6.50502999,-10.745505 z m 93.906636,0.0047 v 10.74314 H 1176.035 c 216.7612,0.0019 413.39,0.710342 433.3225,0.873176 l -0.3822,-11.029465 c -10.447,-0.09681 -118.4926,-0.508855 -427.9009,-0.525326 z M -624.71161,-32.59527 v 5.525381 5.530114 l 410.79067,0.0095 v -11.05553 z m 448.4843,0.01183 v 11.055495 l 81.670748,0.0047 V -32.57634 l -28.561758,-0.0024 -0.54533,7.562791 h -24.08225 l -0.54533,-7.565157 z m 149.910265,0.0095 3.588481,5.927657 3.588481,-5.927657 z m 75.416481,0.0047 v 11.053129 l 1132.272064,0.06389 c 256.7469,0.06189 411.0724,0.161245 427.6695,0.380979 l -0.065,-11.027099 c -16.545,-0.221651 -177.5862,-0.386809 -429.3834,-0.402276 z M -624.71161,-1.7595877 v 5.381035 5.378668 l 410.79067,0.0095 v -10.769204 z m 448.4843,0 v 10.771535 l 81.670748,0.0047 v -10.776236 z m 119.364378,0 v 10.778634 h 15.522483 l -6.83856,-10.778634 z m 59.5848127,0 -6.840991,10.781 15.5249163,0.0024 v -10.783401 z m 46.3775553,0 v 10.785733 l 1130.789464,0.06389 c 257.4066,0.0627 413.6293,0.24105 429.0864,0.463801 v -11.029466 c -18.5194,-0.177949 -202.5404,-0.283959 -431.7133,-0.283959 z M -624.71161,28.782636 v 5.378666 5.37867 l 410.79067,0.009 V 28.782635 Z m 448.4843,0 v 10.769166 l 81.670748,0.005 V 28.782635 Z m 119.364378,0 v 10.776266 l 68.268738,0.002 V 28.782635 Z m 105.962368,0 v 10.780996 l 1129.306864,0.0639 c 308.8942,0.0757 421.0223,0.4615 430.5032,0.44724 l 0.065,-11.019998 c -18.2866,-0.164348 -216.5208,-0.272128 -433.8289,-0.272128 z M -624.71161,59.611182 v 5.38104 5.3834 H 1176.3807 c 233.4007,0 416.1601,0.53704 432.5946,0.72173 l 0.1,-11.06259 c -8.6997,-0.0344 -118.7888,-0.26186 -429.1862,-0.33602 z m 411.08038,-143.685934 v 1.048284 h 37.40392 v 142.48148 h -37.40392 v 0.86844 H 49.106736 V -84.074752 Z m 61.69553,1.048284 h 32.45942 l -4.18737,58.010585 h -24.08225 z m 57.379138,0 h 37.69363 l 34.134368,56.380184 34.13437,-56.380184 h 37.69363 v 142.48148 h -37.69363 v -74.906188 l -24.919727,39.285815 h -18.429296 l -24.919715,-39.285815 v 74.906188 h -37.69363 z"
       sodipodi:nodetypes="ccccccccccccccccccccccscccccccccccccccccccccccccccccccccccccccccccccccccccccccccccccccccccccccccccccccccsccccccccccccccccccccccsccccscccccccccccccccccccccccccccccccc"
       transform="matrix(0.65696848,0,0,0.64907287,382.2532,79.427235)" /><path
       id="path10"
       style="display:inline;stroke-width:1.27848;fill:#f28705;fill-opacity:1;color:#000000;stroke-miterlimit:0;-inkscape-stroke:none"
       d="m 1608.4814,-93.546123 c -1.9069,0 -6.436,0.0098 -6.3283,1.932323 l 0.4909,8.759132 c 1.9023,-0.02013 3.7417,0.284422 5.6486,0.284422 141.9145,0 278.2042,60.837756 378.5781,162.432522 100.3741,101.594724 156.7807,239.406754 156.7807,383.118574 0,143.71177 -56.4066,281.52381 -156.7807,383.11858 -100.3739,101.59473 -236.0885,162.41217 -378.003,162.41217 -2.1843,0 -7.2045,3.0787 -7.9664,3.5233 -7.9853,4.659 -2.038,7.4399 7.5801,7.4699 145.8701,0 285.7663,-58.65817 388.8867,-163.033 103.1205,-104.37483 161.038,-245.91776 161.038,-393.49095 0,-147.57322 -57.9175,-289.11609 -161.038,-393.49094 C 1894.2477,-34.884922 1754.3515,-93.546123 1608.4814,-93.546123 Z m 0,30.807163 c -1.9069,0 -6.5358,1.000781 -6.5171,2.926038 l 0.076,7.790786 c 1.902,-0.0213 4.5347,0.55196 6.4416,0.55196 134.0818,0 262.6705,56.5802437 357.5044,152.567666 94.8342,95.9874 148.1265,226.19372 148.1265,361.97364 0,135.77987 -53.2923,265.98621 -148.1265,361.97363 -94.8339,95.98741 -223.4226,152.70092 -357.5044,152.70092 -1.8946,0 -5.6486,0.15311 -5.6486,2.06855 v 5.84487 c 0,1.91563 3.754,3.22211 5.6486,3.22211 137.8191,0 269.9933,-55.42175 367.4221,-154.03581 97.429,-98.61406 152.1519,-232.34611 152.1519,-371.77427 0,-139.42818 -54.7229,-273.1572 -152.1519,-371.771266 C 1878.4747,-7.3141879 1746.3005,-62.73896 1608.4814,-62.73896 Z m 0,30.647681 c -1.9069,0 -5.6486,2.015961 -5.6486,3.94092 v 6.722652 c 1.9017,-0.02262 3.7417,0.309824 5.6486,0.309824 126.2493,0 247.3253,52.91082 336.6196,143.291113 89.2944,90.38026 139.4752,212.98041 139.4752,340.82869 0,127.84823 -50.1808,250.44841 -139.4752,340.82869 -89.2943,90.38026 -210.4994,143.09832 -336.7487,143.09832 -1.8946,0 -4.5307,0.0666 -6.4229,0.0437 l 0.9034,10.8396 c 2.1596,-0.0508 3.6895,0.34818 5.5841,0.34818 129.7684,0 254.2875,-52.24743 346.025,-145.10092 91.7377,-92.85348 143.2628,-218.77419 143.2628,-350.0576 0,-131.28344 -51.5251,-257.2011 -143.2628,-350.05459 -91.7375,-92.853478 -216.1921,-145.038609 -345.9605,-145.038609 z m 0,30.6476805 c -1.9069,0 -6.8243,0.83289964 -6.595,2.7435281 l 0.9464,7.8858929 c 1.9013,-0.02411 3.7417,0.3696928 5.6486,0.3696928 118.4242,0 231.9958,48.9270417 315.7555,133.7054847 83.7598,84.77842 130.83,199.78067 130.83,319.70481 0,119.92411 -47.0702,234.92335 -130.83,319.7018 -83.7597,84.77843 -197.3313,133.43342 -315.7555,133.43342 -1.8946,0 -3.692,-0.0626 -5.6486,0.37032 v 10.618 c 1.8921,0.0237 3.8185,0.15223 5.7131,0.15223 121.7253,0 238.4007,-48.81843 324.4522,-135.91679 86.0518,-87.09834 134.3827,-205.21261 134.3827,-328.35898 0,-123.14638 -48.3309,-241.26063 -134.3827,-328.35898 C 1846.9466,47.508471 1730.2067,-1.4435985 1608.4814,-1.4435985 Z m 0,30.5243075 c -1.9069,0 -6.5359,0.579761 -6.5359,2.50405 v 7.315924 c 1.9009,-0.02579 4.629,1.088128 6.5359,1.088128 110.6512,0 216.7691,45.082876 295.0312,124.296769 78.2621,79.21389 122.2411,186.66659 122.2411,298.71935 0,112.05274 -43.979,219.50845 -122.2411,298.72235 -78.2621,79.21389 -184.38,124.1553 -295.0312,124.1553 -1.8946,0 -4.0795,0.52698 -5.9713,0.50094 l 0.3227,10.26578 c 1.892,0.0253 3.7539,0.28285 5.6486,0.28285 113.7357,0 222.8151,-45.73787 303.2186,-127.11941 80.4036,-81.38153 125.562,-191.74432 125.562,-306.80781 0,-115.06351 -45.1584,-225.42327 -125.562,-306.8048 C 1831.2965,74.818582 1722.2171,29.080709 1608.4814,29.080709 Z m 0,30.825218 c -2.1435,0 -5.6486,0.288873 -5.6486,0.288873 l -0.2958,10.679295 c 1.9004,-0.02778 4.0375,0.130214 5.9444,0.130214 102.7024,0 201.1971,40.869591 273.8371,114.393111 72.64,73.52353 113.4621,173.25806 113.4621,277.26146 0,104.00339 -40.8221,203.73793 -113.4621,277.26146 -72.64,73.52354 -171.1347,114.8122 -273.8371,114.8122 -1.8947,0 -3.886,0.33304 -5.7777,0.30499 l 0.1291,10.09145 c 1.8917,0.0273 3.754,0.28285 5.6486,0.28285 105.5654,0 206.8081,-42.44832 281.4359,-117.98379 74.6278,-75.53545 116.5421,-177.97131 116.5421,-284.76916 0,-106.79785 -41.9143,-209.23069 -116.5421,-284.76615 C 1815.2895,102.35727 1714.0468,59.905927 1608.4814,59.905927 Z"
       sodipodi:nodetypes="ssccsssssccsssssccssssssccsssssccssssccccsssssccssssssccsssssccssssssccsssscccssssscsssss"
       inkscape:label="path2"
       transform="matrix(0.65696848,0,0,0.64907287,382.2532,79.427235)" /></g></svg>
