<?xml version="1.0" encoding="UTF-8" standalone="no"?>
<!-- Created with Inkscape (http://www.inkscape.org/) -->

<svg
   version="1.1"
   id="svg1"
   width="1920"
   height="1080"
   viewBox="0 0 1920 1080"
   sodipodi:docname="landing_large_line_only.svg"
   inkscape:version="1.3.2 (091e20e, 2023-11-25)"
   inkscape:export-filename="landing_line_large.svg"
   inkscape:export-xdpi="96"
   inkscape:export-ydpi="96"
   xml:space="preserve"
   xmlns:inkscape="http://www.inkscape.org/namespaces/inkscape"
   xmlns:sodipodi="http://sodipodi.sourceforge.net/DTD/sodipodi-0.dtd"
   xmlns="http://www.w3.org/2000/svg"
   xmlns:svg="http://www.w3.org/2000/svg"><defs
     id="defs1"><rect
       x="153.17824"
       y="148.80173"
       width="1284.509"
       height="448.59341"
       id="rect31" /><inkscape:path-effect
       effect="bspline"
       id="path-effect4"
       is_visible="true"
       lpeversion="1.3"
       weight="33.333333"
       steps="2"
       helper_size="0"
       apply_no_weight="true"
       apply_with_weight="true"
       only_selected="false"
       uniform="false" /><inkscape:path-effect
       effect="bspline"
       id="path-effect27"
       is_visible="true"
       lpeversion="1.3"
       weight="33.333333"
       steps="2"
       helper_size="0"
       apply_no_weight="true"
       apply_with_weight="true"
       only_selected="false"
       uniform="false" /><inkscape:path-effect
       effect="fillet_chamfer"
       id="path-effect48"
       is_visible="true"
       lpeversion="1"
       nodesatellites_param="F,0,0,1,0,35.174275,0,1 @ F,0,0,1,0,0,0,1 @ F,0,0,1,0,0,0,1 @ F,0,0,1,0,26.967006,0,1"
       radius="0"
       unit="px"
       method="auto"
       mode="F"
       chamfer_steps="1"
       flexible="false"
       use_knot_distance="true"
       apply_no_radius="true"
       apply_with_radius="true"
       only_selected="false"
       hide_knots="false" /><rect
       x="633.89178"
       y="291.68799"
       width="791.9574"
       height="246.06084"
       id="rect47" /><rect
       x="50.659966"
       y="467.76038"
       width="207.70587"
       height="20.263987"
       id="rect3" /><rect
       x="173.93256"
       y="280.31848"
       width="1372.8851"
       height="202.63988"
       id="rect1" /><pattern
       patternUnits="userSpaceOnUse"
       width="459.11733"
       height="454.02251"
       patternTransform="translate(85.46106,465.15187)"
       preserveAspectRatio="xMidYMid"
       id="pattern4"
       inkscape:label="path19"><path
         id="use21"
         style="display:inline;fill:none;stroke:#ffffff;stroke-width:9.60003;stroke-linecap:round;stroke-linejoin:round;stroke-dasharray:none;paint-order:markers stroke fill"
         inkscape:label="path19"
         d="m 318.75846,226.81568 c 10e-6,48.88433 -39.97448,88.51291 -89.28551,88.51291 -49.31103,0 -89.28551,-39.62859 -89.28551,-88.51291 0,-48.88432 39.97448,-88.5129 89.28551,-88.5129 49.31103,0 89.28552,39.62857 89.28551,88.5129 z"
         sodipodi:nodetypes="sssss" /><path
         id="path19-7-7"
         style="display:inline;fill:none;stroke:#ffffff;stroke-width:9.50001;stroke-linecap:round;stroke-linejoin:round;stroke-dasharray:none;paint-order:markers stroke fill"
         inkscape:label="path19"
         d="m 373.41508,226.86727 c 0,78.21155 -63.8969,141.66078 -142.87064,142.05625 -0.24737,8.3e-4 -0.49488,0.002 -0.74254,0.002 -79.31537,0 -143.613177,-63.60158 -143.613177,-142.05811 0,-78.45654 64.297807,-142.05812 143.613177,-142.05812 79.31537,0 143.61318,63.60158 143.61318,142.05812 z"
         sodipodi:nodetypes="ssssss" /><path
         id="ellipse22"
         style="display:inline;fill:none;stroke:#ffffff;stroke-width:9.6;stroke-linecap:round;stroke-linejoin:round;stroke-dasharray:none;paint-order:markers stroke fill"
         inkscape:label="path19"
         d="M 399.67732,226.4839 A 169.87542,168.07626 0 0 1 229.8019,394.56017 169.87542,168.07626 0 0 1 59.92648,226.4839 169.87542,168.07626 0 0 1 229.8019,58.407621 169.87542,168.07626 0 0 1 399.67732,226.4839 Z" /><path
         id="ellipse23"
         style="display:inline;fill:none;stroke:#ffffff;stroke-width:9.70005;stroke-linecap:round;stroke-linejoin:round;stroke-dasharray:none;paint-order:markers stroke fill"
         inkscape:label="path19"
         d="M 427.35718,227.07816 A 197.55526,195.4021 0 0 1 229.80192,422.48031 197.55526,195.4021 0 0 1 32.246649,227.07816 197.55526,195.4021 0 0 1 229.80192,31.676059 197.55526,195.4021 0 0 1 427.35718,227.07816 Z" /><path
         id="ellipse24"
         style="display:inline;fill:none;stroke:#ffffff;stroke-width:9.50001;stroke-linecap:round;stroke-linejoin:round;stroke-dasharray:none;paint-order:markers stroke fill"
         inkscape:label="path19"
         d="M 454.31279,227.01125 A 224.75412,222.31516 0 0 1 229.55867,449.32642 224.75412,222.31516 0 0 1 4.8045421,227.01125 224.75412,222.31516 0 0 1 229.55867,4.6960901 224.75412,222.31516 0 0 1 454.31279,227.01125 Z" /><path
         id="ellipse25"
         style="display:inline;fill:none;stroke:#ffffff;stroke-width:9.49993;stroke-linecap:round;stroke-linejoin:round;stroke-dasharray:none;paint-order:markers stroke fill"
         inkscape:label="path19"
         d="M 346.39434,226.81661 A 115.26328,116.73149 87.587447 0 1 229.54123,342.08252 115.26328,116.73149 87.587447 0 1 112.93667,226.81661 115.26328,116.73149 87.587447 0 1 229.78979,111.55072 115.26328,116.73149 87.587447 0 1 346.39434,226.81661 Z" /></pattern><pattern
       patternUnits="userSpaceOnUse"
       width="674.27631"
       height="674.26551"
       patternTransform="translate(1172.3374,23.793999)"
       preserveAspectRatio="xMidYMid"
       id="pattern68"><path
         id="path39"
         style="fill:none;fill-opacity:1;stroke:#ffffff;stroke-width:9.20002;stroke-linecap:butt;stroke-dasharray:none;stroke-opacity:1;paint-order:normal"
         d="M 337.13719,4.5477951 A 332.48622,332.58523 0 0 0 4.6528223,337.13178 332.48622,332.58523 0 0 0 337.13719,669.71772 332.48622,332.58523 0 0 0 669.62348,337.13178 332.48622,332.58523 0 0 0 337.13719,4.5477951 Z M 336.87547,30.094669 A 307.15749,307.15837 0 0 1 644.03364,337.25287 307.15749,307.15837 0 0 1 336.87547,644.41108 307.15749,307.15837 0 0 1 29.717227,337.25287 307.15749,307.15837 0 0 1 336.87547,30.094669 Z m 0.26172,25.101568 A 281.94427,281.94493 0 0 0 55.193843,337.14155 281.94427,281.94493 0 0 0 337.13719,619.08491 281.94427,281.94493 0 0 0 619.08246,337.14155 281.94427,281.94493 0 0 0 337.13719,55.196237 Z m 0,25.275389 A 256.59596,256.5964 0 0 1 593.73483,337.06928 256.59596,256.5964 0 0 1 337.13719,593.66499 256.59596,256.5964 0 0 1 80.541478,337.06928 256.59596,256.5964 0 0 1 337.13719,80.471626 Z m 0,25.197264 A 231.45343,231.45361 0 0 0 105.68409,337.12201 231.45343,231.45361 0 0 0 337.13719,568.5771 231.45343,231.45361 0 0 0 568.5923,337.12201 231.45343,231.45361 0 0 0 337.13719,105.66889 Z m 0,25.5918 A 205.79393,205.79384 0 0 1 542.93209,337.05366 205.79393,205.79384 0 0 1 337.13719,542.84858 205.79393,205.79384 0 0 1 131.34422,337.05366 205.79393,205.79384 0 0 1 337.13719,131.26069 Z" /></pattern></defs><sodipodi:namedview
     id="namedview1"
     pagecolor="#000000"
     bordercolor="#000000"
     borderopacity="0.25"
     inkscape:showpageshadow="2"
     inkscape:pageopacity="0.0"
     inkscape:pagecheckerboard="false"
     inkscape:deskcolor="#d1d1d1"
     showgrid="false"
     showguides="true"
     inkscape:zoom="4.5359019"
     inkscape:cx="504.64054"
     inkscape:cy="981.5027"
     inkscape:window-width="1392"
     inkscape:window-height="1027"
     inkscape:window-x="0"
     inkscape:window-y="25"
     inkscape:window-maximized="0"
     inkscape:current-layer="g1"><inkscape:grid
       id="grid11"
       units="px"
       originx="0"
       originy="0"
       spacingx="1"
       spacingy="1"
       empcolor="#0099e5"
       empopacity="0.30196078"
       color="#0099e5"
       opacity="0.14901961"
       empspacing="5"
       dotted="false"
       gridanglex="30"
       gridanglez="30"
       visible="false" /><sodipodi:guide
       position="960,609.35738"
       orientation="-1,0"
       id="guide72"
       inkscape:locked="false"
       inkscape:label=""
       inkscape:color="rgb(192,28,40)" /><sodipodi:guide
       position="240,500"
       orientation="-1,0"
       id="guide22"
       inkscape:locked="false"
       inkscape:label=""
       inkscape:color="rgb(255,190,111)" /><sodipodi:guide
       position="1090.0655,1438.8212"
       orientation="0,-1"
       id="guide35"
       inkscape:locked="false" /><sodipodi:guide
       position="960,500"
       orientation="0,1"
       id="guide36"
       inkscape:locked="false"
       inkscape:label=""
       inkscape:color="rgb(192,28,40)" /><sodipodi:guide
       position="360,500"
       orientation="-1,0"
       id="guide1"
       inkscape:locked="false"
       inkscape:label=""
       inkscape:color="rgb(255,190,111)" /><sodipodi:guide
       position="480,500"
       orientation="-1,0"
       id="guide2"
       inkscape:locked="false"
       inkscape:label=""
       inkscape:color="rgb(255,190,111)" /><sodipodi:guide
       position="720,500"
       orientation="-1,0"
       id="guide3"
       inkscape:label=""
       inkscape:locked="false"
       inkscape:color="rgb(255,190,111)" /><sodipodi:guide
       position="600,500"
       orientation="-1,0"
       id="guide4"
       inkscape:label=""
       inkscape:locked="false"
       inkscape:color="rgb(255,190,111)" /><sodipodi:guide
       position="840,500"
       orientation="-1,0"
       id="guide5"
       inkscape:label=""
       inkscape:locked="false"
       inkscape:color="rgb(255,190,111)" /><sodipodi:guide
       position="1080,1071.9149"
       orientation="-1,0"
       id="guide6"
       inkscape:label=""
       inkscape:locked="false"
       inkscape:color="rgb(255,190,111)" /><sodipodi:guide
       position="1200,1121.0567"
       orientation="-1,0"
       id="guide7"
       inkscape:label=""
       inkscape:locked="false"
       inkscape:color="rgb(255,190,111)" /><sodipodi:guide
       position="1320,1103.078"
       orientation="-1,0"
       id="guide8"
       inkscape:label=""
       inkscape:locked="false"
       inkscape:color="rgb(255,190,111)" /><sodipodi:guide
       position="1440,1113.8652"
       orientation="-1,0"
       id="guide9"
       inkscape:label=""
       inkscape:locked="false"
       inkscape:color="rgb(255,190,111)" /><sodipodi:guide
       position="1320,1103.078"
       orientation="-1,0"
       id="guide10"
       inkscape:label=""
       inkscape:locked="false"
       inkscape:color="rgb(255,190,111)" /><sodipodi:guide
       position="1680,1135.4397"
       orientation="-1,0"
       id="guide11"
       inkscape:label=""
       inkscape:locked="false"
       inkscape:color="rgb(255,190,111)" /><sodipodi:guide
       position="1560,1185.7801"
       orientation="-1,0"
       id="guide12"
       inkscape:label=""
       inkscape:locked="false"
       inkscape:color="rgb(255,190,111)" /></sodipodi:namedview><g
     inkscape:groupmode="layer"
     inkscape:label="line2"
     id="g1"
     transform="matrix(0.65696848,0,0,0.64907287,382.2532,79.427235)"
     style="display:inline;fill:#f28705;fill-opacity:1;stroke-width:1.27848"><path
       id="path2"
       style="font-size:225.137px;font-family:'Creative Fusion';-inkscape-font-specification:'Creative Fusion, Normal';fill:#f28705;fill-opacity:1;stroke-width:14.0886;stroke-linecap:round;paint-order:markers stroke fill"
       inkscape:label="path5"
       d="m 42.323878,1344.6141 -0.627291,0.4363 0.133783,1.5768 v 8.8768 c 791.52695,0.2904 1583.05393,0.148 2374.58093,0.1505 v -10.8388 c -791.3623,-0.2102 -1582.72506,0.3411 -2374.087422,-0.2016 z m 0.05649,30.7169 -1.117823,10.8418 c 791.716205,0.2996 1583.432555,0.1497 2375.148755,0.1535 v -10.8268 c -791.3419,-1.0201 -1582.68926,1.2765 -2374.030932,-0.1685 z m -0.18135,30.8192 0.03865,0.039 c 0,0 -0.25115,10.7942 -0.368644,10.7365 791.513646,0.7352 1583.028276,0.3551 2374.542276,0.3551 v -10.7666 c -791.4039,-0.2502 -1582.80851,0.5053 -2374.212281,-0.3641 z m -0.136754,29.4952 -0.148647,10.8207 c 791.492593,3.0407 1582.999983,1.4805 2374.497683,1.4805 v -10.8388 z m -0.124947,32.2514 0.03279,10.7845 c 791.480297,0.4444 1582.960897,0.2227 2374.441197,0.2227 v -10.8418 c -667.038,8.4486 -2374.473983,-0.1654 -2374.473983,-0.1654 z m -0.106942,30.5305 v 10.8207 c 791.526735,0.6366 1583.054025,0.3147 2374.580925,0.3159 v -10.8357 c -791.426,-4.097 -1583.17058,4.8411 -2374.580925,-0.3009 z"
       sodipodi:nodetypes="cccccccccccccccccccccccccccccccccc" /><path
       id="circle31"
       style="display:inline;fill:#f28705;fill-opacity:1;stroke-width:1.27848;color:#000000;stroke-miterlimit:0;-inkscape-stroke:none"
       d="m 41.072273,988.26889 c -143.791833,0 -260.473833,116.68161 -260.473833,260.47351 0,143.7918 116.682,260.4737 260.473833,260.4737 0.400792,0 0.794749,-0.028 1.195119,-0.03 v -10.7665 c -0.400409,0 -0.794267,0.03 -1.195119,0.03 -137.973729,0 -249.708833,-111.7335 -249.708833,-249.7072 0,-137.9738 111.735104,-249.70996 249.708833,-249.70996 0.400852,0 0.79471,0.0282 1.195119,0.0301 v -10.76355 c -0.40037,-0.002 -0.794327,-0.0301 -1.195119,-0.0301 z m 0,31.05671 c -126.78593,0 -229.680173,102.8956 -229.680173,229.6816 0,126.786 102.894243,229.6816 229.680173,229.6816 0.40079,0 0.794807,-0.028 1.195119,-0.03 v -10.7635 c -0.400349,0 -0.794263,0.03 -1.195119,0.03 -120.967824,0 -218.915173,-97.9502 -218.915173,-218.9181 0,-120.9679 97.947349,-218.918 218.915173,-218.918 0.400856,0 0.79477,0.028 1.195119,0.03 v -10.7636 c -0.400312,0 -0.794329,-0.03 -1.195119,-0.03 z m 0,30.5364 c -109.443973,0 -198.280003,88.8377 -198.280003,198.2816 0,109.4439 88.83603,198.2816 198.280003,198.2816 0.400839,0 0.794835,-0.028 1.195119,-0.03 v -10.7665 c -0.400206,0 -0.794321,0.03 -1.195119,0.03 -103.625876,0 -187.515003,-83.8893 -187.515003,-187.5151 0,-103.6258 83.889127,-187.515 187.515003,-187.515 0.400798,0 0.794913,0.028 1.195119,0.03 v -10.7666 c -0.400284,0 -0.79428,-0.03 -1.195119,-0.03 z m 0,30.2957 c -92.911729,0 -168.348483,75.5046 -168.348483,168.4162 0,92.9117 75.436754,168.3501 168.348483,168.3501 0.400822,0 0.794951,-0.027 1.195119,-0.03 v -10.7665 c -0.400065,0 -0.794347,0.03 -1.195119,0.03 -87.093631,0 -157.583483,-70.49 -157.583483,-157.5836 0,-87.0935 70.489852,-157.6496 157.583483,-157.6496 0.400772,0 0.795054,-0.2033 1.195119,-0.2003 v -10.3058 c -0.400168,0 -0.794297,-0.2605 -1.195119,-0.2605 z m -0.796599,30.6799 c -75.942617,-0.01 -137.665728,61.7936 -137.665728,137.7363 0,75.9427 62.519709,137.6242 138.462327,137.6242 0.403391,0 0.792539,-0.057 1.195119,-0.06 l 0.50877,-10.7665 c -0.402652,0 -1.300344,0.06 -1.703889,0.06 -70.124509,0 -126.855206,-56.733 -126.855206,-126.8576 0,-70.1246 56.683131,-126.9449 126.807638,-126.9449 0.403546,0 0.840036,-0.015 1.242687,-0.011 l 0.27312,-9.1079 c -0.402577,0 -1.297138,-1.0172 -1.491,-0.6591 -0.146776,0.271 -0.493132,-1.0137 -0.773838,-1.0138 z m 0.796599,30.808 c -58.353525,0 -105.708707,47.9716 -105.708707,106.9283 0,58.9568 47.355182,106.9314 105.708707,106.9314 0.403429,0 0.792751,-0.056 1.195119,-0.06 v -10.7666 c -0.402271,0.01 -0.791654,0.06 -1.195119,0.06 -52.464703,0 -94.943705,-42.9562 -94.943705,-96.1648 0,-53.2084 42.479002,-96.1618 94.943705,-96.1618 0.403471,0 0.792842,0.055 1.195119,0.06 0,0 2.444322,-8.1668 0,-10.7666 -0.274964,-0.2925 -1.593976,-0.06 -1.195119,-0.06 0.287196,0 0,10e-5 0,10e-5 z"
       inkscape:label="path4"
       sodipodi:nodetypes="sssccsssccssssccsssccssssccsssccssssccsssccssssccsssccssssccsssccsass" /><path
       id="path3"
       style="font-size:225.137px;font-family:'Creative Fusion';-inkscape-font-specification:'Creative Fusion, Normal';display:inline;fill:#f28705;fill-opacity:1;stroke-width:14.0886;stroke-linecap:round;paint-order:markers stroke fill"
       inkscape:label="path3"
       d="m 1608.2312,988.1383 c -65.9303,0.0559 -1565.196953,0.0688 -1568.089458,0.12939 v 10.73948 c 2.859811,-0.0309 1513.368358,-0.0811 1568.089458,-0.12037 z m 0,30.8431 c -100.5034,0.041 -1564.503128,0.085 -1568.006215,0.1173 l 0.02973,11.0224 c 2.662916,0 1473.582885,-0.1119 1567.976485,-0.2047 z m 0,30.6597 c -90.4181,0.092 -1565.915988,0.2234 -1567.94973,0.2287 l -0.04162,10.8448 c 2.407812,-0.01 1473.35945,-0.1235 1567.99135,-0.2197 z m 0,30.413 c -99.4765,0.046 -1565.744169,0.1066 -1567.976486,0.1023 l -0.08621,10.7846 c 3.01806,0.013 1468.709596,-0.011 1568.062696,-0.021 z m 0,30.7199 c -97.3299,0.029 -1565.924408,0.06 -1568.006215,0.063 l 0.02973,10.7906 c 1.773859,-0.015 1476.502185,-0.052 1567.976485,-0.078 z m 0,30.6115 c -71.6366,0.036 -1566.303002,0.1433 -1568.151889,0.1023 l 0.03865,10.8689 c 1.795561,-0.01 1514.457339,-0.1024 1568.113239,-0.1534 z"
       sodipodi:nodetypes="cccccccccccccccccccccccccccccc" /></g><g
     inkscape:groupmode="layer"
     id="layer2"
     inkscape:label="line1"><path
       id="path10"
       style="color:#000000;display:inline;fill:#f28705;fill-opacity:1;stroke-width:0.834859;stroke-miterlimit:0;-inkscape-stroke:none"
       d="m 1438.9748,105.26445 c -1.2528,0 -4.2283,0.006 -4.1575,1.25422 l 0.3225,5.68531 c 1.2497,-0.0131 2.4582,0.18461 3.7109,0.18461 93.2334,0 182.7714,39.48814 248.7139,105.43055 65.9426,65.94238 103,155.39243 103,248.67187 0,93.27941 -37.0574,182.72947 -103,248.67188 -65.9425,65.94238 -155.8106,105.09707 -249.0439,105.09707 l -0.018,7.03426 c 95.832,0 188.2114,-37.65204 255.9583,-105.39891 67.7469,-67.74687 105.7969,-159.61855 105.7969,-255.4043 0,-95.78577 -38.05,-187.65741 -105.7969,-255.40429 -67.7469,-67.74688 -159.6543,-105.82227 -255.4863,-105.82227 z m 0,19.99609 c -1.2528,0 -4.2938,0.64958 -4.2815,1.89922 l 0.05,5.05678 c 1.2495,-0.0138 2.9791,0.35827 4.2319,0.35827 88.0875,0 172.5662,36.7247 234.8691,99.02753 62.3031,62.30282 97.3145,146.81621 97.3145,234.94727 0,88.13103 -35.0114,172.64443 -97.3145,234.94726 -62.3029,62.30282 -147.0968,98.9045 -235.1843,98.9045 v 6.99602 c 90.5428,0 177.6923,-35.53148 241.6999,-99.53919 64.0078,-64.00771 99.959,-150.80956 99.959,-241.30859 0,-90.49905 -35.9512,-177.29893 -99.959,-241.30664 -64.0079,-64.00771 -150.8422,-99.98243 -241.385,-99.98243 z m 0,19.89258 c -1.2528,0 -3.711,1.30851 -3.711,2.55795 v 4.36349 c 1.2494,-0.0147 2.4582,0.2011 3.711,0.2011 82.9418,0 162.4849,34.34297 221.1484,93.00637 58.6637,58.66337 91.6309,138.23981 91.6309,221.22266 0,82.98281 -32.9672,162.55926 -91.6309,221.22265 -58.6635,58.66338 -138.531,92.72994 -221.4728,92.72994 l 0.042,7.06315 c 85.2538,0 167.2985,-33.53415 227.5671,-93.80283 60.2688,-60.26868 94.1192,-142.00039 94.1192,-227.21289 0,-85.21252 -33.8504,-166.94226 -94.1192,-227.21094 -60.2686,-60.26867 -142.0314,-94.14063 -227.2851,-94.14063 z m 0,19.89258 c -1.2528,0 -4.4834,0.54061 -4.3327,1.78075 l 0.6217,5.11852 c 1.2491,-0.0156 2.4582,0.23996 3.711,0.23996 77.8009,0 152.4139,31.75721 207.4414,86.7846 55.0275,55.02737 85.9512,129.67221 85.9512,207.51172 0,77.83948 -30.9237,152.48237 -85.9512,207.50976 -55.0275,55.02738 -129.9683,86.72149 -207.7692,86.72149 l 0.042,7.0419 c 79.9696,0 156.9495,-31.61106 213.4826,-88.14425 56.5333,-56.53317 88.2852,-133.19793 88.2852,-213.1289 0,-79.93098 -31.7519,-156.59573 -88.2852,-213.12891 -56.5331,-56.53318 -133.2275,-88.30664 -213.1972,-88.30664 z m 0,19.8125 c -1.2528,0 -4.2939,0.37631 -4.2939,1.62531 v 4.74857 c 1.2488,-0.0167 3.0411,0.70627 4.2939,0.70627 72.6943,0 142.4104,29.26207 193.8262,80.67766 51.4157,51.41559 80.3085,121.16022 80.3085,193.89063 0,72.73039 -28.8928,142.47698 -80.3085,193.89257 -51.4158,51.41559 -121.5227,80.40933 -194.217,80.40933 v 7.10894 c 74.7208,0 146.7733,-29.44767 199.5958,-82.27022 52.8227,-52.82254 82.4903,-124.45603 82.4903,-199.14062 0,-74.6846 -29.6676,-146.31613 -82.4903,-199.13867 -52.8225,-52.82256 -124.4842,-82.50977 -199.205,-82.50977 z m 0,20.00781 c -1.4082,0 -3.711,0.1875 -3.711,0.1875 l -0.1943,6.93164 c 1.2485,-0.018 2.6525,0.0845 3.9053,0.0845 67.4722,0 132.1801,26.52734 179.9023,74.24947 47.7222,47.72212 74.541,112.4571 74.541,179.96289 0,67.50578 -26.8188,132.24076 -74.541,179.96289 -47.7222,47.72213 -112.7229,74.5593 -180.1951,74.5593 l 2e-4,6.98166 c 69.3531,0 136.1592,-27.63989 185.1873,-76.66792 49.0281,-49.02801 76.5645,-115.51635 76.5645,-184.83593 0,-69.31959 -27.5364,-135.80597 -76.5645,-184.83398 -49.0281,-49.02802 -115.5414,-76.58204 -184.8945,-76.58204 z"
       sodipodi:nodetypes="ssccssscccsssssccssscccsssssccssssccsssssccsssssccsssscccsssscccsscccssssscccsssccs"
       inkscape:label="path2" /><path
       id="path1"
       style="display:inline;fill:#f28705;fill-opacity:1;stroke-width:0.791003;stroke-dasharray:none"
       inkscape:label="path1"
       d="m -24.142586,105.20312 v 6.96485 H 1156.4297 c 143.2056,6e-5 268.9606,0.10795 282.9101,0.21289 l -0.123,-6.98633 c -7.2035,-0.23009 -77.6017,-0.14964 -280.0586,-0.16015 z m 0,19.82032 v 6.9707 H 1154.8711 c 142.4052,0.001 271.5846,0.46072 284.6797,0.56641 l -0.252,-7.15821 c -6.8634,-0.0628 -77.8459,-0.3311 -281.1172,-0.34179 z m 0,19.82226 v 7.17383 l 1182.519586,0.0391 c 168.6745,0.0402 270.061,0.10543 280.9648,0.24805 l -0.043,-7.1582 c -10.8695,-0.14387 -116.6672,-0.24973 -282.0898,-0.25977 z m 0,19.9961 v 7.00195 l 1181.544886,0.0391 c 169.1079,0.0407 271.7416,0.15815 281.8965,0.30274 v -7.16016 c -12.1667,-0.1155 -133.0618,-0.18359 -283.6211,-0.18359 z m 0,19.82422 v 7 l 1180.572286,0.0391 c 202.9335,0.0491 276.5976,0.29831 282.8262,0.28906 l 0.043,-7.15234 c -12.0137,-0.10668 -142.2472,-0.17578 -285.0117,-0.17578 z m 0,20.0332 v 6.96289 H 1155.0977 c 153.3367,0 273.4041,0.34888 284.2011,0.46875 l 0.066,-7.17969 c -5.7155,-0.0223 -78.0397,-0.17061 -281.9609,-0.21875 z"
       sodipodi:nodetypes="ccccccccccccccccccccccccccsccccccscccscccc" /></g></svg>
