<?xml version="1.0" encoding="UTF-8" standalone="no"?>
<!-- Created with Inkscape (http://www.inkscape.org/) -->

<svg
   version="1.1"
   id="svg1"
   width="1920"
   height="920"
   viewBox="0 0 1920 920"
   sodipodi:docname="landing_large_line_only2.svg"
   inkscape:version="1.3.2 (091e20e, 2023-11-25)"
   inkscape:export-filename="landing_line_large.svg"
   inkscape:export-xdpi="96"
   inkscape:export-ydpi="96"
   xml:space="preserve"
   xmlns:inkscape="http://www.inkscape.org/namespaces/inkscape"
   xmlns:sodipodi="http://sodipodi.sourceforge.net/DTD/sodipodi-0.dtd"
   xmlns="http://www.w3.org/2000/svg"
   xmlns:svg="http://www.w3.org/2000/svg"><defs
     id="defs1"><rect
       x="153.17824"
       y="148.80173"
       width="1284.509"
       height="448.59341"
       id="rect31" /><inkscape:path-effect
       effect="bspline"
       id="path-effect4"
       is_visible="true"
       lpeversion="1.3"
       weight="33.333333"
       steps="2"
       helper_size="0"
       apply_no_weight="true"
       apply_with_weight="true"
       only_selected="false"
       uniform="false" /><inkscape:path-effect
       effect="bspline"
       id="path-effect27"
       is_visible="true"
       lpeversion="1.3"
       weight="33.333333"
       steps="2"
       helper_size="0"
       apply_no_weight="true"
       apply_with_weight="true"
       only_selected="false"
       uniform="false" /><inkscape:path-effect
       effect="fillet_chamfer"
       id="path-effect48"
       is_visible="true"
       lpeversion="1"
       nodesatellites_param="F,0,0,1,0,35.174275,0,1 @ F,0,0,1,0,0,0,1 @ F,0,0,1,0,0,0,1 @ F,0,0,1,0,26.967006,0,1"
       radius="0"
       unit="px"
       method="auto"
       mode="F"
       chamfer_steps="1"
       flexible="false"
       use_knot_distance="true"
       apply_no_radius="true"
       apply_with_radius="true"
       only_selected="false"
       hide_knots="false" /><rect
       x="633.89178"
       y="291.68799"
       width="791.9574"
       height="246.06084"
       id="rect47" /><rect
       x="50.659966"
       y="467.76038"
       width="207.70587"
       height="20.263987"
       id="rect3" /><rect
       x="173.93256"
       y="280.31848"
       width="1372.8851"
       height="202.63988"
       id="rect1" /><pattern
       patternUnits="userSpaceOnUse"
       width="459.11733"
       height="454.02251"
       patternTransform="translate(85.46106,465.15187)"
       preserveAspectRatio="xMidYMid"
       id="pattern4"
       inkscape:label="path19"><path
         id="use21"
         style="display:inline;fill:none;stroke:#ffffff;stroke-width:9.60003;stroke-linecap:round;stroke-linejoin:round;stroke-dasharray:none;paint-order:markers stroke fill"
         inkscape:label="path19"
         d="m 318.75846,226.81568 c 10e-6,48.88433 -39.97448,88.51291 -89.28551,88.51291 -49.31103,0 -89.28551,-39.62859 -89.28551,-88.51291 0,-48.88432 39.97448,-88.5129 89.28551,-88.5129 49.31103,0 89.28552,39.62857 89.28551,88.5129 z"
         sodipodi:nodetypes="sssss" /><path
         id="path19-7-7"
         style="display:inline;fill:none;stroke:#ffffff;stroke-width:9.50001;stroke-linecap:round;stroke-linejoin:round;stroke-dasharray:none;paint-order:markers stroke fill"
         inkscape:label="path19"
         d="m 373.41508,226.86727 c 0,78.21155 -63.8969,141.66078 -142.87064,142.05625 -0.24737,8.3e-4 -0.49488,0.002 -0.74254,0.002 -79.31537,0 -143.613177,-63.60158 -143.613177,-142.05811 0,-78.45654 64.297807,-142.05812 143.613177,-142.05812 79.31537,0 143.61318,63.60158 143.61318,142.05812 z"
         sodipodi:nodetypes="ssssss" /><path
         id="ellipse22"
         style="display:inline;fill:none;stroke:#ffffff;stroke-width:9.6;stroke-linecap:round;stroke-linejoin:round;stroke-dasharray:none;paint-order:markers stroke fill"
         inkscape:label="path19"
         d="M 399.67732,226.4839 A 169.87542,168.07626 0 0 1 229.8019,394.56017 169.87542,168.07626 0 0 1 59.92648,226.4839 169.87542,168.07626 0 0 1 229.8019,58.407621 169.87542,168.07626 0 0 1 399.67732,226.4839 Z" /><path
         id="ellipse23"
         style="display:inline;fill:none;stroke:#ffffff;stroke-width:9.70005;stroke-linecap:round;stroke-linejoin:round;stroke-dasharray:none;paint-order:markers stroke fill"
         inkscape:label="path19"
         d="M 427.35718,227.07816 A 197.55526,195.4021 0 0 1 229.80192,422.48031 197.55526,195.4021 0 0 1 32.246649,227.07816 197.55526,195.4021 0 0 1 229.80192,31.676059 197.55526,195.4021 0 0 1 427.35718,227.07816 Z" /><path
         id="ellipse24"
         style="display:inline;fill:none;stroke:#ffffff;stroke-width:9.50001;stroke-linecap:round;stroke-linejoin:round;stroke-dasharray:none;paint-order:markers stroke fill"
         inkscape:label="path19"
         d="M 454.31279,227.01125 A 224.75412,222.31516 0 0 1 229.55867,449.32642 224.75412,222.31516 0 0 1 4.8045421,227.01125 224.75412,222.31516 0 0 1 229.55867,4.6960901 224.75412,222.31516 0 0 1 454.31279,227.01125 Z" /><path
         id="ellipse25"
         style="display:inline;fill:none;stroke:#ffffff;stroke-width:9.49993;stroke-linecap:round;stroke-linejoin:round;stroke-dasharray:none;paint-order:markers stroke fill"
         inkscape:label="path19"
         d="M 346.39434,226.81661 A 115.26328,116.73149 87.587447 0 1 229.54123,342.08252 115.26328,116.73149 87.587447 0 1 112.93667,226.81661 115.26328,116.73149 87.587447 0 1 229.78979,111.55072 115.26328,116.73149 87.587447 0 1 346.39434,226.81661 Z" /></pattern><pattern
       patternUnits="userSpaceOnUse"
       width="674.27631"
       height="674.26551"
       patternTransform="translate(1172.3374,23.793999)"
       preserveAspectRatio="xMidYMid"
       id="pattern68"><path
         id="path39"
         style="fill:none;fill-opacity:1;stroke:#ffffff;stroke-width:9.20002;stroke-linecap:butt;stroke-dasharray:none;stroke-opacity:1;paint-order:normal"
         d="M 337.13719,4.5477951 A 332.48622,332.58523 0 0 0 4.6528223,337.13178 332.48622,332.58523 0 0 0 337.13719,669.71772 332.48622,332.58523 0 0 0 669.62348,337.13178 332.48622,332.58523 0 0 0 337.13719,4.5477951 Z M 336.87547,30.094669 A 307.15749,307.15837 0 0 1 644.03364,337.25287 307.15749,307.15837 0 0 1 336.87547,644.41108 307.15749,307.15837 0 0 1 29.717227,337.25287 307.15749,307.15837 0 0 1 336.87547,30.094669 Z m 0.26172,25.101568 A 281.94427,281.94493 0 0 0 55.193843,337.14155 281.94427,281.94493 0 0 0 337.13719,619.08491 281.94427,281.94493 0 0 0 619.08246,337.14155 281.94427,281.94493 0 0 0 337.13719,55.196237 Z m 0,25.275389 A 256.59596,256.5964 0 0 1 593.73483,337.06928 256.59596,256.5964 0 0 1 337.13719,593.66499 256.59596,256.5964 0 0 1 80.541478,337.06928 256.59596,256.5964 0 0 1 337.13719,80.471626 Z m 0,25.197264 A 231.45343,231.45361 0 0 0 105.68409,337.12201 231.45343,231.45361 0 0 0 337.13719,568.5771 231.45343,231.45361 0 0 0 568.5923,337.12201 231.45343,231.45361 0 0 0 337.13719,105.66889 Z m 0,25.5918 A 205.79393,205.79384 0 0 1 542.93209,337.05366 205.79393,205.79384 0 0 1 337.13719,542.84858 205.79393,205.79384 0 0 1 131.34422,337.05366 205.79393,205.79384 0 0 1 337.13719,131.26069 Z" /></pattern></defs><sodipodi:namedview
     id="namedview1"
     pagecolor="#000000"
     bordercolor="#000000"
     borderopacity="0.25"
     inkscape:showpageshadow="2"
     inkscape:pageopacity="0.0"
     inkscape:pagecheckerboard="false"
     inkscape:deskcolor="#d1d1d1"
     showgrid="false"
     showguides="true"
     inkscape:zoom="0.66809228"
     inkscape:cx="452.03336"
     inkscape:cy="487.95654"
     inkscape:window-width="1392"
     inkscape:window-height="1027"
     inkscape:window-x="0"
     inkscape:window-y="25"
     inkscape:window-maximized="0"
     inkscape:current-layer="g1"><inkscape:grid
       id="grid11"
       units="px"
       originx="0"
       originy="0"
       spacingx="1"
       spacingy="1"
       empcolor="#0099e5"
       empopacity="0.30196078"
       color="#0099e5"
       opacity="0.14901961"
       empspacing="5"
       dotted="false"
       gridanglex="30"
       gridanglez="30"
       visible="false" /><sodipodi:guide
       position="960,459.35738"
       orientation="-1,0"
       id="guide72"
       inkscape:locked="false"
       inkscape:label=""
       inkscape:color="rgb(192,28,40)" /><sodipodi:guide
       position="240,350"
       orientation="-1,0"
       id="guide22"
       inkscape:locked="false"
       inkscape:label=""
       inkscape:color="rgb(255,190,111)" /><sodipodi:guide
       position="1090.0655,1288.8212"
       orientation="0,-1"
       id="guide35"
       inkscape:locked="false" /><sodipodi:guide
       position="960,350"
       orientation="0,1"
       id="guide36"
       inkscape:locked="false"
       inkscape:label=""
       inkscape:color="rgb(192,28,40)" /><sodipodi:guide
       position="360,350"
       orientation="-1,0"
       id="guide1"
       inkscape:locked="false"
       inkscape:label=""
       inkscape:color="rgb(255,190,111)" /><sodipodi:guide
       position="480,350"
       orientation="-1,0"
       id="guide2"
       inkscape:locked="false"
       inkscape:label=""
       inkscape:color="rgb(255,190,111)" /><sodipodi:guide
       position="720,350"
       orientation="-1,0"
       id="guide3"
       inkscape:label=""
       inkscape:locked="false"
       inkscape:color="rgb(255,190,111)" /><sodipodi:guide
       position="600,350"
       orientation="-1,0"
       id="guide4"
       inkscape:label=""
       inkscape:locked="false"
       inkscape:color="rgb(255,190,111)" /><sodipodi:guide
       position="840,350"
       orientation="-1,0"
       id="guide5"
       inkscape:label=""
       inkscape:locked="false"
       inkscape:color="rgb(255,190,111)" /><sodipodi:guide
       position="1080,921.9149"
       orientation="-1,0"
       id="guide6"
       inkscape:label=""
       inkscape:locked="false"
       inkscape:color="rgb(255,190,111)" /><sodipodi:guide
       position="1200,971.0567"
       orientation="-1,0"
       id="guide7"
       inkscape:label=""
       inkscape:locked="false"
       inkscape:color="rgb(255,190,111)" /><sodipodi:guide
       position="1320,953.078"
       orientation="-1,0"
       id="guide8"
       inkscape:label=""
       inkscape:locked="false"
       inkscape:color="rgb(255,190,111)" /><sodipodi:guide
       position="1440,963.8652"
       orientation="-1,0"
       id="guide9"
       inkscape:label=""
       inkscape:locked="false"
       inkscape:color="rgb(255,190,111)" /><sodipodi:guide
       position="1320,953.078"
       orientation="-1,0"
       id="guide10"
       inkscape:label=""
       inkscape:locked="false"
       inkscape:color="rgb(255,190,111)" /><sodipodi:guide
       position="1680,985.4397"
       orientation="-1,0"
       id="guide11"
       inkscape:label=""
       inkscape:locked="false"
       inkscape:color="rgb(255,190,111)" /><sodipodi:guide
       position="1560,1035.7801"
       orientation="-1,0"
       id="guide12"
       inkscape:label=""
       inkscape:locked="false"
       inkscape:color="rgb(255,190,111)" /></sodipodi:namedview><g
     inkscape:groupmode="layer"
     inkscape:label="line2"
     id="g1"
     transform="matrix(0.65696848,0,0,0.64907287,382.2532,79.427235)"
     style="display:inline;fill:#f28705;fill-opacity:1;stroke-width:1.27848"><path
       id="path2"
       style="font-size:225.137px;font-family:'Creative Fusion';-inkscape-font-specification:'Creative Fusion, Normal';fill:#f28705;fill-opacity:1;stroke-width:14.0886;stroke-linecap:round;paint-order:markers stroke fill"
       inkscape:label="path5"
       d="m 168.864,1115.6729 -0.53462,0.409 0.11402,1.4781 v 8.3213 c 674.59768,0.2722 1566.7972,0.1387 2241.3949,0.1411 v -10.1606 c -674.4573,-0.197 -1566.51689,0.3198 -2240.9743,-0.1889 z m 0.0481,28.7946 -0.95269,10.1633 c 674.75897,0.2809 1567.11979,0.1404 2241.87879,0.1439 v -10.1492 c -674.44,-0.9563 -1566.48633,1.1966 -2240.9261,-0.158 z m -0.15456,28.8906 0.0329,0.036 c 0,0 -0.21405,10.1187 -0.31419,10.0647 674.58635,0.6891 1566.77535,0.3328 2241.36195,0.3328 v -10.0928 c -674.4928,-0.2345 -1566.588,0.4737 -2241.0807,-0.3413 z m -0.11655,27.6494 -0.12669,10.1435 c 674.5684,2.8505 1566.7513,1.3879 2241.3239,1.3879 v -10.1605 z m -0.10649,30.2331 0.0279,10.1096 c 674.55792,0.4166 1584.3925,0.4349 2241.2758,0.2088 v -10.1633 c -568.8071,0.03 -2241.30374,-0.1551 -2241.30374,-0.1551 z m -0.0911,28.6199 v 10.1436 c 674.5975,0.5968 1566.7973,0.295 2241.3949,0.2961 v -10.1576 c -674.5116,-3.8406 -1566.8966,4.5382 -2241.3949,-0.2821 z"
       sodipodi:nodetypes="ccccccccccccccccccccccccccccccccccc" /><path
       id="circle31"
       style="color:#000000;display:inline;fill:#f28705;fill-opacity:1;stroke-width:1.27848;stroke-miterlimit:0;-inkscape-stroke:none"
       d="m 167.79729,781.6274 c -122.55001,0 -221.995021,109.37977 -221.995021,244.1733 0,134.7935 99.445011,244.1735 221.995021,244.1735 0.34159,0 0.67735,-0.026 1.01857,-0.028 v -10.0928 c -0.34126,0 -0.67693,0.028 -1.01857,0.028 -117.591392,0 -212.820294,-104.7414 -212.820294,-234.0808 0,-129.33953 95.228902,-234.08333 212.820294,-234.08333 0.34164,0 0.67731,0.0264 1.01857,0.0282 v -10.08998 c -0.34122,-0.002 -0.67698,-0.0282 -1.01857,-0.0282 z m 0,29.1132 c -108.056324,0 -195.750392,96.45648 -195.750392,215.3084 0,118.8518 87.694068,215.3083 195.750392,215.3083 0.34159,0 0.6774,-0.026 1.01857,-0.028 v -10.0899 c -0.34121,0 -0.67693,0.028 -1.01857,0.028 -103.097705,0 -186.575664,-91.8205 -186.575664,-205.2183 0,-113.39791 83.477959,-205.21837 186.575664,-205.21837 0.34164,0 0.67736,0.0262 1.01857,0.0281 v -10.09002 c -0.34117,0 -0.67698,-0.0281 -1.01857,-0.0281 z m 0,28.62546 c -93.276229,0 -168.9888494,83.27831 -168.9888494,185.87334 0,102.595 75.7126204,185.8733 168.9888494,185.8733 0.34163,0 0.67742,-0.026 1.01857,-0.028 v -10.0928 c -0.34108,0 -0.67698,0.028 -1.01857,0.028 -88.317617,0 -159.814122,-78.6396 -159.814122,-175.7806 0,-97.14102 71.496505,-175.78051 159.814122,-175.78051 0.34159,0 0.67749,0.0263 1.01857,0.0281 v -10.09271 c -0.34115,0 -0.67694,-0.0281 -1.01857,-0.0281 z m 0,28.39982 c -79.18623,0 -143.478999,70.77958 -143.478999,157.87692 0,87.0973 64.292769,157.8149 143.478999,157.8149 0.34161,0 0.67752,-0.025 1.01857,-0.028 v -10.0927 c -0.34096,0 -0.677,0.028 -1.01857,0.028 -74.227618,0 -134.304272,-66.0788 -134.304272,-147.7221 0,-81.6433 60.076654,-147.78409 134.304272,-147.78409 0.34157,0 0.67761,-0.19057 1.01857,-0.18776 v -9.66097 c -0.34105,0 -0.67696,-0.2442 -1.01857,-0.2442 z m -0.67892,28.75998 c -64.7239,-0.009 -117.328891,57.92663 -117.328891,129.11694 0,71.1902 53.283911,129.0118 118.007811,129.0118 0.3438,0 0.67546,-0.053 1.01857,-0.056 l 0.43361,-10.0927 c -0.34317,0 -1.10825,0.056 -1.45218,0.056 -59.76528,0 -108.115366,-53.1827 -108.115366,-118.9189 0,-65.73631 48.309546,-119.00087 108.074826,-119.00087 0.34393,0 0.71594,-0.0141 1.05911,-0.0103 l 0.23277,-8.53793 c -0.3431,0 -1.10551,-0.95355 -1.27074,-0.61786 -0.12509,0.25404 -0.42028,-0.95026 -0.65952,-0.95036 z m 0.67892,28.88006 c -49.73318,0 -90.092759,44.96956 -90.092759,100.23688 0,55.2673 40.359579,100.2397 90.092759,100.2397 0.34383,0 0.67564,-0.053 1.01857,-0.056 v -10.0928 c -0.34284,0.01 -0.67471,0.056 -1.01857,0.056 -44.71429,0 -80.91803,-40.2681 -80.91803,-90.1469 0,-49.87872 36.20374,-90.14414 80.91803,-90.14414 0.34387,0 0.67572,0.0516 1.01857,0.0562 0,0 2.08323,-7.65573 0,-10.09283 -0.23434,-0.2742 -1.3585,-0.0562 -1.01857,-0.0562 0.24477,0 0,10e-5 0,10e-5 z"
       inkscape:label="path4"
       sodipodi:nodetypes="sssccsssccssssccsssccssssccsssccssssccsssccssssccsssccssssccsssccsass" /><path
       id="path3"
       style="font-size:225.137px;font-family:'Creative Fusion';-inkscape-font-specification:'Creative Fusion, Normal';display:inline;fill:#f28705;fill-opacity:1;stroke-width:14.0886;stroke-linecap:round;paint-order:markers stroke fill"
       inkscape:label="path3"
       d="m 1503.4458,781.50498 c -56.1907,0.0524 -1333.97637,0.0645 -1336.44158,0.12129 v 10.06741 c 2.43735,-0.029 1289.80418,-0.076 1336.44158,-0.11283 z m 0,28.91296 c -85.6564,0.0384 -1333.38504,0.0797 -1336.37063,0.10996 l 0.0253,10.33263 c 2.26953,0 1255.89613,-0.1049 1336.34533,-0.19189 z m 0,28.74104 c -77.061,0.0863 -1334.58918,0.20942 -1336.32249,0.21439 l -0.0355,10.16614 c 2.05211,-0.009 1255.70569,-0.11577 1336.35799,-0.20595 z m 0,28.50978 c -84.7812,0.0431 -1334.44275,0.0999 -1336.34529,0.0959 l -0.0735,10.10971 c 2.57222,0.0122 1251.74269,-0.0103 1336.41879,-0.0197 z m 0,28.79748 c -82.9517,0.0272 -1334.59636,0.0562 -1336.37063,0.059 l 0.0253,10.11534 c 1.51181,-0.0141 1258.38413,-0.0488 1336.34533,-0.0731 z m 0,28.69585 c -61.054,0.0338 -1334.91903,0.13433 -1336.49478,0.0959 l 0.0329,10.18873 c 1.53031,-0.009 1290.73238,-0.096 1336.46188,-0.1438 z"
       sodipodi:nodetypes="cccccccccccccccccccccccccccccc" /></g><g
     inkscape:groupmode="layer"
     id="layer2"
     inkscape:label="line1"><path
       id="path10"
       style="color:#000000;display:inline;fill:#f28705;fill-opacity:1;stroke-width:0.834859;stroke-miterlimit:0;-inkscape-stroke:none"
       d="m 1370.1098,9.6641527 c -1.0677,0 -3.6037,0.0056 -3.5433,1.1757323 l 0.2748,5.329528 c 1.0651,-0.01228 2.0951,0.173057 3.1627,0.173057 79.4604,0 155.7713,37.017004 211.9724,98.83279 56.2011,61.81576 87.7842,145.66809 87.7842,233.11018 0,87.44206 -31.5831,171.29441 -87.7842,233.11019 -56.2011,61.81576 -132.7933,98.52018 -212.2536,98.52018 l -0.015,6.59406 c 81.6751,0 160.4077,-35.2958 218.1466,-98.80313 57.7389,-63.50732 90.1679,-149.62975 90.1679,-239.4213 0,-89.79157 -32.429,-175.91396 -90.1679,-239.42129 C 1530.1155,45.356816 1451.7852,9.6641527 1370.1101,9.6641527 Z m 0,18.7447513 c -1.0677,0 -3.6595,0.60893 -3.649,1.780368 l 0.043,4.740331 c 1.0649,-0.01294 2.539,0.33585 3.6067,0.33585 75.0747,0 147.0737,34.426497 200.1728,92.830467 53.0993,58.40395 82.9386,137.62856 82.9386,220.24445 0,82.61586 -29.8393,161.84048 -82.9386,220.24445 -53.0991,58.40396 -125.3667,92.71514 -200.4414,92.71514 v 6.55821 c 77.1673,0 151.4425,-33.30795 205.9945,-93.31011 54.5522,-60.00215 85.1924,-141.37201 85.1924,-226.20769 0,-84.83569 -30.6402,-166.2037 -85.1924,-226.20586 -54.5523,-60.002155 -128.5589,-93.725606 -205.7261,-93.725606 z m 0,18.647718 c -1.0677,0 -3.1628,1.226625 -3.1628,2.397876 v 4.090426 c 1.0648,-0.01378 2.0951,0.188515 3.1628,0.188515 70.6891,0 138.4816,32.193814 188.479,87.186101 49.9975,54.99226 78.0946,129.58887 78.0946,207.37872 0,77.78982 -28.0971,152.38644 -78.0946,207.37872 -49.9974,54.99227 -118.0664,86.92697 -188.7555,86.92697 l 0.036,6.62115 c 72.6596,0 142.5841,-31.43561 193.9495,-87.93273 51.3655,-56.49711 80.2153,-133.11412 80.2153,-212.99409 0,-79.87999 -28.8498,-156.49514 -80.2153,-212.99226 -51.3654,-56.497097 -121.0496,-88.249379 -193.7091,-88.249379 z m 0,18.647718 c -1.0677,0 -3.8211,0.506779 -3.6926,1.669312 l 0.5298,4.798208 c 1.0646,-0.01462 2.0951,0.224943 3.1628,0.224943 66.3077,0 129.8984,29.769867 176.7969,81.353687 46.8985,51.5838 73.2539,121.55743 73.2539,194.5258 0,72.96835 -26.3554,142.94015 -73.2539,194.52397 -46.8985,51.58381 -110.7686,81.29452 -177.0763,81.29452 l 0.036,6.60123 c 68.156,0 133.764,-29.63287 181.9456,-82.62826 48.1819,-52.99536 75.2432,-124.86251 75.2432,-199.79146 0,-74.92896 -27.0613,-146.79609 -75.2432,-199.79147 -48.1816,-52.995377 -113.5463,-82.78048 -181.7023,-82.78048 z m 0,18.572653 c -1.0677,0 -3.6596,0.35276 -3.6596,1.5236 v 4.4514 c 1.0643,-0.0156 2.5919,0.66208 3.6596,0.66208 61.9554,0 121.3727,27.430867 165.193,75.628907 43.8202,48.19805 68.4448,113.57811 68.4448,181.75711 0,68.17898 -24.6246,133.56089 -68.4448,181.75893 -43.8203,48.19804 -103.5706,75.37738 -165.5261,75.37738 v 6.66407 c 63.6826,0 125.0911,-27.60486 170.1103,-77.12182 45.0194,-49.51695 70.3043,-116.66767 70.3043,-186.67856 0,-70.0109 -25.2849,-137.15978 -70.3043,-186.67673 -45.0192,-49.51697 -106.0946,-77.346367 -169.7772,-77.346367 z m 0,18.755727 c -1.2002,0 -3.1628,0.17577 -3.1628,0.17577 l -0.1656,6.49786 c 1.0641,-0.0169 2.2607,0.0792 3.3284,0.0792 57.5048,0 112.6536,24.86728 153.326,69.60299 40.6724,44.73571 63.5294,105.41963 63.5294,168.70096 0,63.28132 -22.857,123.96524 -63.5294,168.70096 -40.6724,44.73571 -96.0708,69.89343 -153.5755,69.89343 l 10e-5,6.54476 c 59.1079,0 116.0449,-25.91021 157.8303,-71.87011 41.7854,-45.95987 65.2539,-108.28742 65.2539,-173.26904 0,-64.98163 -23.4685,-127.30734 -65.2539,-173.26722 -41.7854,-45.95988 -98.4729,-71.7896 -157.5807,-71.7896 z"
       sodipodi:nodetypes="ssccssscccsssssccssscccsssssccssssccsssssccsssssccsssscccsssscccsscccssssscccsssccs"
       inkscape:label="path2" /><path
       id="path1"
       style="display:inline;fill:#f28705;fill-opacity:1;stroke-width:0.791003;stroke-dasharray:none"
       inkscape:label="path1"
       d="M -36.488083,9.6066607 V 16.135656 H 1129.304 c 122.0504,5.7e-5 229.2281,0.101195 241.1169,0.199568 l -0.1048,-6.5491313 c -6.1394,-0.215691 -66.1379,-0.140276 -238.6867,-0.150128 z m 0,18.5799803 V 34.72112 H 1127.9757 c 121.3682,9.38e-4 231.4644,0.431889 242.625,0.530965 l -0.2148,-6.710255 c -5.8495,-0.05887 -66.346,-0.31038 -239.5888,-0.320401 z m 0,18.581799 v 6.724898 l 1167.451683,0.03665 c 143.7569,0.03768 230.166,0.09883 239.459,0.232527 l -0.037,-6.710246 c -9.2638,-0.134866 -99.4324,-0.234102 -240.4177,-0.243513 z m 0,18.74476 v 6.563774 l 1166.620983,0.03665 c 144.1263,0.03815 231.5983,0.148253 240.253,0.283795 v -6.712083 c -10.3693,-0.108272 -113.405,-0.172101 -241.7228,-0.172101 z m 0,18.583633 v 6.56195 l 1165.792083,0.0367 c 172.9549,0.046 235.7369,0.27964 241.0454,0.27097 l 0.037,-6.70475 c -10.2389,-0.1 -121.2335,-0.16478 -242.908,-0.16478 z m 0,18.779537 v 6.52716 H 1128.1688 c 130.6848,0 233.0151,0.32705 242.2171,0.43941 l 0.056,-6.73039 c -4.8712,-0.0209 -66.5112,-0.15993 -240.3079,-0.20506 z"
       sodipodi:nodetypes="ccccccccccccccccccccccccccsccccccscccscccc" /></g></svg>
